<svg width="78" height="78" viewBox="0 0 78 78" fill="none" xmlns="http://www.w3.org/2000/svg">
<path d="M12.3438 28.6914C13.8965 28.6914 14.7168 27.8125 14.7168 26.2891V19.375C14.7168 16.3281 16.3281 14.7754 19.2578 14.7754H26.3477C27.9004 14.7754 28.75 13.9258 28.75 12.4023C28.75 10.8789 27.9004 10.0586 26.3477 10.0586H19.1992C13.0762 10.0586 10 13.0762 10 19.1113V26.2891C10 27.8125 10.8496 28.6914 12.3438 28.6914ZM64.9902 28.6914C66.543 28.6914 67.3633 27.8125 67.3633 26.2891V19.1113C67.3633 13.0762 64.2871 10.0586 58.1641 10.0586H50.9863C49.4629 10.0586 48.6133 10.8789 48.6133 12.4023C48.6133 13.9258 49.4629 14.7754 50.9863 14.7754H58.0762C60.9766 14.7754 62.6465 16.3281 62.6465 19.375V26.2891C62.6465 27.8125 63.4961 28.6914 64.9902 28.6914ZM19.1992 67.3926H26.3477C27.9004 67.3926 28.75 66.543 28.75 65.0488C28.75 63.5254 27.9004 62.6758 26.3477 62.6758H19.2578C16.3281 62.6758 14.7168 61.123 14.7168 58.0762V51.1621C14.7168 49.6094 13.8672 48.7598 12.3438 48.7598C10.8203 48.7598 10 49.6094 10 51.1621V58.3105C10 64.375 13.0762 67.3926 19.1992 67.3926ZM50.9863 67.3926H58.1641C64.2871 67.3926 67.3633 64.3457 67.3633 58.3105V51.1621C67.3633 49.6094 66.5137 48.7598 64.9902 48.7598C63.4668 48.7598 62.6465 49.6094 62.6465 51.1621V58.0762C62.6465 61.123 60.9766 62.6758 58.0762 62.6758H50.9863C49.4629 62.6758 48.6133 63.5254 48.6133 65.0488C48.6133 66.543 49.4629 67.3926 50.9863 67.3926Z" fill="black" fill-opacity="0.85"/>
<path d="M23.0078 27.4609C23.0078 28.5449 23.8867 29.4238 25 29.4238H52.3633C53.4473 29.4238 54.3555 28.5449 54.3555 27.4609C54.3555 26.377 53.4473 25.4688 52.3633 25.4688H25C23.8867 25.4688 23.0078 26.377 23.0078 27.4609ZM23.0078 38.7109C23.0078 39.7949 23.8867 40.6738 25 40.6738H52.3633C53.4473 40.6738 54.3555 39.7949 54.3555 38.7109C54.3555 37.627 53.4473 36.7188 52.3633 36.7188H25C23.8867 36.7188 23.0078 37.627 23.0078 38.7109ZM23.0078 49.9609C23.0078 51.0449 23.8867 51.9531 25 51.9531H42.9883C44.0723 51.9531 44.9805 51.0449 44.9805 49.9609C44.9805 48.877 44.0723 47.998 42.9883 47.998H25C23.8867 47.998 23.0078 48.877 23.0078 49.9609Z" fill="black" fill-opacity="0.85"/>
</svg>
