<?xml version="1.0" encoding="UTF-8"?>
<!--Generator: Apple Native CoreSVG 149-->
<!DOCTYPE svg
PUBLIC "-//W3C//DTD SVG 1.1//EN"
       "http://www.w3.org/Graphics/SVG/1.1/DTD/svg11.dtd">
<svg version="1.1" xmlns="http://www.w3.org/2000/svg" xmlns:xlink="http://www.w3.org/1999/xlink" width="3300" height="2200">
 <!--glyph: "uni1002AB.medium", point size: 100.000000, font version: "Version 16.0d12e3", template writer version: "8"-->
 <g id="Notes">
  <rect height="2200" id="artboard" style="fill:white;opacity:1" width="3300" x="0" y="0"/>
  <line id="" style="fill:none;stroke:black;opacity:1;stroke-width:0.5;" x1="263" x2="3036" y1="292" y2="292"/>
  <text style="stroke:none;fill:black;font-family:-apple-system,&quot;SF Pro Display&quot;,&quot;SF Pro Text&quot;,Helvetica,sans-serif;font-weight:bold;" transform="matrix(1 0 0 1 263 322)">Weight/Scale Variations</text>
  <text style="stroke:none;fill:black;font-family:-apple-system,&quot;SF Pro Display&quot;,&quot;SF Pro Text&quot;,Helvetica,sans-serif;text-anchor:middle;" transform="matrix(1 0 0 1 559.711 322)">Ultralight</text>
  <text style="stroke:none;fill:black;font-family:-apple-system,&quot;SF Pro Display&quot;,&quot;SF Pro Text&quot;,Helvetica,sans-serif;text-anchor:middle;" transform="matrix(1 0 0 1 856.422 322)">Thin</text>
  <text style="stroke:none;fill:black;font-family:-apple-system,&quot;SF Pro Display&quot;,&quot;SF Pro Text&quot;,Helvetica,sans-serif;text-anchor:middle;" transform="matrix(1 0 0 1 1153.13 322)">Light</text>
  <text style="stroke:none;fill:black;font-family:-apple-system,&quot;SF Pro Display&quot;,&quot;SF Pro Text&quot;,Helvetica,sans-serif;text-anchor:middle;" transform="matrix(1 0 0 1 1449.84 322)">Regular</text>
  <text style="stroke:none;fill:black;font-family:-apple-system,&quot;SF Pro Display&quot;,&quot;SF Pro Text&quot;,Helvetica,sans-serif;text-anchor:middle;" transform="matrix(1 0 0 1 1746.56 322)">Medium</text>
  <text style="stroke:none;fill:black;font-family:-apple-system,&quot;SF Pro Display&quot;,&quot;SF Pro Text&quot;,Helvetica,sans-serif;text-anchor:middle;" transform="matrix(1 0 0 1 2043.27 322)">Semibold</text>
  <text style="stroke:none;fill:black;font-family:-apple-system,&quot;SF Pro Display&quot;,&quot;SF Pro Text&quot;,Helvetica,sans-serif;text-anchor:middle;" transform="matrix(1 0 0 1 2339.98 322)">Bold</text>
  <text style="stroke:none;fill:black;font-family:-apple-system,&quot;SF Pro Display&quot;,&quot;SF Pro Text&quot;,Helvetica,sans-serif;text-anchor:middle;" transform="matrix(1 0 0 1 2636.69 322)">Heavy</text>
  <text style="stroke:none;fill:black;font-family:-apple-system,&quot;SF Pro Display&quot;,&quot;SF Pro Text&quot;,Helvetica,sans-serif;text-anchor:middle;" transform="matrix(1 0 0 1 2933.4 322)">Black</text>
  <line id="" style="fill:none;stroke:black;opacity:1;stroke-width:0.5;" x1="263" x2="3036" y1="1903" y2="1903"/>
  <g id="" transform="matrix(1 0 0 1 263 1933)">
   <path d="M9.24805 0.830078C13.5547 0.830078 17.1387-2.74414 17.1387-7.05078C17.1387-11.3574 13.5449-14.9316 9.23828-14.9316C4.94141-14.9316 1.36719-11.3574 1.36719-7.05078C1.36719-2.74414 4.95117 0.830078 9.24805 0.830078ZM9.24805-0.654297C5.70312-0.654297 2.87109-3.49609 2.87109-7.05078C2.87109-10.6055 5.69336-13.4473 9.23828-13.4473C12.793-13.4473 15.6348-10.6055 15.6445-7.05078C15.6543-3.49609 12.8027-0.654297 9.24805-0.654297ZM9.22852-3.62305C9.69727-3.62305 9.9707-3.93555 9.9707-4.45312L9.9707-6.31836L12.002-6.31836C12.5-6.31836 12.832-6.57227 12.832-7.04102C12.832-7.51953 12.5195-7.7832 12.002-7.7832L9.9707-7.7832L9.9707-9.81445C9.9707-10.332 9.69727-10.6543 9.22852-10.6543C8.75977-10.6543 8.50586-10.3125 8.50586-9.81445L8.50586-7.7832L6.49414-7.7832C5.97656-7.7832 5.64453-7.51953 5.64453-7.04102C5.64453-6.57227 5.99609-6.31836 6.49414-6.31836L8.50586-6.31836L8.50586-4.45312C8.50586-3.95508 8.75977-3.62305 9.22852-3.62305Z"/>
  </g>
  <g id="" transform="matrix(1 0 0 1 281.506 1933)">
   <path d="M11.709 2.91016C17.1582 2.91016 21.6699-1.61133 21.6699-7.05078C21.6699-12.5 17.1484-17.0117 11.6992-17.0117C6.25977-17.0117 1.74805-12.5 1.74805-7.05078C1.74805-1.61133 6.26953 2.91016 11.709 2.91016ZM11.709 1.25C7.09961 1.25 3.41797-2.44141 3.41797-7.05078C3.41797-11.6602 7.08984-15.3516 11.6992-15.3516C16.3086-15.3516 20-11.6602 20.0098-7.05078C20.0195-2.44141 16.3184 1.25 11.709 1.25ZM11.6797-2.66602C12.207-2.66602 12.5098-3.01758 12.5098-3.59375L12.5098-6.23047L15.3223-6.23047C15.8691-6.23047 16.25-6.51367 16.25-7.03125C16.25-7.55859 15.8887-7.86133 15.3223-7.86133L12.5098-7.86133L12.5098-10.6836C12.5098-11.25 12.207-11.6113 11.6797-11.6113C11.1621-11.6113 10.8789-11.2305 10.8789-10.6836L10.8789-7.86133L8.07617-7.86133C7.50977-7.86133 7.13867-7.55859 7.13867-7.03125C7.13867-6.51367 7.5293-6.23047 8.07617-6.23047L10.8789-6.23047L10.8789-3.59375C10.8789-3.03711 11.1621-2.66602 11.6797-2.66602Z"/>
  </g>
  <g id="" transform="matrix(1 0 0 1 304.924 1933)">
   <path d="M14.9707 5.66406C21.9336 5.66406 27.6953-0.0976562 27.6953-7.05078C27.6953-14.0137 21.9238-19.7754 14.9609-19.7754C8.00781-19.7754 2.25586-14.0137 2.25586-7.05078C2.25586-0.0976562 8.01758 5.66406 14.9707 5.66406ZM14.9707 3.84766C8.93555 3.84766 4.08203-1.01562 4.08203-7.05078C4.08203-13.0957 8.92578-17.9492 14.9609-17.9492C21.0059-17.9492 25.8594-13.0957 25.8691-7.05078C25.8789-1.01562 21.0156 3.84766 14.9707 3.84766ZM14.9414-1.38672C15.5176-1.38672 15.8594-1.77734 15.8594-2.38281L15.8594-6.13281L19.7754-6.13281C20.3711-6.13281 20.7812-6.46484 20.7812-7.02148C20.7812-7.59766 20.3906-7.93945 19.7754-7.93945L15.8594-7.93945L15.8594-11.8652C15.8594-12.4805 15.5176-12.8711 14.9414-12.8711C14.375-12.8711 14.0527-12.4609 14.0527-11.8652L14.0527-7.93945L10.1465-7.93945C9.53125-7.93945 9.13086-7.59766 9.13086-7.02148C9.13086-6.46484 9.55078-6.13281 10.1465-6.13281L14.0527-6.13281L14.0527-2.38281C14.0527-1.79688 14.375-1.38672 14.9414-1.38672Z"/>
  </g>
  <text style="stroke:none;fill:black;font-family:-apple-system,&quot;SF Pro Display&quot;,&quot;SF Pro Text&quot;,Helvetica,sans-serif;font-weight:bold;" transform="matrix(1 0 0 1 263 1953)">Design Variations</text>
  <text style="stroke:none;fill:black;font-family:-apple-system,&quot;SF Pro Display&quot;,&quot;SF Pro Text&quot;,Helvetica,sans-serif;" transform="matrix(1 0 0 1 263 1971)">Symbols are supported in up to nine weights and three scales.</text>
  <text style="stroke:none;fill:black;font-family:-apple-system,&quot;SF Pro Display&quot;,&quot;SF Pro Text&quot;,Helvetica,sans-serif;" transform="matrix(1 0 0 1 263 1989)">For optimal layout with text and other symbols, vertically align</text>
  <text style="stroke:none;fill:black;font-family:-apple-system,&quot;SF Pro Display&quot;,&quot;SF Pro Text&quot;,Helvetica,sans-serif;" transform="matrix(1 0 0 1 263 2007)">symbols with the adjacent text.</text>
  <line id="" style="fill:none;stroke:#00AEEF;stroke-width:0.5;opacity:1.0;" x1="776" x2="776" y1="1919" y2="1933"/>
  <g id="" transform="matrix(1 0 0 1 776 1933)">
   <path d="M3.31055 0.126953C3.82812 0.126953 4.08203-0.0683594 4.26758-0.605469L5.52734-4.0625L11.2891-4.0625L12.5488-0.605469C12.7344-0.0683594 12.9883 0.126953 13.4961 0.126953C14.0137 0.126953 14.3457-0.185547 14.3457-0.673828C14.3457-0.839844 14.3164-0.986328 14.2383-1.20117L9.6582-13.3887C9.43359-13.9941 9.0332-14.2871 8.4082-14.2871C7.80273-14.2871 7.39258-13.9941 7.17773-13.3984L2.59766-1.19141C2.51953-0.976562 2.49023-0.830078 2.49023-0.664062C2.49023-0.175781 2.80273 0.126953 3.31055 0.126953ZM6.00586-5.53711L8.37891-12.1094L8.42773-12.1094L10.8008-5.53711Z"/>
  </g>
  <line id="" style="fill:none;stroke:#00AEEF;stroke-width:0.5;opacity:1.0;" x1="792.836" x2="792.836" y1="1919" y2="1933"/>
  <text style="stroke:none;fill:black;font-family:-apple-system,&quot;SF Pro Display&quot;,&quot;SF Pro Text&quot;,Helvetica,sans-serif;font-weight:bold;" transform="matrix(1 0 0 1 776 1953)">Margins</text>
  <text style="stroke:none;fill:black;font-family:-apple-system,&quot;SF Pro Display&quot;,&quot;SF Pro Text&quot;,Helvetica,sans-serif;" transform="matrix(1 0 0 1 776 1971)">Leading and trailing margins on the left and right side of each symbol</text>
  <text style="stroke:none;fill:black;font-family:-apple-system,&quot;SF Pro Display&quot;,&quot;SF Pro Text&quot;,Helvetica,sans-serif;" transform="matrix(1 0 0 1 776 1989)">can be adjusted by modifying the x-location of the margin guidelines.</text>
  <text style="stroke:none;fill:black;font-family:-apple-system,&quot;SF Pro Display&quot;,&quot;SF Pro Text&quot;,Helvetica,sans-serif;" transform="matrix(1 0 0 1 776 2007)">Modifications are automatically applied proportionally to all</text>
  <text style="stroke:none;fill:black;font-family:-apple-system,&quot;SF Pro Display&quot;,&quot;SF Pro Text&quot;,Helvetica,sans-serif;" transform="matrix(1 0 0 1 776 2025)">scales and weights.</text>
  <g id="" transform="matrix(1 0 0 1 1289 1933)">
   <path d="M2.8418 1.86523L4.54102 3.57422C5.40039 4.44336 6.38672 4.38477 7.31445 3.35938L17.4902-7.85156C17.7539-7.76367 18.0273-7.7832 18.3398-7.8418L19.4043-8.03711L20.0684-7.36328L20.0293-6.80664C19.9902-6.30859 20.1172-5.92773 20.6055-5.44922L21.3672-4.70703C21.8457-4.22852 22.4609-4.19922 22.9297-4.66797L25.8398-7.58789C26.3086-8.05664 26.2891-8.65234 25.8105-9.13086L25.0391-9.89258C24.5605-10.3711 24.1895-10.5273 23.7109-10.4883L23.1348-10.4395L22.4902-11.0742L22.7344-12.1973C22.8613-12.7637 22.7051-13.2031 22.1191-13.7891L19.9219-15.9766C16.582-19.2969 12.1484-19.2188 9.25781-16.3281C8.83789-15.918 8.80859-15.3418 9.04297-14.9512C9.27734-14.5898 9.73633-14.3555 10.3809-14.5215C11.8457-14.8633 13.3691-14.9219 14.7949-13.9844L14.209-12.5293C14.0137-12.0508 13.9844-11.6504 14.1113-11.2891L3.04688-0.898438C2.06055 0.0195312 1.98242 0.996094 2.8418 1.86523ZM10.752-15.957C13.1836-17.7344 16.4746-17.4316 18.7012-15.2051L21.1328-12.793C21.3672-12.5586 21.4062-12.373 21.3379-12.0312L21.0156-10.5469L22.5195-9.0625L23.5059-9.12109C23.7598-9.13086 23.8379-9.11133 24.0332-8.91602L24.6094-8.33984L22.168-5.89844L21.5918-6.47461C21.3965-6.66992 21.3672-6.74805 21.377-7.01172L21.4453-7.98828L19.9512-9.47266L18.4277-9.21875C18.1055-9.15039 17.959-9.17969 17.7148-9.41406L15.7129-11.416C15.459-11.6504 15.4297-11.8164 15.5859-12.1875L16.4648-14.2773C14.9023-15.7324 12.8711-16.3574 10.8398-15.7617C10.6836-15.7227 10.625-15.8496 10.752-15.957ZM5.27344 2.30469L4.10156 1.14258C3.63281 0.683594 3.74023 0.341797 4.14062-0.0195312L14.9512-10.1953L16.416-8.71094L6.42578 2.27539C6.07422 2.67578 5.74219 2.77344 5.27344 2.30469Z"/>
  </g>
  <text style="stroke:none;fill:black;font-family:-apple-system,&quot;SF Pro Display&quot;,&quot;SF Pro Text&quot;,Helvetica,sans-serif;font-weight:bold;" transform="matrix(1 0 0 1 1289 1953)">Exporting</text>
  <text style="stroke:none;fill:black;font-family:-apple-system,&quot;SF Pro Display&quot;,&quot;SF Pro Text&quot;,Helvetica,sans-serif;" transform="matrix(1 0 0 1 1289 1971)">Symbols should be outlined when exporting to ensure the</text>
  <text style="stroke:none;fill:black;font-family:-apple-system,&quot;SF Pro Display&quot;,&quot;SF Pro Text&quot;,Helvetica,sans-serif;" transform="matrix(1 0 0 1 1289 1989)">design is preserved when submitting to Xcode.</text>
  <text id="template-version" style="stroke:none;fill:black;font-family:-apple-system,&quot;SF Pro Display&quot;,&quot;SF Pro Text&quot;,Helvetica,sans-serif;text-anchor:end;" transform="matrix(1 0 0 1 3036 1933)">Template v.2.0</text>
  <text style="stroke:none;fill:black;font-family:-apple-system,&quot;SF Pro Display&quot;,&quot;SF Pro Text&quot;,Helvetica,sans-serif;text-anchor:end;" transform="matrix(1 0 0 1 3036 1951)">Requires Xcode 12 or greater</text>
  <text style="stroke:none;fill:black;font-family:-apple-system,&quot;SF Pro Display&quot;,&quot;SF Pro Text&quot;,Helvetica,sans-serif;text-anchor:end;" transform="matrix(1 0 0 1 3036 1969)">Generated from magnifyingglass</text>
  <text style="stroke:none;fill:black;font-family:-apple-system,&quot;SF Pro Display&quot;,&quot;SF Pro Text&quot;,Helvetica,sans-serif;text-anchor:end;" transform="matrix(1 0 0 1 3036 1987)">Typeset at 100 points</text>
  <text style="stroke:none;fill:black;font-family:-apple-system,&quot;SF Pro Display&quot;,&quot;SF Pro Text&quot;,Helvetica,sans-serif;" transform="matrix(1 0 0 1 263 726)">Small</text>
  <text style="stroke:none;fill:black;font-family:-apple-system,&quot;SF Pro Display&quot;,&quot;SF Pro Text&quot;,Helvetica,sans-serif;" transform="matrix(1 0 0 1 263 1156)">Medium</text>
  <text style="stroke:none;fill:black;font-family:-apple-system,&quot;SF Pro Display&quot;,&quot;SF Pro Text&quot;,Helvetica,sans-serif;" transform="matrix(1 0 0 1 263 1586)">Large</text>
 </g>
 <g id="Guides">
  <g id="H-reference" style="fill:#27AAE1;stroke:none;" transform="matrix(1 0 0 1 339 696)">
   <path d="M0.976562 0L3.66211 0L12.9883-24.4629L45.752-24.4629L55.127 0L57.7637 0L30.6152-70.459L28.125-70.459ZM29.3457-67.1387L29.4434-67.1387L44.873-26.709L13.8672-26.709Z"/>
  </g>
  <line id="Baseline-S" style="fill:none;stroke:#27AAE1;opacity:1;stroke-width:0.5;" x1="263" x2="3036" y1="696" y2="696"/>
  <line id="Capline-S" style="fill:none;stroke:#27AAE1;opacity:1;stroke-width:0.5;" x1="263" x2="3036" y1="625.541" y2="625.541"/>
  <g id="H-reference" style="fill:#27AAE1;stroke:none;" transform="matrix(1 0 0 1 339 1126)">
   <path d="M0.976562 0L3.66211 0L12.9883-24.4629L45.752-24.4629L55.127 0L57.7637 0L30.6152-70.459L28.125-70.459ZM29.3457-67.1387L29.4434-67.1387L44.873-26.709L13.8672-26.709Z"/>
  </g>
  <line id="Baseline-M" style="fill:none;stroke:#27AAE1;opacity:1;stroke-width:0.5;" x1="263" x2="3036" y1="1126" y2="1126"/>
  <line id="Capline-M" style="fill:none;stroke:#27AAE1;opacity:1;stroke-width:0.5;" x1="263" x2="3036" y1="1055.54" y2="1055.54"/>
  <g id="H-reference" style="fill:#27AAE1;stroke:none;" transform="matrix(1 0 0 1 339 1556)">
   <path d="M0.976562 0L3.66211 0L12.9883-24.4629L45.752-24.4629L55.127 0L57.7637 0L30.6152-70.459L28.125-70.459ZM29.3457-67.1387L29.4434-67.1387L44.873-26.709L13.8672-26.709Z"/>
  </g>
  <line id="Baseline-L" style="fill:none;stroke:#27AAE1;opacity:1;stroke-width:0.5;" x1="263" x2="3036" y1="1556" y2="1556"/>
  <line id="Capline-L" style="fill:none;stroke:#27AAE1;opacity:1;stroke-width:0.5;" x1="263" x2="3036" y1="1485.54" y2="1485.54"/>
  <line id="left-margin" style="fill:none;stroke:#00AEEF;stroke-width:0.5;opacity:1.0;" x1="1392.64" x2="1392.64" y1="1030.79" y2="1150.12"/>
  <line id="right-margin" style="fill:none;stroke:#00AEEF;stroke-width:0.5;opacity:1.0;" x1="1507.05" x2="1507.05" y1="1030.79" y2="1150.12"/>
 </g>
 <g id="Symbols">
  <g id="Black-L" transform="matrix(1 0 0 1 2856.62 1556)">
   <path d="M67.5293 8.10547C76.123 8.10547 84.2773 6.05469 91.5039 2.34375L112.354 23.1934C115.332 26.2207 119.434 27.6367 123.584 27.6367C132.422 27.6367 139.111 20.8496 139.111 12.0605C139.111 8.00781 137.744 4.05273 134.668 0.927734L114.111-19.6289C118.262-27.1484 120.605-35.791 120.605-44.9707C120.605-74.0723 96.6797-98.0469 67.5293-98.0469C38.4277-98.0469 14.4531-74.1211 14.4531-44.9707C14.4531-15.8203 38.4277 8.10547 67.5293 8.10547ZM67.5293-13.8184C50.3418-13.8184 36.377-27.7344 36.377-44.9707C36.377-62.1582 50.3418-76.123 67.5293-76.123C84.7656-76.123 98.6816-62.1582 98.6816-44.9707C98.6816-27.7344 84.7656-13.8184 67.5293-13.8184Z"/>
  </g>
  <g id="Heavy-L" transform="matrix(1 0 0 1 2560.61 1556)">
   <path d="M66.3086 6.39648C75.4395 6.39648 83.9844 4.05273 91.4551-0.146484L114.648 23.0957C117.236 25.6836 120.752 26.9043 124.316 26.9043C131.934 26.9043 137.695 21.0449 137.695 13.4766C137.695 10.0098 136.523 6.5918 133.838 3.95508L110.889-19.043C115.527-26.8066 118.213-35.8398 118.213-45.459C118.213-73.9258 94.8242-97.3633 66.3086-97.3633C37.8906-97.3633 14.4531-73.9746 14.4531-45.459C14.4531-16.9922 37.8418 6.39648 66.3086 6.39648ZM66.3086-12.4512C48.0957-12.4512 33.3008-27.2461 33.3008-45.459C33.3008-63.6719 48.0957-78.4668 66.3086-78.4668C84.5215-78.4668 99.3652-63.6719 99.3652-45.459C99.3652-27.2461 84.5215-12.4512 66.3086-12.4512Z"/>
  </g>
  <g id="Bold-L" transform="matrix(1 0 0 1 2264.73 1556)">
   <path d="M64.9902 4.49219C74.6094 4.49219 83.6426 1.75781 91.3086-2.97852L117.236 22.9492C119.336 25.0977 122.217 26.123 125.146 26.123C131.396 26.123 136.035 21.2891 136.035 15.1367C136.035 12.2559 135.107 9.47266 132.91 7.32422L107.227-18.4082C112.451-26.3672 115.527-35.8398 115.527-46.0449C115.527-73.7793 92.7246-96.5332 64.9902-96.5332C37.2559-96.5332 14.4531-73.8281 14.4531-46.0449C14.4531-18.2617 37.207 4.49219 64.9902 4.49219ZM64.9902-10.8887C45.6543-10.8887 29.8828-26.709 29.8828-46.0449C29.8828-65.332 45.6543-81.1523 64.9902-81.1523C84.3262-81.1523 100.098-65.332 100.098-46.0449C100.098-26.709 84.3262-10.8887 64.9902-10.8887Z"/>
  </g>
  <g id="Semibold-L" transform="matrix(1 0 0 1 1968.56 1556)">
   <path d="M64.0625 3.17383C74.0723 3.17383 83.3984 0.195312 91.2109-4.98047L119.043 22.9004C120.801 24.6582 123.242 25.5371 125.684 25.5371C131.055 25.5371 134.961 21.4355 134.961 16.2109C134.961 13.8184 134.131 11.4746 132.275 9.61914L104.688-18.0664C110.303-26.0742 113.672-35.8887 113.672-46.3867C113.672-73.6816 91.3086-95.9961 64.0625-95.9961C36.8164-95.9961 14.4531-73.7305 14.4531-46.3867C14.4531-19.1406 36.7676 3.17383 64.0625 3.17383ZM64.0625-9.86328C43.9453-9.86328 27.4902-26.3184 27.4902-46.3867C27.4902-66.5039 43.9453-82.959 64.0625-82.959C84.1309-82.959 100.586-66.5039 100.586-46.3867C100.586-26.3184 84.1309-9.86328 64.0625-9.86328Z"/>
  </g>
  <g id="Medium-L" transform="matrix(1 0 0 1 1672.29 1556)">
   <path d="M63.3301 2.19727C73.6328 2.19727 83.2031-1.02539 91.1133-6.49414L120.41 22.8027C121.924 24.3652 123.975 25.0977 126.123 25.0977C130.762 25.0977 134.082 21.5332 134.082 17.0898C134.082 14.9902 133.398 12.9395 131.836 11.377L102.686-17.7734C108.691-25.8789 112.256-35.8887 112.256-46.7285C112.256-73.584 90.2344-95.6055 63.3301-95.6055C36.4746-95.6055 14.4531-73.6328 14.4531-46.7285C14.4531-19.8242 36.4746 2.19727 63.3301 2.19727ZM63.3301-9.0332C42.6758-9.0332 25.6836-26.0254 25.6836-46.7285C25.6836-67.3828 42.6758-84.375 63.3301-84.375C84.0332-84.375 100.977-67.3828 100.977-46.7285C100.977-26.0254 84.0332-9.0332 63.3301-9.0332Z"/>
  </g>
  <g id="Regular-L" transform="matrix(1 0 0 1 1376.11 1556)">
   <path d="M62.4023 0.878906C73.0957 0.878906 82.959-2.63672 90.918-8.54492L122.168 22.7539C123.389 23.9258 125 24.5605 126.709 24.5605C130.42 24.5605 133.008 21.7285 133.008 18.1641C133.008 16.5039 132.422 14.8926 131.201 13.6719L100.098-17.4805C106.543-25.6348 110.4-35.9375 110.4-47.0703C110.4-73.4863 88.8184-95.0684 62.4023-95.0684C36.084-95.0684 14.4531-73.5352 14.4531-47.0703C14.4531-20.7031 36.0352 0.878906 62.4023 0.878906ZM62.4023-8.00781C41.0156-8.00781 23.3398-25.6836 23.3398-47.0703C23.3398-68.5059 41.0156-86.1816 62.4023-86.1816C83.8379-86.1816 101.514-68.5059 101.514-47.0703C101.514-25.6836 83.8379-8.00781 62.4023-8.00781Z"/>
  </g>
  <g id="Light-L" transform="matrix(1 0 0 1 1079.48 1556)">
   <path d="M61.7676-0.341797C72.6562-0.341797 82.666-4.05273 90.6738-10.2539L123.828 22.9492C124.756 23.877 126.123 24.4629 127.539 24.4629C130.762 24.4629 132.861 22.0215 132.861 19.1406C132.861 17.7246 132.373 16.4551 131.348 15.4297L98.3398-17.6758C105.029-25.8301 109.082-36.3281 109.082-47.6562C109.082-73.6816 87.793-94.9707 61.7676-94.9707C35.791-94.9707 14.4531-73.7305 14.4531-47.6562C14.4531-21.6309 35.7422-0.341797 61.7676-0.341797ZM61.7676-7.12891C39.502-7.12891 21.2402-25.3906 21.2402-47.6562C21.2402-69.9219 39.502-88.2324 61.7676-88.2324C84.0332-88.2324 102.344-69.9219 102.344-47.6562C102.344-25.3906 84.0332-7.12891 61.7676-7.12891Z"/>
  </g>
  <g id="Thin-L" transform="matrix(1 0 0 1 782.863 1556)">
   <path d="M60.9375-1.95312C72.0703-1.95312 82.3242-5.95703 90.3809-12.5488L125.977 23.1934C126.611 23.8281 127.588 24.3652 128.662 24.3652C131.201 24.3652 132.666 22.4609 132.666 20.3613C132.666 19.3848 132.275 18.457 131.494 17.6758L95.9473-17.9688C103.076-26.123 107.373-36.8164 107.373-48.4375C107.373-73.9746 86.4746-94.873 60.9375-94.873C35.4004-94.873 14.4531-73.9746 14.4531-48.4375C14.4531-22.9004 35.4004-1.95312 60.9375-1.95312ZM60.9375-5.9082C37.5488-5.9082 18.4082-25.0488 18.4082-48.4375C18.4082-71.7773 37.5488-90.918 60.9375-90.918C84.2773-90.918 103.418-71.7773 103.418-48.4375C103.418-25.0488 84.2773-5.9082 60.9375-5.9082Z"/>
  </g>
  <g id="Ultralight-L" transform="matrix(1 0 0 1 486.225 1556)">
   <path d="M60.498-2.7832C71.7773-2.7832 82.1289-6.88477 90.1855-13.7207L127.1 23.3398C127.588 23.8281 128.369 24.2676 129.248 24.2676C131.396 24.2676 132.52 22.6562 132.52 20.9961C132.52 20.2148 132.227 19.5312 131.592 18.8477L94.6777-18.1152C102.051-26.2695 106.494-37.0605 106.494-48.8281C106.494-74.1211 85.791-94.8242 60.498-94.8242C35.2051-94.8242 14.4531-74.0723 14.4531-48.8281C14.4531-23.5352 35.2051-2.7832 60.498-2.7832ZM60.498-5.32227C36.5723-5.32227 16.9922-24.9023 16.9922-48.8281C16.9922-72.7051 36.5723-92.334 60.498-92.334C84.375-92.334 104.004-72.7051 104.004-48.8281C104.004-24.9023 84.375-5.32227 60.498-5.32227Z"/>
  </g>
  <g id="Black-M" transform="matrix(1 0 0 1 2872.93 1126)">
   <path d="M53.6621 0.0488281C59.7656 0.0488281 65.5762-1.31836 70.8496-3.66211L84.8145 10.3027C87.5977 13.0859 91.4062 14.4043 95.2637 14.4043C103.467 14.4043 109.717 8.10547 109.717-0.0488281C109.717-3.75977 108.447-7.42188 105.566-10.3516L91.8457-24.0723C94.5312-29.6387 96.0938-35.8398 96.0938-42.3828C96.0938-65.625 76.9043-84.8145 53.6621-84.8145C30.4199-84.8145 11.2305-65.625 11.2305-42.3828C11.2305-19.1406 30.4199 0.0488281 53.6621 0.0488281ZM53.6621-19.9707C41.2109-19.9707 31.25-29.9316 31.25-42.3828C31.25-54.834 41.2109-64.7949 53.6621-64.7949C66.1133-64.7949 76.0742-54.834 76.0742-42.3828C76.0742-29.9316 66.1133-19.9707 53.6621-19.9707Z"/>
  </g>
  <g id="Heavy-M" transform="matrix(1 0 0 1 2576.97 1126)">
   <path d="M52.4902-1.51367C59.082-1.51367 65.332-3.125 70.8984-5.9082L86.9629 10.1562C89.3066 12.5 92.5293 13.6719 95.8496 13.6719C102.881 13.6719 108.203 8.25195 108.203 1.31836C108.203-1.9043 107.08-5.0293 104.639-7.51953L88.8184-23.291C91.9922-29.1504 93.75-35.791 93.75-42.7734C93.75-65.4297 75.1465-84.082 52.4902-84.082C29.8828-84.082 11.2305-65.4297 11.2305-42.7734C11.2305-20.166 29.8828-1.51367 52.4902-1.51367ZM52.4902-18.7012C39.1602-18.7012 28.418-29.4922 28.418-42.7734C28.418-56.1035 39.1602-66.8945 52.4902-66.8945C65.8203-66.8945 76.5625-56.1035 76.5625-42.7734C76.5625-29.4922 65.8203-18.7012 52.4902-18.7012Z"/>
  </g>
  <g id="Bold-M" transform="matrix(1 0 0 1 2281.14 1126)">
   <path d="M51.2207-3.27148C58.3496-3.27148 65.0391-5.17578 70.8984-8.49609L89.3066 9.96094C91.2109 11.8652 93.8477 12.793 96.4844 12.793C102.197 12.793 106.445 8.39844 106.445 2.7832C106.445 0.195312 105.566-2.34375 103.613-4.29688L85.3516-22.5586C89.0625-28.6133 91.2109-35.6934 91.2109-43.2617C91.2109-65.1855 73.1934-83.252 51.2207-83.252C29.2969-83.252 11.2305-65.2344 11.2305-43.2617C11.2305-21.2891 29.248-3.27148 51.2207-3.27148ZM51.2207-17.334C36.9141-17.334 25.293-28.9551 25.293-43.2617C25.293-57.5195 36.9141-69.1895 51.2207-69.1895C65.5273-69.1895 77.1484-57.5195 77.1484-43.2617C77.1484-28.9551 65.5273-17.334 51.2207-17.334Z"/>
  </g>
  <g id="Semibold-M" transform="matrix(1 0 0 1 1985.01 1126)">
   <path d="M50.3418-4.44336C57.8125-4.44336 64.8438-6.5918 70.8008-10.3027L90.918 9.81445C92.5293 11.4258 94.7266 12.207 96.9727 12.207C101.709 12.207 105.273 8.54492 105.273 3.80859C105.273 1.66016 104.541-0.488281 102.881-2.09961L82.959-22.0703C87.0605-28.2715 89.4043-35.6445 89.4043-43.5547C89.4043-65.0391 71.8262-82.666 50.3418-82.666C28.8574-82.666 11.2305-65.0879 11.2305-43.5547C11.2305-22.0703 28.8574-4.44336 50.3418-4.44336ZM50.3418-16.3574C35.3516-16.3574 23.0957-28.6133 23.0957-43.5547C23.0957-58.4961 35.3516-70.752 50.3418-70.752C65.2832-70.752 77.5391-58.4961 77.5391-43.5547C77.5391-28.6133 65.2832-16.3574 50.3418-16.3574Z"/>
  </g>
  <g id="Medium-M" transform="matrix(1 0 0 1 1688.77 1126)">
   <path d="M49.6582-5.37109C57.4219-5.37109 64.6973-7.71484 70.752-11.7188L92.1387 9.7168C93.5547 11.084 95.3613 11.7676 97.3145 11.7676C101.367 11.7676 104.346 8.59375 104.346 4.58984C104.346 2.73438 103.711 0.927734 102.344-0.439453L81.1035-21.7773C85.498-28.0273 88.0859-35.5957 88.0859-43.7988C88.0859-64.9414 70.8008-82.2266 49.6582-82.2266C28.5645-82.2266 11.2305-64.9414 11.2305-43.7988C11.2305-22.6562 28.5156-5.37109 49.6582-5.37109ZM49.6582-15.625C34.1797-15.625 21.4844-28.3203 21.4844-43.7988C21.4844-59.2773 34.1797-71.9727 49.6582-71.9727C65.1367-71.9727 77.832-59.2773 77.832-43.7988C77.832-28.3203 65.1367-15.625 49.6582-15.625Z"/>
  </g>
  <g id="Regular-M" transform="matrix(1 0 0 1 1392.64 1126)">
   <path d="M48.7793-6.54297C56.9336-6.54297 64.4531-9.17969 70.6055-13.5742L93.75 9.57031C94.8242 10.6445 96.2402 11.1816 97.7539 11.1816C100.928 11.1816 103.174 8.74023 103.174 5.61523C103.174 4.15039 102.686 2.73438 101.611 1.70898L78.6133-21.3379C83.4473-27.6855 86.3281-35.5469 86.3281-44.0918C86.3281-64.7461 69.4336-81.6406 48.7793-81.6406C28.1738-81.6406 11.2305-64.7949 11.2305-44.0918C11.2305-23.4375 28.125-6.54297 48.7793-6.54297ZM48.7793-14.6484C32.666-14.6484 19.3359-27.9785 19.3359-44.0918C19.3359-60.2051 32.666-73.5352 48.7793-73.5352C64.8926-73.5352 78.2227-60.2051 78.2227-44.0918C78.2227-27.9785 64.8926-14.6484 48.7793-14.6484Z"/>
  </g>
  <g id="Light-M" transform="matrix(1 0 0 1 1096 1126)">
   <path d="M48.1934-7.66602C56.543-7.66602 64.209-10.4492 70.4102-15.1367L95.2637 9.76562C96.0938 10.5957 97.2656 11.084 98.4863 11.084C101.221 11.084 103.027 8.98438 103.027 6.49414C103.027 5.27344 102.637 4.15039 101.758 3.27148L77.002-21.5332C82.1289-27.8809 85.1562-35.8887 85.1562-44.6289C85.1562-64.9414 68.5547-81.5918 48.1934-81.5918C27.8809-81.5918 11.2305-64.9902 11.2305-44.6289C11.2305-24.2676 27.832-7.66602 48.1934-7.66602ZM48.1934-13.8184C31.2988-13.8184 17.4316-27.7344 17.4316-44.6289C17.4316-61.4746 31.2988-75.3906 48.1934-75.3906C65.0879-75.3906 78.9551-61.4746 78.9551-44.6289C78.9551-27.7344 65.0879-13.8184 48.1934-13.8184Z"/>
  </g>
  <g id="Thin-M" transform="matrix(1 0 0 1 799.367 1126)">
   <path d="M47.4121-9.08203C56.0059-9.08203 63.916-12.1094 70.1172-17.1387L97.2168 10.0098C97.7539 10.5469 98.584 10.9863 99.5117 10.9863C101.611 10.9863 102.881 9.375 102.881 7.56836C102.881 6.73828 102.588 5.95703 101.904 5.27344L74.9023-21.7773C80.3223-28.125 83.6426-36.3281 83.6426-45.2637C83.6426-65.1855 67.334-81.4941 47.4121-81.4941C27.5391-81.4941 11.2305-65.1855 11.2305-45.2637C11.2305-25.3906 27.5391-9.08203 47.4121-9.08203ZM47.4121-12.7441C29.5898-12.7441 14.8926-27.4414 14.8926-45.2637C14.8926-63.1348 29.5898-77.7832 47.4121-77.7832C65.2832-77.7832 79.9316-63.1348 79.9316-45.2637C79.9316-27.4414 65.2832-12.7441 47.4121-12.7441Z"/>
  </g>
  <g id="Ultralight-M" transform="matrix(1 0 0 1 502.704 1126)">
   <path d="M47.0215-9.81445C55.7617-9.81445 63.7695-12.9883 69.9707-18.2129L98.1934 10.1074C98.6328 10.5469 99.2676 10.9375 100 10.9375C101.807 10.9375 102.783 9.57031 102.783 8.1543C102.783 7.4707 102.539 6.88477 102.002 6.34766L73.7793-21.9238C79.3945-28.2715 82.8613-36.5723 82.8613-45.6543C82.8613-65.332 66.6992-81.4453 47.0215-81.4453C27.3438-81.4453 11.2305-65.332 11.2305-45.6543C11.2305-25.9766 27.3438-9.81445 47.0215-9.81445ZM47.0215-12.207C28.6621-12.207 13.623-27.2461 13.623-45.6543C13.623-64.0137 28.6621-79.0527 47.0215-79.0527C65.3809-79.0527 80.4688-64.0137 80.4688-45.6543C80.4688-27.2461 65.3809-12.207 47.0215-12.207Z"/>
  </g>
  <g id="Black-S" transform="matrix(1 0 0 1 2886.09 696)">
   <path d="M41.9434-7.71484C46.7773-7.71484 51.3672-8.78906 55.5176-10.6445L66.6016 0.439453C68.75 2.58789 71.6797 3.61328 74.6582 3.61328C81.0059 3.61328 85.8398-1.26953 85.8398-7.56836C85.8398-10.4492 84.8633-13.2812 82.6172-15.5273L71.7285-26.416C73.877-30.8105 75.0977-35.6934 75.0977-40.8691C75.0977-59.0332 60.1074-74.0234 41.9434-74.0234C23.7793-74.0234 8.78906-59.0332 8.78906-40.8691C8.78906-22.7051 23.7793-7.71484 41.9434-7.71484ZM41.9434-23.1934C32.1289-23.1934 24.2676-31.0547 24.2676-40.8691C24.2676-50.6836 32.1289-58.5449 41.9434-58.5449C51.7578-58.5449 59.6191-50.6836 59.6191-40.8691C59.6191-31.0547 51.7578-23.1934 41.9434-23.1934Z"/>
  </g>
  <g id="Heavy-S" transform="matrix(1 0 0 1 2589.96 696)">
   <path d="M41.1133-8.78906C46.2891-8.78906 51.2207-10.0098 55.5664-12.207L68.0664 0.292969C69.9219 2.14844 72.4609 3.02734 75 3.02734C80.5176 3.02734 84.668-1.17188 84.668-6.64062C84.668-9.13086 83.8379-11.5723 81.8848-13.5254L69.5801-25.8301C72.0703-30.4199 73.4863-35.5957 73.4863-41.1133C73.4863-58.8379 58.8867-73.4375 41.1133-73.4375C23.3887-73.4375 8.78906-58.8867 8.78906-41.1133C8.78906-23.3887 23.3887-8.78906 41.1133-8.78906ZM41.1133-22.3145C30.7129-22.3145 22.3145-30.7129 22.3145-41.1133C22.3145-51.5137 30.7129-59.9121 41.1133-59.9121C51.5137-59.9121 59.9121-51.5137 59.9121-41.1133C59.9121-30.7129 51.5137-22.3145 41.1133-22.3145Z"/>
  </g>
  <g id="Bold-S" transform="matrix(1 0 0 1 2293.91 696)">
   <path d="M40.2344-9.96094C45.752-9.96094 51.0254-11.4258 55.5664-14.0137L69.6777 0.0976562C71.2402 1.66016 73.291 2.39258 75.4395 2.39258C79.9316 2.39258 83.3496-1.12305 83.3496-5.61523C83.3496-7.66602 82.666-9.7168 81.1035-11.2793L67.1387-25.2441C69.9707-29.9805 71.6309-35.498 71.6309-41.4062C71.6309-58.6426 57.4707-72.8027 40.2344-72.8027C22.998-72.8027 8.78906-58.6914 8.78906-41.4062C8.78906-24.1211 22.9492-9.96094 40.2344-9.96094ZM40.2344-21.3379C29.1504-21.3379 20.166-30.3711 20.166-41.4062C20.166-52.4414 29.1504-61.4258 40.2344-61.4258C51.2695-61.4258 60.2539-52.4414 60.2539-41.4062C60.2539-30.3711 51.2695-21.3379 40.2344-21.3379Z"/>
  </g>
  <g id="Semibold-S" transform="matrix(1 0 0 1 1997.64 696)">
   <path d="M39.5996-10.791C45.4102-10.791 50.8789-12.4512 55.5176-15.2832L70.8008 0C72.1191 1.31836 73.877 1.95312 75.6836 1.95312C79.5898 1.95312 82.4707-1.02539 82.4707-4.88281C82.4707-6.68945 81.8848-8.39844 80.5176-9.7168L65.4297-24.9023C68.5547-29.6875 70.3613-35.4492 70.3613-41.6016C70.3613-58.4961 56.4941-72.3633 39.5996-72.3633C22.7051-72.3633 8.78906-58.5449 8.78906-41.6016C8.78906-24.6582 22.6562-10.791 39.5996-10.791ZM39.5996-20.6543C28.0762-20.6543 18.6523-30.0781 18.6523-41.6016C18.6523-53.0762 28.0762-62.5 39.5996-62.5C51.0742-62.5 60.498-53.0762 60.498-41.6016C60.498-30.0781 51.0742-20.6543 39.5996-20.6543Z"/>
  </g>
  <g id="Medium-S" transform="matrix(1 0 0 1 1701.27 696)">
   <path d="M39.1113-11.4258C45.1172-11.4258 50.7324-13.1836 55.4688-16.2598L71.6309-0.0976562C72.8027 1.07422 74.3164 1.61133 75.9277 1.61133C79.2969 1.61133 81.7871-0.976562 81.7871-4.3457C81.7871-5.9082 81.25-7.42188 80.127-8.54492L64.1113-24.6094C67.4316-29.4922 69.4336-35.4004 69.4336-41.748C69.4336-58.3984 55.8105-72.0703 39.1113-72.0703C22.4609-72.0703 8.78906-58.4473 8.78906-41.748C8.78906-25.0488 22.4121-11.4258 39.1113-11.4258ZM39.1113-20.166C27.2949-20.166 17.5293-29.8828 17.5293-41.748C17.5293-53.5645 27.2949-63.2812 39.1113-63.2812C50.9277-63.2812 60.6934-53.5645 60.6934-41.748C60.6934-29.8828 50.9277-20.166 39.1113-20.166Z"/>
  </g>
  <g id="Regular-S" transform="matrix(1 0 0 1 1405 696)">
   <path d="M38.4766-12.207C44.7754-12.207 50.5859-14.209 55.4199-17.5293L72.7539-0.195312C73.6816 0.732422 74.9023 1.17188 76.1719 1.17188C78.9062 1.17188 80.9082-0.927734 80.9082-3.61328C80.9082-4.88281 80.4688-6.15234 79.541-7.03125L62.3535-24.2676C66.0156-29.248 68.1641-35.3516 68.1641-41.9434C68.1641-58.3008 54.834-71.6309 38.4766-71.6309C22.168-71.6309 8.78906-58.3496 8.78906-41.9434C8.78906-25.5859 22.1191-12.207 38.4766-12.207ZM38.4766-19.4824C26.2207-19.4824 16.0645-29.6387 16.0645-41.9434C16.0645-54.1992 26.2207-64.3555 38.4766-64.3555C50.7812-64.3555 60.8887-54.1992 60.8887-41.9434C60.8887-29.6387 50.7812-19.4824 38.4766-19.4824Z"/>
  </g>
  <g id="Light-S" transform="matrix(1 0 0 1 1108.36 696)">
   <path d="M37.9883-13.1836C44.4336-13.1836 50.3906-15.332 55.2246-18.8965L74.0234-0.0488281C74.8047 0.683594 75.8301 1.07422 76.8555 1.07422C79.1504 1.07422 80.7617-0.683594 80.7617-2.88086C80.7617-3.90625 80.4199-4.93164 79.6387-5.66406L60.9375-24.4141C64.8438-29.3945 67.1387-35.6445 67.1387-42.3828C67.1387-58.4473 54.0527-71.582 37.9883-71.582C21.9238-71.582 8.78906-58.4961 8.78906-42.3828C8.78906-26.3184 21.9238-13.1836 37.9883-13.1836ZM37.9883-18.7988C25.0488-18.7988 14.3555-29.4434 14.3555-42.3828C14.3555-55.3223 25.0488-65.9668 37.9883-65.9668C50.9277-65.9668 61.5723-55.3223 61.5723-42.3828C61.5723-29.4434 50.9277-18.7988 37.9883-18.7988Z"/>
  </g>
  <g id="Thin-S" transform="matrix(1 0 0 1 811.72 696)">
   <path d="M37.3047-14.4531C43.9453-14.4531 50.1465-16.7969 54.9805-20.7031L75.7812 0.146484C76.2695 0.683594 77.002 0.976562 77.7344 0.976562C79.4922 0.976562 80.6152-0.341797 80.6152-1.9043C80.6152-2.63672 80.3711-3.32031 79.7852-3.85742L59.082-24.6582C63.2812-29.5898 65.8203-36.0352 65.8203-42.9688C65.8203-58.6426 52.9785-71.4844 37.3047-71.4844C21.6309-71.4844 8.78906-58.6426 8.78906-42.9688C8.78906-27.2949 21.6309-14.4531 37.3047-14.4531ZM37.3047-17.8223C23.4863-17.8223 12.1582-29.1992 12.1582-42.9688C12.1582-56.7871 23.4863-68.1152 37.3047-68.1152C51.0742-68.1152 62.4512-56.7871 62.4512-42.9688C62.4512-29.1992 51.0742-17.8223 37.3047-17.8223Z"/>
  </g>
  <g id="Ultralight-S" transform="matrix(1 0 0 1 515.058 696)">
   <path d="M36.9629-15.1367C43.75-15.1367 50-17.5781 54.834-21.6309L76.6602 0.244141C77.002 0.634766 77.5879 0.927734 78.2227 0.927734C79.6875 0.927734 80.5176-0.195312 80.5176-1.36719C80.5176-1.95312 80.3223-2.49023 79.8828-2.92969L58.1055-24.7559C62.4512-29.7363 65.0879-36.2305 65.0879-43.3105C65.0879-58.7402 52.4414-71.4355 36.9629-71.4355C21.4844-71.4355 8.78906-58.7891 8.78906-43.3105C8.78906-27.832 21.4844-15.1367 36.9629-15.1367ZM36.9629-17.334C22.7051-17.334 10.9863-29.0527 10.9863-43.3105C10.9863-57.5195 22.7051-69.2383 36.9629-69.2383C51.2207-69.2383 62.8906-57.5195 62.8906-43.3105C62.8906-29.0527 51.2207-17.334 36.9629-17.334Z"/>
  </g>
 </g>
</svg>
