<?xml version="1.0" encoding="UTF-8"?>
<!--Generator: Apple Native CoreSVG 149-->
<!DOCTYPE svg
PUBLIC "-//W3C//DTD SVG 1.1//EN"
       "http://www.w3.org/Graphics/SVG/1.1/DTD/svg11.dtd">
<svg version="1.1" xmlns="http://www.w3.org/2000/svg" xmlns:xlink="http://www.w3.org/1999/xlink" width="3300" height="2200">
 <!--glyph: "uni1004D5.medium", point size: 100.000000, font version: "Version 16.0d12e3", template writer version: "8"-->
 <g id="Notes">
  <rect height="2200" id="artboard" style="fill:white;opacity:1" width="3300" x="0" y="0"/>
  <line id="" style="fill:none;stroke:black;opacity:1;stroke-width:0.5;" x1="263" x2="3036" y1="292" y2="292"/>
  <text style="stroke:none;fill:black;font-family:-apple-system,&quot;SF Pro Display&quot;,&quot;SF Pro Text&quot;,Helvetica,sans-serif;font-weight:bold;" transform="matrix(1 0 0 1 263 322)">Weight/Scale Variations</text>
  <text style="stroke:none;fill:black;font-family:-apple-system,&quot;SF Pro Display&quot;,&quot;SF Pro Text&quot;,Helvetica,sans-serif;text-anchor:middle;" transform="matrix(1 0 0 1 559.711 322)">Ultralight</text>
  <text style="stroke:none;fill:black;font-family:-apple-system,&quot;SF Pro Display&quot;,&quot;SF Pro Text&quot;,Helvetica,sans-serif;text-anchor:middle;" transform="matrix(1 0 0 1 856.422 322)">Thin</text>
  <text style="stroke:none;fill:black;font-family:-apple-system,&quot;SF Pro Display&quot;,&quot;SF Pro Text&quot;,Helvetica,sans-serif;text-anchor:middle;" transform="matrix(1 0 0 1 1153.13 322)">Light</text>
  <text style="stroke:none;fill:black;font-family:-apple-system,&quot;SF Pro Display&quot;,&quot;SF Pro Text&quot;,Helvetica,sans-serif;text-anchor:middle;" transform="matrix(1 0 0 1 1449.84 322)">Regular</text>
  <text style="stroke:none;fill:black;font-family:-apple-system,&quot;SF Pro Display&quot;,&quot;SF Pro Text&quot;,Helvetica,sans-serif;text-anchor:middle;" transform="matrix(1 0 0 1 1746.56 322)">Medium</text>
  <text style="stroke:none;fill:black;font-family:-apple-system,&quot;SF Pro Display&quot;,&quot;SF Pro Text&quot;,Helvetica,sans-serif;text-anchor:middle;" transform="matrix(1 0 0 1 2043.27 322)">Semibold</text>
  <text style="stroke:none;fill:black;font-family:-apple-system,&quot;SF Pro Display&quot;,&quot;SF Pro Text&quot;,Helvetica,sans-serif;text-anchor:middle;" transform="matrix(1 0 0 1 2339.98 322)">Bold</text>
  <text style="stroke:none;fill:black;font-family:-apple-system,&quot;SF Pro Display&quot;,&quot;SF Pro Text&quot;,Helvetica,sans-serif;text-anchor:middle;" transform="matrix(1 0 0 1 2636.69 322)">Heavy</text>
  <text style="stroke:none;fill:black;font-family:-apple-system,&quot;SF Pro Display&quot;,&quot;SF Pro Text&quot;,Helvetica,sans-serif;text-anchor:middle;" transform="matrix(1 0 0 1 2933.4 322)">Black</text>
  <line id="" style="fill:none;stroke:black;opacity:1;stroke-width:0.5;" x1="263" x2="3036" y1="1903" y2="1903"/>
  <g id="" transform="matrix(1 0 0 1 263 1933)">
   <path d="M9.24805 0.830078C13.5547 0.830078 17.1387-2.74414 17.1387-7.05078C17.1387-11.3574 13.5449-14.9316 9.23828-14.9316C4.94141-14.9316 1.36719-11.3574 1.36719-7.05078C1.36719-2.74414 4.95117 0.830078 9.24805 0.830078ZM9.24805-0.654297C5.70312-0.654297 2.87109-3.49609 2.87109-7.05078C2.87109-10.6055 5.69336-13.4473 9.23828-13.4473C12.793-13.4473 15.6348-10.6055 15.6445-7.05078C15.6543-3.49609 12.8027-0.654297 9.24805-0.654297ZM9.22852-3.62305C9.69727-3.62305 9.9707-3.93555 9.9707-4.45312L9.9707-6.31836L12.002-6.31836C12.5-6.31836 12.832-6.57227 12.832-7.04102C12.832-7.51953 12.5195-7.7832 12.002-7.7832L9.9707-7.7832L9.9707-9.81445C9.9707-10.332 9.69727-10.6543 9.22852-10.6543C8.75977-10.6543 8.50586-10.3125 8.50586-9.81445L8.50586-7.7832L6.49414-7.7832C5.97656-7.7832 5.64453-7.51953 5.64453-7.04102C5.64453-6.57227 5.99609-6.31836 6.49414-6.31836L8.50586-6.31836L8.50586-4.45312C8.50586-3.95508 8.75977-3.62305 9.22852-3.62305Z"/>
  </g>
  <g id="" transform="matrix(1 0 0 1 281.506 1933)">
   <path d="M11.709 2.91016C17.1582 2.91016 21.6699-1.61133 21.6699-7.05078C21.6699-12.5 17.1484-17.0117 11.6992-17.0117C6.25977-17.0117 1.74805-12.5 1.74805-7.05078C1.74805-1.61133 6.26953 2.91016 11.709 2.91016ZM11.709 1.25C7.09961 1.25 3.41797-2.44141 3.41797-7.05078C3.41797-11.6602 7.08984-15.3516 11.6992-15.3516C16.3086-15.3516 20-11.6602 20.0098-7.05078C20.0195-2.44141 16.3184 1.25 11.709 1.25ZM11.6797-2.66602C12.207-2.66602 12.5098-3.01758 12.5098-3.59375L12.5098-6.23047L15.3223-6.23047C15.8691-6.23047 16.25-6.51367 16.25-7.03125C16.25-7.55859 15.8887-7.86133 15.3223-7.86133L12.5098-7.86133L12.5098-10.6836C12.5098-11.25 12.207-11.6113 11.6797-11.6113C11.1621-11.6113 10.8789-11.2305 10.8789-10.6836L10.8789-7.86133L8.07617-7.86133C7.50977-7.86133 7.13867-7.55859 7.13867-7.03125C7.13867-6.51367 7.5293-6.23047 8.07617-6.23047L10.8789-6.23047L10.8789-3.59375C10.8789-3.03711 11.1621-2.66602 11.6797-2.66602Z"/>
  </g>
  <g id="" transform="matrix(1 0 0 1 304.924 1933)">
   <path d="M14.9707 5.66406C21.9336 5.66406 27.6953-0.0976562 27.6953-7.05078C27.6953-14.0137 21.9238-19.7754 14.9609-19.7754C8.00781-19.7754 2.25586-14.0137 2.25586-7.05078C2.25586-0.0976562 8.01758 5.66406 14.9707 5.66406ZM14.9707 3.84766C8.93555 3.84766 4.08203-1.01562 4.08203-7.05078C4.08203-13.0957 8.92578-17.9492 14.9609-17.9492C21.0059-17.9492 25.8594-13.0957 25.8691-7.05078C25.8789-1.01562 21.0156 3.84766 14.9707 3.84766ZM14.9414-1.38672C15.5176-1.38672 15.8594-1.77734 15.8594-2.38281L15.8594-6.13281L19.7754-6.13281C20.3711-6.13281 20.7812-6.46484 20.7812-7.02148C20.7812-7.59766 20.3906-7.93945 19.7754-7.93945L15.8594-7.93945L15.8594-11.8652C15.8594-12.4805 15.5176-12.8711 14.9414-12.8711C14.375-12.8711 14.0527-12.4609 14.0527-11.8652L14.0527-7.93945L10.1465-7.93945C9.53125-7.93945 9.13086-7.59766 9.13086-7.02148C9.13086-6.46484 9.55078-6.13281 10.1465-6.13281L14.0527-6.13281L14.0527-2.38281C14.0527-1.79688 14.375-1.38672 14.9414-1.38672Z"/>
  </g>
  <text style="stroke:none;fill:black;font-family:-apple-system,&quot;SF Pro Display&quot;,&quot;SF Pro Text&quot;,Helvetica,sans-serif;font-weight:bold;" transform="matrix(1 0 0 1 263 1953)">Design Variations</text>
  <text style="stroke:none;fill:black;font-family:-apple-system,&quot;SF Pro Display&quot;,&quot;SF Pro Text&quot;,Helvetica,sans-serif;" transform="matrix(1 0 0 1 263 1971)">Symbols are supported in up to nine weights and three scales.</text>
  <text style="stroke:none;fill:black;font-family:-apple-system,&quot;SF Pro Display&quot;,&quot;SF Pro Text&quot;,Helvetica,sans-serif;" transform="matrix(1 0 0 1 263 1989)">For optimal layout with text and other symbols, vertically align</text>
  <text style="stroke:none;fill:black;font-family:-apple-system,&quot;SF Pro Display&quot;,&quot;SF Pro Text&quot;,Helvetica,sans-serif;" transform="matrix(1 0 0 1 263 2007)">symbols with the adjacent text.</text>
  <line id="" style="fill:none;stroke:#00AEEF;stroke-width:0.5;opacity:1.0;" x1="776" x2="776" y1="1919" y2="1933"/>
  <g id="" transform="matrix(1 0 0 1 776 1933)">
   <path d="M3.31055 0.126953C3.82812 0.126953 4.08203-0.0683594 4.26758-0.605469L5.52734-4.0625L11.2891-4.0625L12.5488-0.605469C12.7344-0.0683594 12.9883 0.126953 13.4961 0.126953C14.0137 0.126953 14.3457-0.185547 14.3457-0.673828C14.3457-0.839844 14.3164-0.986328 14.2383-1.20117L9.6582-13.3887C9.43359-13.9941 9.0332-14.2871 8.4082-14.2871C7.80273-14.2871 7.39258-13.9941 7.17773-13.3984L2.59766-1.19141C2.51953-0.976562 2.49023-0.830078 2.49023-0.664062C2.49023-0.175781 2.80273 0.126953 3.31055 0.126953ZM6.00586-5.53711L8.37891-12.1094L8.42773-12.1094L10.8008-5.53711Z"/>
  </g>
  <line id="" style="fill:none;stroke:#00AEEF;stroke-width:0.5;opacity:1.0;" x1="792.836" x2="792.836" y1="1919" y2="1933"/>
  <text style="stroke:none;fill:black;font-family:-apple-system,&quot;SF Pro Display&quot;,&quot;SF Pro Text&quot;,Helvetica,sans-serif;font-weight:bold;" transform="matrix(1 0 0 1 776 1953)">Margins</text>
  <text style="stroke:none;fill:black;font-family:-apple-system,&quot;SF Pro Display&quot;,&quot;SF Pro Text&quot;,Helvetica,sans-serif;" transform="matrix(1 0 0 1 776 1971)">Leading and trailing margins on the left and right side of each symbol</text>
  <text style="stroke:none;fill:black;font-family:-apple-system,&quot;SF Pro Display&quot;,&quot;SF Pro Text&quot;,Helvetica,sans-serif;" transform="matrix(1 0 0 1 776 1989)">can be adjusted by modifying the x-location of the margin guidelines.</text>
  <text style="stroke:none;fill:black;font-family:-apple-system,&quot;SF Pro Display&quot;,&quot;SF Pro Text&quot;,Helvetica,sans-serif;" transform="matrix(1 0 0 1 776 2007)">Modifications are automatically applied proportionally to all</text>
  <text style="stroke:none;fill:black;font-family:-apple-system,&quot;SF Pro Display&quot;,&quot;SF Pro Text&quot;,Helvetica,sans-serif;" transform="matrix(1 0 0 1 776 2025)">scales and weights.</text>
  <g id="" transform="matrix(1 0 0 1 1289 1933)">
   <path d="M2.8418 1.86523L4.54102 3.57422C5.40039 4.44336 6.38672 4.38477 7.31445 3.35938L17.4902-7.85156C17.7539-7.76367 18.0273-7.7832 18.3398-7.8418L19.4043-8.03711L20.0684-7.36328L20.0293-6.80664C19.9902-6.30859 20.1172-5.92773 20.6055-5.44922L21.3672-4.70703C21.8457-4.22852 22.4609-4.19922 22.9297-4.66797L25.8398-7.58789C26.3086-8.05664 26.2891-8.65234 25.8105-9.13086L25.0391-9.89258C24.5605-10.3711 24.1895-10.5273 23.7109-10.4883L23.1348-10.4395L22.4902-11.0742L22.7344-12.1973C22.8613-12.7637 22.7051-13.2031 22.1191-13.7891L19.9219-15.9766C16.582-19.2969 12.1484-19.2188 9.25781-16.3281C8.83789-15.918 8.80859-15.3418 9.04297-14.9512C9.27734-14.5898 9.73633-14.3555 10.3809-14.5215C11.8457-14.8633 13.3691-14.9219 14.7949-13.9844L14.209-12.5293C14.0137-12.0508 13.9844-11.6504 14.1113-11.2891L3.04688-0.898438C2.06055 0.0195312 1.98242 0.996094 2.8418 1.86523ZM10.752-15.957C13.1836-17.7344 16.4746-17.4316 18.7012-15.2051L21.1328-12.793C21.3672-12.5586 21.4062-12.373 21.3379-12.0312L21.0156-10.5469L22.5195-9.0625L23.5059-9.12109C23.7598-9.13086 23.8379-9.11133 24.0332-8.91602L24.6094-8.33984L22.168-5.89844L21.5918-6.47461C21.3965-6.66992 21.3672-6.74805 21.377-7.01172L21.4453-7.98828L19.9512-9.47266L18.4277-9.21875C18.1055-9.15039 17.959-9.17969 17.7148-9.41406L15.7129-11.416C15.459-11.6504 15.4297-11.8164 15.5859-12.1875L16.4648-14.2773C14.9023-15.7324 12.8711-16.3574 10.8398-15.7617C10.6836-15.7227 10.625-15.8496 10.752-15.957ZM5.27344 2.30469L4.10156 1.14258C3.63281 0.683594 3.74023 0.341797 4.14062-0.0195312L14.9512-10.1953L16.416-8.71094L6.42578 2.27539C6.07422 2.67578 5.74219 2.77344 5.27344 2.30469Z"/>
  </g>
  <text style="stroke:none;fill:black;font-family:-apple-system,&quot;SF Pro Display&quot;,&quot;SF Pro Text&quot;,Helvetica,sans-serif;font-weight:bold;" transform="matrix(1 0 0 1 1289 1953)">Exporting</text>
  <text style="stroke:none;fill:black;font-family:-apple-system,&quot;SF Pro Display&quot;,&quot;SF Pro Text&quot;,Helvetica,sans-serif;" transform="matrix(1 0 0 1 1289 1971)">Symbols should be outlined when exporting to ensure the</text>
  <text style="stroke:none;fill:black;font-family:-apple-system,&quot;SF Pro Display&quot;,&quot;SF Pro Text&quot;,Helvetica,sans-serif;" transform="matrix(1 0 0 1 1289 1989)">design is preserved when submitting to Xcode.</text>
  <text id="template-version" style="stroke:none;fill:black;font-family:-apple-system,&quot;SF Pro Display&quot;,&quot;SF Pro Text&quot;,Helvetica,sans-serif;text-anchor:end;" transform="matrix(1 0 0 1 3036 1933)">Template v.2.0</text>
  <text style="stroke:none;fill:black;font-family:-apple-system,&quot;SF Pro Display&quot;,&quot;SF Pro Text&quot;,Helvetica,sans-serif;text-anchor:end;" transform="matrix(1 0 0 1 3036 1951)">Requires Xcode 12 or greater</text>
  <text style="stroke:none;fill:black;font-family:-apple-system,&quot;SF Pro Display&quot;,&quot;SF Pro Text&quot;,Helvetica,sans-serif;text-anchor:end;" transform="matrix(1 0 0 1 3036 1969)">Generated from note.text</text>
  <text style="stroke:none;fill:black;font-family:-apple-system,&quot;SF Pro Display&quot;,&quot;SF Pro Text&quot;,Helvetica,sans-serif;text-anchor:end;" transform="matrix(1 0 0 1 3036 1987)">Typeset at 100 points</text>
  <text style="stroke:none;fill:black;font-family:-apple-system,&quot;SF Pro Display&quot;,&quot;SF Pro Text&quot;,Helvetica,sans-serif;" transform="matrix(1 0 0 1 263 726)">Small</text>
  <text style="stroke:none;fill:black;font-family:-apple-system,&quot;SF Pro Display&quot;,&quot;SF Pro Text&quot;,Helvetica,sans-serif;" transform="matrix(1 0 0 1 263 1156)">Medium</text>
  <text style="stroke:none;fill:black;font-family:-apple-system,&quot;SF Pro Display&quot;,&quot;SF Pro Text&quot;,Helvetica,sans-serif;" transform="matrix(1 0 0 1 263 1586)">Large</text>
 </g>
 <g id="Guides">
  <g id="H-reference" style="fill:#27AAE1;stroke:none;" transform="matrix(1 0 0 1 339 696)">
   <path d="M0.976562 0L3.66211 0L12.9883-24.4629L45.752-24.4629L55.127 0L57.7637 0L30.6152-70.459L28.125-70.459ZM29.3457-67.1387L29.4434-67.1387L44.873-26.709L13.8672-26.709Z"/>
  </g>
  <line id="Baseline-S" style="fill:none;stroke:#27AAE1;opacity:1;stroke-width:0.5;" x1="263" x2="3036" y1="696" y2="696"/>
  <line id="Capline-S" style="fill:none;stroke:#27AAE1;opacity:1;stroke-width:0.5;" x1="263" x2="3036" y1="625.541" y2="625.541"/>
  <g id="H-reference" style="fill:#27AAE1;stroke:none;" transform="matrix(1 0 0 1 339 1126)">
   <path d="M0.976562 0L3.66211 0L12.9883-24.4629L45.752-24.4629L55.127 0L57.7637 0L30.6152-70.459L28.125-70.459ZM29.3457-67.1387L29.4434-67.1387L44.873-26.709L13.8672-26.709Z"/>
  </g>
  <line id="Baseline-M" style="fill:none;stroke:#27AAE1;opacity:1;stroke-width:0.5;" x1="263" x2="3036" y1="1126" y2="1126"/>
  <line id="Capline-M" style="fill:none;stroke:#27AAE1;opacity:1;stroke-width:0.5;" x1="263" x2="3036" y1="1055.54" y2="1055.54"/>
  <g id="H-reference" style="fill:#27AAE1;stroke:none;" transform="matrix(1 0 0 1 339 1556)">
   <path d="M0.976562 0L3.66211 0L12.9883-24.4629L45.752-24.4629L55.127 0L57.7637 0L30.6152-70.459L28.125-70.459ZM29.3457-67.1387L29.4434-67.1387L44.873-26.709L13.8672-26.709Z"/>
  </g>
  <line id="Baseline-L" style="fill:none;stroke:#27AAE1;opacity:1;stroke-width:0.5;" x1="263" x2="3036" y1="1556" y2="1556"/>
  <line id="Capline-L" style="fill:none;stroke:#27AAE1;opacity:1;stroke-width:0.5;" x1="263" x2="3036" y1="1485.54" y2="1485.54"/>
  <line id="left-margin" style="fill:none;stroke:#00AEEF;stroke-width:0.5;opacity:1.0;" x1="1388.74" x2="1388.74" y1="1030.79" y2="1150.12"/>
  <line id="right-margin" style="fill:none;stroke:#00AEEF;stroke-width:0.5;opacity:1.0;" x1="1510.95" x2="1510.95" y1="1030.79" y2="1150.12"/>
 </g>
 <g id="Symbols">
  <g id="Black-L" transform="matrix(1 0 0 1 2849.17 1556)">
   <path d="M39.9902 26.5137L128.467 26.5137C143.701 26.5137 152.393 17.8711 152.393 2.68555L152.393-73.0957C152.393-88.2812 143.701-96.875 128.467-96.875L39.9902-96.875C24.7559-96.875 16.0645-88.2812 16.0645-73.0957L16.0645 2.68555C16.0645 17.8711 24.7559 26.5137 39.9902 26.5137ZM42.334 6.29883C38.3301 6.29883 36.3281 4.54102 36.3281 0.195312L36.3281-54.1504C36.3281-58.4473 38.3301-60.2051 42.334-60.2051L126.074-60.2051C130.078-60.2051 132.129-58.4473 132.129-54.1504L132.129 0.195312C132.129 4.54102 130.078 6.29883 126.074 6.29883ZM52.9785-39.8438L115.527-39.8438C118.115-39.8438 120.068-41.8457 120.068-44.4336C120.068-46.9238 118.115-48.8281 115.527-48.8281L52.9785-48.8281C50.293-48.8281 48.3887-46.9238 48.3887-44.4336C48.3887-41.8457 50.293-39.8438 52.9785-39.8438ZM52.9785-22.4609L115.527-22.4609C118.115-22.4609 120.068-24.4141 120.068-26.9043C120.068-29.4434 118.115-31.4941 115.527-31.4941L52.9785-31.4941C50.293-31.4941 48.3887-29.4434 48.3887-26.9043C48.3887-24.4141 50.293-22.4609 52.9785-22.4609ZM52.9785-5.07812L91.4062-5.07812C93.9941-5.07812 95.9473-7.03125 95.9473-9.52148C95.9473-12.1094 93.9941-14.1113 91.4062-14.1113L52.9785-14.1113C50.293-14.1113 48.3887-12.1094 48.3887-9.52148C48.3887-7.03125 50.293-5.07812 52.9785-5.07812Z"/>
  </g>
  <g id="Heavy-L" transform="matrix(1 0 0 1 2553.8 1556)">
   <path d="M38.8184 25.4883L126.953 25.4883C141.602 25.4883 149.707 17.4316 149.707 2.88086L149.707-73.2422C149.707-87.793 141.602-95.8496 126.953-95.8496L38.8184-95.8496C24.2188-95.8496 16.0645-87.793 16.0645-73.2422L16.0645 2.88086C16.0645 17.4316 24.2188 25.4883 38.8184 25.4883ZM40.4297 8.00781C35.9375 8.00781 33.5938 5.85938 33.5938 1.07422L33.5938-54.248C33.5938-59.0332 35.9375-61.1816 40.4297-61.1816L125.293-61.1816C129.834-61.1816 132.227-59.0332 132.227-54.248L132.227 1.07422C132.227 5.85938 129.834 8.00781 125.293 8.00781ZM51.0254-40.1367L114.844-40.1367C117.236-40.1367 119.092-42.041 119.092-44.4824C119.092-46.8262 117.236-48.6328 114.844-48.6328L51.0254-48.6328C48.5352-48.6328 46.7285-46.8262 46.7285-44.4824C46.7285-42.041 48.5352-40.1367 51.0254-40.1367ZM51.0254-22.3633L114.844-22.3633C117.236-22.3633 119.092-24.1699 119.092-26.5137C119.092-28.9062 117.236-30.8105 114.844-30.8105L51.0254-30.8105C48.5352-30.8105 46.7285-28.9062 46.7285-26.5137C46.7285-24.1699 48.5352-22.3633 51.0254-22.3633ZM51.0254-4.54102L90.7227-4.54102C93.1152-4.54102 94.9707-6.34766 94.9707-8.69141C94.9707-11.1328 93.1152-12.9883 90.7227-12.9883L51.0254-12.9883C48.5352-12.9883 46.7285-11.1328 46.7285-8.69141C46.7285-6.34766 48.5352-4.54102 51.0254-4.54102Z"/>
  </g>
  <g id="Bold-L" transform="matrix(1 0 0 1 2258.56 1556)">
   <path d="M37.5 24.3652L125.293 24.3652C139.258 24.3652 146.777 16.8945 146.777 3.07617L146.777-73.3887C146.777-87.207 139.258-94.7266 125.293-94.7266L37.5-94.7266C23.6328-94.7266 16.0645-87.2559 16.0645-73.3887L16.0645 3.07617C16.0645 16.8945 23.6328 24.3652 37.5 24.3652ZM38.3789 9.91211C33.252 9.91211 30.5176 7.37305 30.5176 2.00195L30.5176-54.2969C30.5176-59.668 33.252-62.207 38.3789-62.207L124.414-62.207C129.541-62.207 132.324-59.668 132.324-54.2969L132.324 2.00195C132.324 7.37305 129.541 9.91211 124.414 9.91211ZM48.877-40.5273L114.014-40.5273C116.309-40.5273 118.018-42.2852 118.018-44.5312C118.018-46.7285 116.309-48.3887 114.014-48.3887L48.877-48.3887C46.5332-48.3887 44.8242-46.7285 44.8242-44.5312C44.8242-42.2852 46.5332-40.5273 48.877-40.5273ZM48.877-22.2168L114.014-22.2168C116.309-22.2168 118.018-23.877 118.018-26.0742C118.018-28.3203 116.309-30.0781 114.014-30.0781L48.877-30.0781C46.5332-30.0781 44.8242-28.3203 44.8242-26.0742C44.8242-23.877 46.5332-22.2168 48.877-22.2168ZM48.877-3.90625L89.8926-3.90625C92.1875-3.90625 93.8477-5.61523 93.8477-7.76367C93.8477-10.0098 92.1875-11.7676 89.8926-11.7676L48.877-11.7676C46.5332-11.7676 44.8242-10.0098 44.8242-7.76367C44.8242-5.61523 46.5332-3.90625 48.877-3.90625Z"/>
  </g>
  <g id="Semibold-L" transform="matrix(1 0 0 1 1962.87 1556)">
   <path d="M36.6211 23.584L124.17 23.584C137.598 23.584 144.727 16.5039 144.727 3.17383L144.727-73.5352C144.727-86.8164 137.598-93.9453 124.17-93.9453L36.6211-93.9453C23.1934-93.9453 16.0645-86.8652 16.0645-73.5352L16.0645 3.17383C16.0645 16.5527 23.1934 23.584 36.6211 23.584ZM36.9141 11.2793C31.3965 11.2793 28.418 8.44727 28.418 2.68555L28.418-54.3457C28.418-60.1562 31.3965-62.9395 36.9141-62.9395L123.828-62.9395C129.297-62.9395 132.373-60.1562 132.373-54.3457L132.373 2.68555C132.373 8.44727 129.297 11.2793 123.828 11.2793ZM47.3633-40.7715L113.477-40.7715C115.625-40.7715 117.236-42.4316 117.236-44.5801C117.236-46.6309 115.625-48.2422 113.477-48.2422L47.3633-48.2422C45.166-48.2422 43.5547-46.6309 43.5547-44.5801C43.5547-42.4316 45.166-40.7715 47.3633-40.7715ZM47.3633-22.1191L113.477-22.1191C115.625-22.1191 117.236-23.7305 117.236-25.7812C117.236-27.9297 115.625-29.5898 113.477-29.5898L47.3633-29.5898C45.166-29.5898 43.5547-27.9297 43.5547-25.7812C43.5547-23.7305 45.166-22.1191 47.3633-22.1191ZM47.3633-3.4668L89.3555-3.4668C91.5039-3.4668 93.1152-5.07812 93.1152-7.12891C93.1152-9.27734 91.5039-10.9375 89.3555-10.9375L47.3633-10.9375C45.166-10.9375 43.5547-9.27734 43.5547-7.12891C43.5547-5.07812 45.166-3.4668 47.3633-3.4668Z"/>
  </g>
  <g id="Medium-L" transform="matrix(1 0 0 1 1666.94 1556)">
   <path d="M35.9375 22.998L123.291 22.998C136.377 22.998 143.164 16.2109 143.164 3.27148L143.164-73.6328C143.164-86.5234 136.377-93.3105 123.291-93.3105L35.9375-93.3105C22.9004-93.3105 16.0645-86.5723 16.0645-73.6328L16.0645 3.27148C16.0645 16.2598 22.9004 22.998 35.9375 22.998ZM35.8398 12.2559C29.9805 12.2559 26.8066 9.22852 26.8066 3.17383L26.8066-54.3945C26.8066-60.4492 29.9805-63.5254 35.8398-63.5254L123.34-63.5254C129.15-63.5254 132.422-60.4492 132.422-54.3945L132.422 3.17383C132.422 9.22852 129.15 12.2559 123.34 12.2559ZM46.2402-40.9668L113.086-40.9668C115.137-40.9668 116.699-42.5293 116.699-44.5801C116.699-46.582 115.137-48.0957 113.086-48.0957L46.2402-48.0957C44.0918-48.0957 42.5293-46.582 42.5293-44.5801C42.5293-42.5293 44.0918-40.9668 46.2402-40.9668ZM46.2402-22.0215L113.086-22.0215C115.137-22.0215 116.699-23.584 116.699-25.5859C116.699-27.5879 115.137-29.1992 113.086-29.1992L46.2402-29.1992C44.0918-29.1992 42.5293-27.5879 42.5293-25.5859C42.5293-23.584 44.0918-22.0215 46.2402-22.0215ZM46.2402-3.125L88.9648-3.125C91.0156-3.125 92.5781-4.6875 92.5781-6.64062C92.5781-8.69141 91.0156-10.3027 88.9648-10.3027L46.2402-10.3027C44.0918-10.3027 42.5293-8.69141 42.5293-6.64062C42.5293-4.6875 44.0918-3.125 46.2402-3.125Z"/>
  </g>
  <g id="Regular-L" transform="matrix(1 0 0 1 1371.23 1556)">
   <path d="M35.0586 22.2168L122.119 22.2168C134.766 22.2168 141.162 15.8691 141.162 3.41797L141.162-73.7305C141.162-86.1816 134.766-92.5293 122.119-92.5293L35.0586-92.5293C22.4609-92.5293 16.0645-86.2305 16.0645-73.7305L16.0645 3.41797C16.0645 15.918 22.4609 22.2168 35.0586 22.2168ZM34.375 13.5742C28.125 13.5742 24.707 10.2539 24.707 3.80859L24.707-54.4434C24.707-60.9375 28.125-64.209 34.375-64.209L122.754-64.209C128.955-64.209 132.471-60.9375 132.471-54.4434L132.471 3.80859C132.471 10.2539 128.955 13.5742 122.754 13.5742ZM44.7266-41.1621L112.5-41.1621C114.453-41.1621 115.918-42.6758 115.918-44.6289C115.918-46.4844 114.453-47.9492 112.5-47.9492L44.7266-47.9492C42.7246-47.9492 41.2598-46.4844 41.2598-44.6289C41.2598-42.6758 42.7246-41.1621 44.7266-41.1621ZM44.7266-21.9238L112.5-21.9238C114.453-21.9238 115.918-23.3887 115.918-25.293C115.918-27.1973 114.453-28.7109 112.5-28.7109L44.7266-28.7109C42.7246-28.7109 41.2598-27.1973 41.2598-25.293C41.2598-23.3887 42.7246-21.9238 44.7266-21.9238ZM44.7266-2.68555L88.3789-2.68555C90.332-2.68555 91.7969-4.15039 91.7969-6.00586C91.7969-7.95898 90.332-9.47266 88.3789-9.47266L44.7266-9.47266C42.7246-9.47266 41.2598-7.95898 41.2598-6.00586C41.2598-4.15039 42.7246-2.68555 44.7266-2.68555Z"/>
  </g>
  <g id="Light-L" transform="matrix(1 0 0 1 1074.89 1556)">
   <path d="M34.0332 21.4355L122.461 21.4355C134.326 21.4355 140.43 15.2344 140.43 3.56445L140.43-73.8281C140.43-85.5469 134.326-91.6992 122.461-91.6992L34.0332-91.6992C22.168-91.6992 16.0645-85.6445 16.0645-73.8281L16.0645 3.56445C16.0645 15.3809 22.168 21.4355 34.0332 21.4355ZM33.6914 14.7949C26.5137 14.7949 22.7051 11.0352 22.7051 3.75977L22.7051-52.9785C22.7051-60.3027 26.5137-64.0625 33.6914-64.0625L122.803-64.0625C129.785-64.0625 133.838-60.3027 133.838-52.9785L133.838 3.75977C133.838 11.0352 129.785 14.7949 122.803 14.7949ZM43.2617-41.5039L113.281-41.5039C114.844-41.5039 116.016-42.7246 116.016-44.2383C116.016-45.752 114.844-46.9238 113.281-46.9238L43.2617-46.9238C41.6504-46.9238 40.4785-45.752 40.4785-44.2383C40.4785-42.7246 41.6504-41.5039 43.2617-41.5039ZM43.2617-21.9238L113.281-21.9238C114.844-21.9238 116.016-23.0957 116.016-24.6094C116.016-26.123 114.844-27.3438 113.281-27.3438L43.2617-27.3438C41.6504-27.3438 40.4785-26.123 40.4785-24.6094C40.4785-23.0957 41.6504-21.9238 43.2617-21.9238ZM43.2617-2.29492L89.1113-2.29492C90.7227-2.29492 91.8945-3.4668 91.8945-4.98047C91.8945-6.54297 90.7227-7.76367 89.1113-7.76367L43.2617-7.76367C41.6504-7.76367 40.4785-6.54297 40.4785-4.98047C40.4785-3.4668 41.6504-2.29492 43.2617-2.29492Z"/>
  </g>
  <g id="Thin-L" transform="matrix(1 0 0 1 778.639 1556)">
   <path d="M32.666 20.3613L122.9 20.3613C133.789 20.3613 139.502 14.4531 139.502 3.75977L139.502-73.9746C139.502-84.7168 133.789-90.5762 122.9-90.5762L32.666-90.5762C21.7773-90.5762 16.0645-84.8633 16.0645-73.9746L16.0645 3.75977C16.0645 14.6484 21.7773 20.3613 32.666 20.3613ZM32.7148 16.4062C24.3652 16.4062 19.9707 12.0605 19.9707 3.66211L19.9707-51.0742C19.9707-59.4727 24.3652-63.8184 32.7148-63.8184L122.852-63.8184C130.908-63.8184 135.596-59.4727 135.596-51.0742L135.596 3.66211C135.596 12.0605 130.908 16.4062 122.852 16.4062ZM41.3574-41.8945L114.258-41.8945C115.332-41.8945 116.162-42.7246 116.162-43.75C116.162-44.7754 115.332-45.6055 114.258-45.6055L41.3574-45.6055C40.2344-45.6055 39.4043-44.7754 39.4043-43.75C39.4043-42.7246 40.2344-41.8945 41.3574-41.8945ZM41.3574-21.875L114.258-21.875C115.332-21.875 116.162-22.6562 116.162-23.6816C116.162-24.707 115.332-25.5371 114.258-25.5371L41.3574-25.5371C40.2344-25.5371 39.4043-24.707 39.4043-23.6816C39.4043-22.6562 40.2344-21.875 41.3574-21.875ZM41.3574-1.80664L90.1367-1.80664C91.2109-1.80664 92.041-2.58789 92.041-3.61328C92.041-4.63867 91.2109-5.46875 90.1367-5.46875L41.3574-5.46875C40.2344-5.46875 39.4043-4.63867 39.4043-3.61328C39.4043-2.58789 40.2344-1.80664 41.3574-1.80664Z"/>
  </g>
  <g id="Ultralight-L" transform="matrix(1 0 0 1 482.148 1556)">
   <path d="M31.9824 19.7754L123.145 19.7754C133.496 19.7754 139.062 14.0625 139.062 3.85742L139.062-74.0723C139.062-84.2773 133.496-89.9902 123.145-89.9902L31.9824-89.9902C21.582-89.9902 16.0645-84.4727 16.0645-74.0723L16.0645 3.85742C16.0645 14.2578 21.582 19.7754 31.9824 19.7754ZM32.2266 17.2363C23.2422 17.2363 18.6035 12.5977 18.6035 3.61328L18.6035-50.0488C18.6035-59.0332 23.2422-63.6719 32.2266-63.6719L122.852-63.6719C131.494-63.6719 136.475-59.0332 136.475-50.0488L136.475 3.61328C136.475 12.5977 131.494 17.2363 122.852 17.2363ZM40.332-42.1387L114.746-42.1387C115.576-42.1387 116.211-42.7734 116.211-43.5059C116.211-44.2871 115.576-44.9219 114.746-44.9219L40.332-44.9219C39.502-44.9219 38.8672-44.2871 38.8672-43.5059C38.8672-42.7734 39.502-42.1387 40.332-42.1387ZM40.332-21.8262L114.746-21.8262C115.576-21.8262 116.211-22.4609 116.211-23.2422C116.211-23.9746 115.576-24.6094 114.746-24.6094L40.332-24.6094C39.502-24.6094 38.8672-23.9746 38.8672-23.2422C38.8672-22.4609 39.502-21.8262 40.332-21.8262ZM40.332-1.51367L90.625-1.51367C91.4551-1.51367 92.0898-2.14844 92.0898-2.92969C92.0898-3.66211 91.4551-4.29688 90.625-4.29688L40.332-4.29688C39.502-4.29688 38.8672-3.66211 38.8672-2.92969C38.8672-2.14844 39.502-1.51367 40.332-1.51367Z"/>
  </g>
  <g id="Black-M" transform="matrix(1 0 0 1 2866.53 1126)">
   <path d="M31.9824 13.5742L101.758 13.5742C114.014 13.5742 121.289 6.29883 121.289-5.95703L121.289-64.4043C121.289-76.6602 114.014-83.9355 101.758-83.9355L31.9824-83.9355C19.7266-83.9355 12.4512-76.6602 12.4512-64.4043L12.4512-5.95703C12.4512 6.29883 19.7266 13.5742 31.9824 13.5742ZM34.9609-4.73633C32.0801-4.73633 30.7617-5.81055 30.7617-8.93555L30.7617-49.0234C30.7617-52.0996 32.0801-53.2227 34.9609-53.2227L98.7793-53.2227C101.66-53.2227 102.979-52.0996 102.979-49.0234L102.979-8.93555C102.979-5.81055 101.66-4.73633 98.7793-4.73633ZM42.8711-38.5254L90.918-38.5254C92.9199-38.5254 94.3848-40.0879 94.3848-42.0898C94.3848-44.043 92.9199-45.5078 90.918-45.5078L42.8711-45.5078C40.8203-45.5078 39.3555-44.043 39.3555-42.0898C39.3555-40.0879 40.8203-38.5254 42.8711-38.5254ZM42.8711-25.4883L90.918-25.4883C92.9199-25.4883 94.3848-27.002 94.3848-28.9062C94.3848-30.9082 92.9199-32.4707 90.918-32.4707L42.8711-32.4707C40.8203-32.4707 39.3555-30.9082 39.3555-28.9062C39.3555-27.002 40.8203-25.4883 42.8711-25.4883ZM42.8711-12.4512L72.2168-12.4512C74.2188-12.4512 75.6836-13.916 75.6836-15.8691C75.6836-17.8711 74.2188-19.4336 72.2168-19.4336L42.8711-19.4336C40.8203-19.4336 39.3555-17.8711 39.3555-15.8691C39.3555-13.916 40.8203-12.4512 42.8711-12.4512Z"/>
  </g>
  <g id="Heavy-M" transform="matrix(1 0 0 1 2571.19 1126)">
   <path d="M31.0059 12.6465L100.049 12.6465C111.816 12.6465 118.555 5.9082 118.555-5.81055L118.555-64.5508C118.555-76.2695 111.816-83.0566 100.049-83.0566L31.0059-83.0566C19.2383-83.0566 12.4512-76.3184 12.4512-64.5508L12.4512-5.81055C12.4512 5.9082 19.2383 12.6465 31.0059 12.6465ZM33.1055-3.17383C29.8828-3.17383 28.2715-4.54102 28.2715-8.00781L28.2715-49.4629C28.2715-52.9297 29.8828-54.2969 33.1055-54.2969L97.9492-54.2969C101.123-54.2969 102.734-52.9297 102.734-49.4629L102.734-8.00781C102.734-4.54102 101.123-3.17383 97.9492-3.17383ZM41.1621-38.8184L89.9414-38.8184C91.8457-38.8184 93.3105-40.332 93.3105-42.2363C93.3105-44.0918 91.8457-45.5566 89.9414-45.5566L41.1621-45.5566C39.1602-45.5566 37.6953-44.0918 37.6953-42.2363C37.6953-40.332 39.1602-38.8184 41.1621-38.8184ZM41.1621-25.3418L89.9414-25.3418C91.8457-25.3418 93.3105-26.8066 93.3105-28.6621C93.3105-30.6152 91.8457-32.1289 89.9414-32.1289L41.1621-32.1289C39.1602-32.1289 37.6953-30.6152 37.6953-28.6621C37.6953-26.8066 39.1602-25.3418 41.1621-25.3418ZM41.1621-11.9141L71.2402-11.9141C73.1445-11.9141 74.6094-13.3789 74.6094-15.2344C74.6094-17.1387 73.1445-18.6523 71.2402-18.6523L41.1621-18.6523C39.1602-18.6523 37.6953-17.1387 37.6953-15.2344C37.6953-13.3789 39.1602-11.9141 41.1621-11.9141Z"/>
  </g>
  <g id="Bold-M" transform="matrix(1 0 0 1 2275.99 1126)">
   <path d="M29.8828 11.6699L98.0957 11.6699C109.326 11.6699 115.527 5.46875 115.527-5.66406L115.527-64.6973C115.527-75.8789 109.326-82.0312 98.0957-82.0312L29.8828-82.0312C18.6523-82.0312 12.4512-75.8789 12.4512-64.6973L12.4512-5.66406C12.4512 5.51758 18.6523 11.6699 29.8828 11.6699ZM31.0059-1.41602C27.3926-1.41602 25.5371-3.125 25.5371-6.93359L25.5371-50C25.5371-53.8086 27.3926-55.5176 31.0059-55.5176L96.9727-55.5176C100.537-55.5176 102.441-53.8086 102.441-50L102.441-6.93359C102.441-3.125 100.537-1.41602 96.9727-1.41602ZM39.209-39.1113L88.8672-39.1113C90.7227-39.1113 92.0898-40.5762 92.0898-42.3828C92.0898-44.1895 90.7227-45.6055 88.8672-45.6055L39.209-45.6055C37.3047-45.6055 35.8887-44.1895 35.8887-42.3828C35.8887-40.5762 37.3047-39.1113 39.209-39.1113ZM39.209-25.1953L88.8672-25.1953C90.7227-25.1953 92.0898-26.6113 92.0898-28.418C92.0898-30.2734 90.7227-31.6895 88.8672-31.6895L39.209-31.6895C37.3047-31.6895 35.8887-30.2734 35.8887-28.418C35.8887-26.6113 37.3047-25.1953 39.209-25.1953ZM39.209-11.3281L70.166-11.3281C72.0215-11.3281 73.3887-12.7441 73.3887-14.502C73.3887-16.3574 72.0215-17.8223 70.166-17.8223L39.209-17.8223C37.3047-17.8223 35.8887-16.3574 35.8887-14.502C35.8887-12.7441 37.3047-11.3281 39.209-11.3281Z"/>
  </g>
  <g id="Semibold-M" transform="matrix(1 0 0 1 1980.33 1126)">
   <path d="M29.1016 10.9863L96.7773 10.9863C107.666 10.9863 113.428 5.17578 113.428-5.56641L113.428-64.8438C113.428-75.5859 107.666-81.3477 96.7773-81.3477L29.1016-81.3477C18.2617-81.3477 12.4512-75.5859 12.4512-64.8438L12.4512-5.56641C12.4512 5.22461 18.2617 10.9863 29.1016 10.9863ZM29.5898-0.195312C25.6836-0.195312 23.6328-2.14844 23.6328-6.20117L23.6328-50.3418C23.6328-54.4434 25.6836-56.3477 29.5898-56.3477L96.2891-56.3477C100.146-56.3477 102.246-54.4434 102.246-50.3418L102.246-6.20117C102.246-2.14844 100.146-0.195312 96.2891-0.195312ZM37.8418-39.3066L88.0859-39.3066C89.8926-39.3066 91.2598-40.7227 91.2598-42.5293C91.2598-44.2871 89.8926-45.6055 88.0859-45.6055L37.8418-45.6055C35.9863-45.6055 34.6191-44.2871 34.6191-42.5293C34.6191-40.7227 35.9863-39.3066 37.8418-39.3066ZM37.8418-25.0977L88.0859-25.0977C89.8926-25.0977 91.2598-26.4648 91.2598-28.2227C91.2598-30.0293 89.8926-31.4453 88.0859-31.4453L37.8418-31.4453C35.9863-31.4453 34.6191-30.0293 34.6191-28.2227C34.6191-26.4648 35.9863-25.0977 37.8418-25.0977ZM37.8418-10.9375L69.3848-10.9375C71.1914-10.9375 72.5586-12.3047 72.5586-14.0625C72.5586-15.8203 71.1914-17.2363 69.3848-17.2363L37.8418-17.2363C35.9863-17.2363 34.6191-15.8203 34.6191-14.0625C34.6191-12.3047 35.9863-10.9375 37.8418-10.9375Z"/>
  </g>
  <g id="Medium-M" transform="matrix(1 0 0 1 1684.4 1126)">
   <path d="M28.5156 10.4492L95.752 10.4492C106.348 10.4492 111.865 4.98047 111.865-5.46875L111.865-64.8926C111.865-75.3418 106.348-80.8105 95.752-80.8105L28.5156-80.8105C17.9688-80.8105 12.4512-75.3906 12.4512-64.8926L12.4512-5.46875C12.4512 4.98047 17.9688 10.4492 28.5156 10.4492ZM28.4668 0.732422C24.4141 0.732422 22.168-1.36719 22.168-5.66406L22.168-50.5859C22.168-54.8828 24.4141-56.9824 28.4668-56.9824L95.8008-56.9824C99.8535-56.9824 102.1-54.8828 102.1-50.5859L102.1-5.66406C102.1-1.36719 99.8535 0.732422 95.8008 0.732422ZM36.8164-39.4531L87.5488-39.4531C89.3066-39.4531 90.625-40.8203 90.625-42.627C90.625-44.3359 89.3066-45.6543 87.5488-45.6543L36.8164-45.6543C35.0098-45.6543 33.6914-44.3359 33.6914-42.627C33.6914-40.8203 35.0098-39.4531 36.8164-39.4531ZM36.8164-25.0488L87.5488-25.0488C89.3066-25.0488 90.625-26.3672 90.625-28.0762C90.625-29.834 89.3066-31.25 87.5488-31.25L36.8164-31.25C35.0098-31.25 33.6914-29.834 33.6914-28.0762C33.6914-26.3672 35.0098-25.0488 36.8164-25.0488ZM36.8164-10.6445L68.8477-10.6445C70.6055-10.6445 71.9238-11.9629 71.9238-13.6719C71.9238-15.4297 70.6055-16.7969 68.8477-16.7969L36.8164-16.7969C35.0098-16.7969 33.6914-15.4297 33.6914-13.6719C33.6914-11.9629 35.0098-10.6445 36.8164-10.6445Z"/>
  </g>
  <g id="Regular-M" transform="matrix(1 0 0 1 1388.74 1126)">
   <path d="M27.7832 9.76562L94.4824 9.76562C104.688 9.76562 109.766 4.6875 109.766-5.37109L109.766-64.9902C109.766-75.0488 104.688-80.127 94.4824-80.127L27.7832-80.127C17.5781-80.127 12.4512-75.0977 12.4512-64.9902L12.4512-5.37109C12.4512 4.73633 17.5781 9.76562 27.7832 9.76562ZM27.0508 1.9043C22.7051 1.9043 20.3125-0.390625 20.3125-4.93164L20.3125-50.9766C20.3125-55.4688 22.7051-57.8125 27.0508-57.8125L95.1172-57.8125C99.4629-57.8125 101.904-55.4688 101.904-50.9766L101.904-4.93164C101.904-0.390625 99.4629 1.9043 95.1172 1.9043ZM35.498-39.6484L86.7676-39.6484C88.5254-39.6484 89.7949-41.0156 89.7949-42.7246C89.7949-44.3848 88.5254-45.6543 86.7676-45.6543L35.498-45.6543C33.7402-45.6543 32.4219-44.3848 32.4219-42.7246C32.4219-41.0156 33.7402-39.6484 35.498-39.6484ZM35.498-24.9512L86.7676-24.9512C88.5254-24.9512 89.7949-26.2207 89.7949-27.8809C89.7949-29.6387 88.5254-30.957 86.7676-30.957L35.498-30.957C33.7402-30.957 32.4219-29.6387 32.4219-27.8809C32.4219-26.2207 33.7402-24.9512 35.498-24.9512ZM35.498-10.2539L68.0664-10.2539C69.8242-10.2539 71.0938-11.5234 71.0938-13.1836C71.0938-14.8926 69.8242-16.2598 68.0664-16.2598L35.498-16.2598C33.7402-16.2598 32.4219-14.8926 32.4219-13.1836C32.4219-11.5234 33.7402-10.2539 35.498-10.2539Z"/>
  </g>
  <g id="Light-M" transform="matrix(1 0 0 1 1092.32 1126)">
   <path d="M26.8555 9.0332L94.7754 9.0332C104.297 9.0332 109.18 4.15039 109.18-5.22461L109.18-65.0879C109.18-74.5117 104.297-79.3945 94.7754-79.3945L26.8555-79.3945C17.334-79.3945 12.4512-74.5605 12.4512-65.0879L12.4512-5.22461C12.4512 4.19922 17.334 9.0332 26.8555 9.0332ZM26.416 2.97852C21.2891 2.97852 18.5059 0.292969 18.5059-4.98047L18.5059-49.6582C18.5059-54.9316 21.2891-57.666 26.416-57.666L95.166-57.666C100.195-57.666 103.125-54.9316 103.125-49.6582L103.125-4.98047C103.125 0.292969 100.195 2.97852 95.166 2.97852ZM34.1797-39.9414L87.4512-39.9414C88.8184-39.9414 89.8926-41.0156 89.8926-42.3828C89.8926-43.7012 88.8184-44.7754 87.4512-44.7754L34.1797-44.7754C32.7637-44.7754 31.7383-43.7012 31.7383-42.3828C31.7383-41.0156 32.7637-39.9414 34.1797-39.9414ZM34.1797-24.9023L87.4512-24.9023C88.8184-24.9023 89.8926-25.9766 89.8926-27.2949C89.8926-28.6621 88.8184-29.7363 87.4512-29.7363L34.1797-29.7363C32.7637-29.7363 31.7383-28.6621 31.7383-27.2949C31.7383-25.9766 32.7637-24.9023 34.1797-24.9023ZM34.1797-9.86328L68.75-9.86328C70.166-9.86328 71.1914-10.9375 71.1914-12.2559C71.1914-13.623 70.166-14.6973 68.75-14.6973L34.1797-14.6973C32.7637-14.6973 31.7383-13.623 31.7383-12.2559C31.7383-10.9375 32.7637-9.86328 34.1797-9.86328Z"/>
  </g>
  <g id="Thin-M" transform="matrix(1 0 0 1 796.046 1126)">
   <path d="M25.6348 8.05664L95.166 8.05664C103.809 8.05664 108.301 3.4668 108.301-5.0293L108.301-65.2344C108.301-73.7305 103.809-78.3691 95.166-78.3691L25.6348-78.3691C16.9922-78.3691 12.4512-73.877 12.4512-65.2344L12.4512-5.0293C12.4512 3.56445 16.9922 8.05664 25.6348 8.05664ZM25.5859 4.44336C19.3359 4.44336 16.0645 1.2207 16.0645-5.07812L16.0645-47.9004C16.0645-54.1992 19.3359-57.4219 25.5859-57.4219L95.2148-57.4219C101.221-57.4219 104.688-54.1992 104.688-47.9004L104.688-5.07812C104.688 1.2207 101.221 4.44336 95.2148 4.44336ZM32.4707-40.332L88.3301-40.332C89.2578-40.332 89.9902-41.0645 89.9902-41.9434C89.9902-42.8223 89.2578-43.5547 88.3301-43.5547L32.4707-43.5547C31.4941-43.5547 30.7617-42.8223 30.7617-41.9434C30.7617-41.0645 31.4941-40.332 32.4707-40.332ZM32.4707-24.8535L88.3301-24.8535C89.2578-24.8535 89.9902-25.5859 89.9902-26.4648C89.9902-27.3926 89.2578-28.125 88.3301-28.125L32.4707-28.125C31.4941-28.125 30.7617-27.3926 30.7617-26.4648C30.7617-25.5859 31.4941-24.8535 32.4707-24.8535ZM32.4707-9.42383L69.6289-9.42383C70.5566-9.42383 71.2891-10.1562 71.2891-11.0352C71.2891-11.9141 70.5566-12.6465 69.6289-12.6465L32.4707-12.6465C31.4941-12.6465 30.7617-11.9141 30.7617-11.0352C30.7617-10.1562 31.4941-9.42383 32.4707-9.42383Z"/>
  </g>
  <g id="Ultralight-M" transform="matrix(1 0 0 1 499.53 1126)">
   <path d="M25 7.56836L95.3613 7.56836C103.564 7.56836 107.91 3.125 107.91-4.98047L107.91-65.2832C107.91-73.3887 103.564-77.832 95.3613-77.832L25-77.832C16.7969-77.832 12.4512-73.4863 12.4512-65.2832L12.4512-4.98047C12.4512 3.22266 16.7969 7.56836 25 7.56836ZM25.1465 5.17578C18.3594 5.17578 14.8438 1.66016 14.8438-5.07812L14.8438-47.0215C14.8438-53.8086 18.3594-57.3242 25.1465-57.3242L95.2148-57.3242C101.758-57.3242 105.518-53.8086 105.518-47.0215L105.518-5.07812C105.518 1.66016 101.758 5.17578 95.2148 5.17578ZM31.5918-40.5273L88.7695-40.5273C89.502-40.5273 90.0391-41.0645 90.0391-41.748C90.0391-42.3828 89.502-42.9199 88.7695-42.9199L31.5918-42.9199C30.8594-42.9199 30.3223-42.3828 30.3223-41.748C30.3223-41.0645 30.8594-40.5273 31.5918-40.5273ZM31.5918-24.8535L88.7695-24.8535C89.502-24.8535 90.0391-25.3906 90.0391-26.0742C90.0391-26.709 89.502-27.2949 88.7695-27.2949L31.5918-27.2949C30.8594-27.2949 30.3223-26.709 30.3223-26.0742C30.3223-25.3906 30.8594-24.8535 31.5918-24.8535ZM31.5918-9.17969L70.0684-9.17969C70.8008-9.17969 71.3379-9.7168 71.3379-10.4004C71.3379-11.084 70.8008-11.6211 70.0684-11.6211L31.5918-11.6211C30.8594-11.6211 30.3223-11.084 30.3223-10.4004C30.3223-9.7168 30.8594-9.17969 31.5918-9.17969Z"/>
  </g>
  <g id="Black-S" transform="matrix(1 0 0 1 2881.11 696)">
   <path d="M25 2.92969L79.5898 2.92969C89.1602 2.92969 94.8242-2.73438 94.8242-12.3047L94.8242-58.1055C94.8242-67.6758 89.1602-73.3398 79.5898-73.3398L25-73.3398C15.4297-73.3398 9.76562-67.6758 9.76562-58.1055L9.76562-12.3047C9.76562-2.73438 15.4297 2.92969 25 2.92969ZM27.2461-11.2305C25-11.2305 23.9258-12.1094 23.9258-14.5508L23.9258-46.0938C23.9258-48.5352 25-49.4141 27.2461-49.4141L77.3438-49.4141C79.5898-49.4141 80.6641-48.5352 80.6641-46.0938L80.6641-14.5508C80.6641-12.1094 79.5898-11.2305 77.3438-11.2305ZM33.4961-37.8418L71.1426-37.8418C72.7051-37.8418 73.877-39.0625 73.877-40.625C73.877-42.1387 72.7051-43.3105 71.1426-43.3105L33.4961-43.3105C31.8848-43.3105 30.7129-42.1387 30.7129-40.625C30.7129-39.0625 31.8848-37.8418 33.4961-37.8418ZM33.4961-27.5879L71.1426-27.5879C72.7051-27.5879 73.877-28.7598 73.877-30.2734C73.877-31.8359 72.7051-33.0566 71.1426-33.0566L33.4961-33.0566C31.8848-33.0566 30.7129-31.8359 30.7129-30.2734C30.7129-28.7598 31.8848-27.5879 33.4961-27.5879ZM33.4961-17.334L56.4941-17.334C58.0566-17.334 59.2285-18.5059 59.2285-20.0195C59.2285-21.582 58.0566-22.8027 56.4941-22.8027L33.4961-22.8027C31.8848-22.8027 30.7129-21.582 30.7129-20.0195C30.7129-18.5059 31.8848-17.334 33.4961-17.334Z"/>
  </g>
  <g id="Heavy-S" transform="matrix(1 0 0 1 2585.39 696)">
   <path d="M24.3652 2.34375L78.2227 2.34375C87.5 2.34375 92.8223-2.97852 92.8223-12.207L92.8223-58.2031C92.8223-67.4316 87.5-72.7539 78.2227-72.7539L24.3652-72.7539C15.0879-72.7539 9.76562-67.4316 9.76562-58.2031L9.76562-12.207C9.76562-2.97852 15.0879 2.34375 24.3652 2.34375ZM25.8789-10.1562C23.4863-10.1562 22.2656-11.2305 22.2656-13.8184L22.2656-46.582C22.2656-49.2188 23.4863-50.2441 25.8789-50.2441L76.6602-50.2441C79.1016-50.2441 80.3223-49.2188 80.3223-46.582L80.3223-13.8184C80.3223-11.2305 79.1016-10.1562 76.6602-10.1562ZM32.3242-38.0371L70.3125-38.0371C71.875-38.0371 73.0469-39.209 73.0469-40.7715C73.0469-42.2852 71.875-43.457 70.3125-43.457L32.3242-43.457C30.7129-43.457 29.541-42.2852 29.541-40.7715C29.541-39.209 30.7129-38.0371 32.3242-38.0371ZM32.3242-27.4902L70.3125-27.4902C71.875-27.4902 73.0469-28.6621 73.0469-30.1758C73.0469-31.6895 71.875-32.9102 70.3125-32.9102L32.3242-32.9102C30.7129-32.9102 29.541-31.6895 29.541-30.1758C29.541-28.6621 30.7129-27.4902 32.3242-27.4902ZM32.3242-16.9922L55.6641-16.9922C57.2266-16.9922 58.3984-18.1152 58.3984-19.6289C58.3984-21.1914 57.2266-22.4121 55.6641-22.4121L32.3242-22.4121C30.7129-22.4121 29.541-21.1914 29.541-19.6289C29.541-18.1152 30.7129-16.9922 32.3242-16.9922Z"/>
  </g>
  <g id="Bold-S" transform="matrix(1 0 0 1 2289.81 696)">
   <path d="M23.6328 1.66016L76.709 1.66016C85.6934 1.66016 90.5762-3.22266 90.5762-12.1094L90.5762-58.3008C90.5762-67.1875 85.6934-72.0703 76.709-72.0703L23.6328-72.0703C14.6973-72.0703 9.76562-67.1875 9.76562-58.3008L9.76562-12.1094C9.76562-3.22266 14.6973 1.66016 23.6328 1.66016ZM24.3652-8.93555C21.7773-8.93555 20.3613-10.2051 20.3613-13.0371L20.3613-47.1191C20.3613-49.9512 21.7773-51.2207 24.3652-51.2207L75.9277-51.2207C78.5645-51.2207 79.9805-49.9512 79.9805-47.1191L79.9805-13.0371C79.9805-10.2051 78.5645-8.93555 75.9277-8.93555ZM30.957-38.1836L69.4336-38.1836C70.9473-38.1836 72.1191-39.4043 72.1191-40.918C72.1191-42.4316 70.9473-43.6035 69.4336-43.6035L30.957-43.6035C29.3945-43.6035 28.2227-42.4316 28.2227-40.918C28.2227-39.4043 29.3945-38.1836 30.957-38.1836ZM30.957-27.3926L69.4336-27.3926C70.9473-27.3926 72.1191-28.5645 72.1191-30.0293C72.1191-31.543 70.9473-32.7637 69.4336-32.7637L30.957-32.7637C29.3945-32.7637 28.2227-31.543 28.2227-30.0293C28.2227-28.5645 29.3945-27.3926 30.957-27.3926ZM30.957-16.5527L54.7852-16.5527C56.2988-16.5527 57.4707-17.7246 57.4707-19.2383C57.4707-20.752 56.2988-21.9727 54.7852-21.9727L30.957-21.9727C29.3945-21.9727 28.2227-20.752 28.2227-19.2383C28.2227-17.7246 29.3945-16.5527 30.957-16.5527Z"/>
  </g>
  <g id="Semibold-S" transform="matrix(1 0 0 1 1993.88 696)">
   <path d="M23.0957 1.17188L75.6836 1.17188C84.4238 1.17188 89.0137-3.36914 89.0137-12.0117L89.0137-58.3984C89.0137-67.041 84.4238-71.582 75.6836-71.582L23.0957-71.582C14.4043-71.582 9.76562-67.041 9.76562-58.3984L9.76562-12.0117C9.76562-3.36914 14.4043 1.17188 23.0957 1.17188ZM23.3398-8.10547C20.6055-8.10547 19.0918-9.52148 19.0918-12.4512L19.0918-47.5098C19.0918-50.4883 20.6055-51.8555 23.3398-51.8555L75.4395-51.8555C78.2227-51.8555 79.7363-50.4883 79.7363-47.5098L79.7363-12.4512C79.7363-9.52148 78.2227-8.10547 75.4395-8.10547ZM30.0781-38.3301L68.7988-38.3301C70.3125-38.3301 71.4355-39.5508 71.4355-41.0645C71.4355-42.5293 70.3125-43.7012 68.7988-43.7012L30.0781-43.7012C28.4668-43.7012 27.3438-42.5293 27.3438-41.0645C27.3438-39.5508 28.4668-38.3301 30.0781-38.3301ZM30.0781-27.2949L68.7988-27.2949C70.3125-27.2949 71.4355-28.4668 71.4355-29.9316C71.4355-31.4453 70.3125-32.666 68.7988-32.666L30.0781-32.666C28.4668-32.666 27.3438-31.4453 27.3438-29.9316C27.3438-28.4668 28.4668-27.2949 30.0781-27.2949ZM30.0781-16.3086L54.1504-16.3086C55.6641-16.3086 56.7871-17.4316 56.7871-18.9453C56.7871-20.459 55.6641-21.6309 54.1504-21.6309L30.0781-21.6309C28.4668-21.6309 27.3438-20.459 27.3438-18.9453C27.3438-17.4316 28.4668-16.3086 30.0781-16.3086Z"/>
  </g>
  <g id="Medium-S" transform="matrix(1 0 0 1 1697.75 696)">
   <path d="M22.7051 0.830078L74.9023 0.830078C83.4473 0.830078 87.8418-3.51562 87.8418-11.9629L87.8418-58.4473C87.8418-66.8945 83.4473-71.2402 74.9023-71.2402L22.7051-71.2402C14.209-71.2402 9.76562-66.8945 9.76562-58.4473L9.76562-11.9629C9.76562-3.51562 14.209 0.830078 22.7051 0.830078ZM22.5586-7.4707C19.6777-7.4707 18.0664-8.98438 18.0664-12.0117L18.0664-47.8027C18.0664-50.8789 19.6777-52.3438 22.5586-52.3438L75.0488-52.3438C77.9297-52.3438 79.541-50.8789 79.541-47.8027L79.541-12.0117C79.541-8.98438 77.9297-7.4707 75.0488-7.4707ZM29.3457-38.4277L68.3105-38.4277C69.8242-38.4277 70.9473-39.6484 70.9473-41.1621C70.9473-42.627 69.8242-43.75 68.3105-43.75L29.3457-43.75C27.7832-43.75 26.6602-42.627 26.6602-41.1621C26.6602-39.6484 27.7832-38.4277 29.3457-38.4277ZM29.3457-27.2461L68.3105-27.2461C69.8242-27.2461 70.9473-28.418 70.9473-29.8828C70.9473-31.3965 69.8242-32.5684 68.3105-32.5684L29.3457-32.5684C27.7832-32.5684 26.6602-31.3965 26.6602-29.8828C26.6602-28.418 27.7832-27.2461 29.3457-27.2461ZM29.3457-16.0645L53.6621-16.0645C55.1758-16.0645 56.2988-17.2363 56.2988-18.7012C56.2988-20.2148 55.1758-21.3867 53.6621-21.3867L29.3457-21.3867C27.7832-21.3867 26.6602-20.2148 26.6602-18.7012C26.6602-17.2363 27.7832-16.0645 29.3457-16.0645Z"/>
  </g>
  <g id="Regular-S" transform="matrix(1 0 0 1 1401.8 696)">
   <path d="M22.2168 0.390625L73.877 0.390625C82.2266 0.390625 86.3281-3.71094 86.3281-11.9141L86.3281-58.4961C86.3281-66.6992 82.2266-70.8008 73.877-70.8008L22.2168-70.8008C13.916-70.8008 9.76562-66.6992 9.76562-58.4961L9.76562-11.9141C9.76562-3.71094 13.916 0.390625 22.2168 0.390625ZM21.5332-6.68945C18.5059-6.68945 16.7969-8.30078 16.7969-11.4746L16.7969-48.1934C16.7969-51.3672 18.5059-52.9785 21.5332-52.9785L74.5117-52.9785C77.5391-52.9785 79.2969-51.3672 79.2969-48.1934L79.2969-11.4746C79.2969-8.30078 77.5391-6.68945 74.5117-6.68945ZM28.4668-38.5742L67.6758-38.5742C69.1895-38.5742 70.3125-39.7461 70.3125-41.2598C70.3125-42.7246 69.1895-43.8477 67.6758-43.8477L28.4668-43.8477C26.9043-43.8477 25.7812-42.7246 25.7812-41.2598C25.7812-39.7461 26.9043-38.5742 28.4668-38.5742ZM28.4668-27.1973L67.6758-27.1973C69.1895-27.1973 70.3125-28.3203 70.3125-29.7852C70.3125-31.2988 69.1895-32.4707 67.6758-32.4707L28.4668-32.4707C26.9043-32.4707 25.7812-31.2988 25.7812-29.7852C25.7812-28.3203 26.9043-27.1973 28.4668-27.1973ZM28.4668-15.8203L53.0273-15.8203C54.541-15.8203 55.6641-16.9434 55.6641-18.4082C55.6641-19.9219 54.541-21.0938 53.0273-21.0938L28.4668-21.0938C26.9043-21.0938 25.7812-19.9219 25.7812-18.4082C25.7812-16.9434 26.9043-15.8203 28.4668-15.8203Z"/>
  </g>
  <g id="Light-S" transform="matrix(1 0 0 1 1105.36 696)">
   <path d="M21.3867-0.292969L74.1211-0.292969C81.8848-0.292969 85.791-4.15039 85.791-11.7676L85.791-58.5938C85.791-66.2109 81.8848-70.1172 74.1211-70.1172L21.3867-70.1172C13.6719-70.1172 9.76562-66.2598 9.76562-58.5938L9.76562-11.7676C9.76562-4.15039 13.6719-0.292969 21.3867-0.292969ZM20.9473-5.71289C17.2363-5.71289 15.1855-7.66602 15.1855-11.5234L15.1855-47.0215C15.1855-50.8789 17.2363-52.832 20.9473-52.832L74.5605-52.832C78.2227-52.832 80.3223-50.8789 80.3223-47.0215L80.3223-11.5234C80.3223-7.66602 78.2227-5.71289 74.5605-5.71289ZM27.2949-38.8184L68.2617-38.8184C69.4824-38.8184 70.4102-39.7461 70.4102-40.9668C70.4102-42.1387 69.4824-43.0664 68.2617-43.0664L27.2949-43.0664C26.0742-43.0664 25.1465-42.1387 25.1465-40.9668C25.1465-39.7461 26.0742-38.8184 27.2949-38.8184ZM27.2949-27.1484L68.2617-27.1484C69.4824-27.1484 70.4102-28.0762 70.4102-29.248C70.4102-30.4688 69.4824-31.3965 68.2617-31.3965L27.2949-31.3965C26.0742-31.3965 25.1465-30.4688 25.1465-29.248C25.1465-28.0762 26.0742-27.1484 27.2949-27.1484ZM27.2949-15.5273L53.6133-15.5273C54.834-15.5273 55.7617-16.4062 55.7617-17.5781C55.7617-18.7988 54.834-19.7266 53.6133-19.7266L27.2949-19.7266C26.0742-19.7266 25.1465-18.7988 25.1465-17.5781C25.1465-16.4062 26.0742-15.5273 27.2949-15.5273Z"/>
  </g>
  <g id="Thin-S" transform="matrix(1 0 0 1 809.01 696)">
   <path d="M20.3125-1.12305L74.4629-1.12305C81.4453-1.12305 85.0586-4.78516 85.0586-11.6211L85.0586-58.6914C85.0586-65.5762 81.4453-69.2383 74.4629-69.2383L20.3125-69.2383C13.3789-69.2383 9.76562-65.625 9.76562-58.6914L9.76562-11.6211C9.76562-4.6875 13.3789-1.12305 20.3125-1.12305ZM20.2148-4.44336C15.5273-4.44336 13.0859-6.88477 13.0859-11.5723L13.0859-45.5078C13.0859-50.2441 15.5273-52.6855 20.2148-52.6855L74.5605-52.6855C79.1016-52.6855 81.7383-50.2441 81.7383-45.5078L81.7383-11.5723C81.7383-6.88477 79.1016-4.44336 74.5605-4.44336ZM25.7812-39.1602L69.043-39.1602C69.873-39.1602 70.5078-39.7949 70.5078-40.5762C70.5078-41.3574 69.873-41.9922 69.043-41.9922L25.7812-41.9922C24.9512-41.9922 24.3164-41.3574 24.3164-40.5762C24.3164-39.7949 24.9512-39.1602 25.7812-39.1602ZM25.7812-27.1484L69.043-27.1484C69.873-27.1484 70.5078-27.7344 70.5078-28.5156C70.5078-29.3457 69.873-29.9805 69.043-29.9805L25.7812-29.9805C24.9512-29.9805 24.3164-29.3457 24.3164-28.5156C24.3164-27.7344 24.9512-27.1484 25.7812-27.1484ZM25.7812-15.0879L54.3945-15.0879C55.2246-15.0879 55.8594-15.7227 55.8594-16.5039C55.8594-17.2852 55.2246-17.9199 54.3945-17.9199L25.7812-17.9199C24.9512-17.9199 24.3164-17.2852 24.3164-16.5039C24.3164-15.7227 24.9512-15.0879 25.7812-15.0879Z"/>
  </g>
  <g id="Ultralight-S" transform="matrix(1 0 0 1 512.494 696)">
   <path d="M19.7754-1.5625L74.6582-1.5625C81.2012-1.5625 84.668-5.12695 84.668-11.5234L84.668-58.7891C84.668-65.2344 81.2012-68.75 74.6582-68.75L19.7754-68.75C13.2324-68.75 9.76562-65.2832 9.76562-58.7891L9.76562-11.5234C9.76562-5.0293 13.2324-1.5625 19.7754-1.5625ZM19.8242-3.75977C14.6484-3.75977 11.9629-6.44531 11.9629-11.6211L11.9629-44.7266C11.9629-49.9023 14.6484-52.5391 19.8242-52.5391L74.6094-52.5391C79.5898-52.5391 82.4707-49.9023 82.4707-44.7266L82.4707-11.6211C82.4707-6.44531 79.5898-3.75977 74.6094-3.75977ZM25-39.3066L69.4336-39.3066C70.0684-39.3066 70.5566-39.7949 70.5566-40.3809C70.5566-40.9668 70.0684-41.4551 69.4336-41.4551L25-41.4551C24.3652-41.4551 23.877-40.9668 23.877-40.3809C23.877-39.7949 24.3652-39.3066 25-39.3066ZM25-27.0996L69.4336-27.0996C70.0684-27.0996 70.5566-27.5879 70.5566-28.1738C70.5566-28.7598 70.0684-29.1992 69.4336-29.1992L25-29.1992C24.3652-29.1992 23.877-28.7598 23.877-28.1738C23.877-27.5879 24.3652-27.0996 25-27.0996ZM25-14.8926L54.7852-14.8926C55.4199-14.8926 55.9082-15.3809 55.9082-15.9668C55.9082-16.5527 55.4199-16.9922 54.7852-16.9922L25-16.9922C24.3652-16.9922 23.877-16.5527 23.877-15.9668C23.877-15.3809 24.3652-14.8926 25-14.8926Z"/>
  </g>
 </g>
</svg>
