<?xml version="1.0" encoding="UTF-8"?>
<!--Generator: Apple Native CoreSVG 149-->
<!DOCTYPE svg
PUBLIC "-//W3C//DTD SVG 1.1//EN"
       "http://www.w3.org/Graphics/SVG/1.1/DTD/svg11.dtd">
<svg version="1.1" xmlns="http://www.w3.org/2000/svg" xmlns:xlink="http://www.w3.org/1999/xlink" width="3300" height="2200">
 <!--glyph: "uni100125.medium", point size: 100.000000, font version: "Version 16.0d12e3", template writer version: "8"-->
 <g id="Notes">
  <rect height="2200" id="artboard" style="fill:white;opacity:1" width="3300" x="0" y="0"/>
  <line id="" style="fill:none;stroke:black;opacity:1;stroke-width:0.5;" x1="263" x2="3036" y1="292" y2="292"/>
  <text style="stroke:none;fill:black;font-family:-apple-system,&quot;SF Pro Display&quot;,&quot;SF Pro Text&quot;,Helvetica,sans-serif;font-weight:bold;" transform="matrix(1 0 0 1 263 322)">Weight/Scale Variations</text>
  <text style="stroke:none;fill:black;font-family:-apple-system,&quot;SF Pro Display&quot;,&quot;SF Pro Text&quot;,Helvetica,sans-serif;text-anchor:middle;" transform="matrix(1 0 0 1 559.711 322)">Ultralight</text>
  <text style="stroke:none;fill:black;font-family:-apple-system,&quot;SF Pro Display&quot;,&quot;SF Pro Text&quot;,Helvetica,sans-serif;text-anchor:middle;" transform="matrix(1 0 0 1 856.422 322)">Thin</text>
  <text style="stroke:none;fill:black;font-family:-apple-system,&quot;SF Pro Display&quot;,&quot;SF Pro Text&quot;,Helvetica,sans-serif;text-anchor:middle;" transform="matrix(1 0 0 1 1153.13 322)">Light</text>
  <text style="stroke:none;fill:black;font-family:-apple-system,&quot;SF Pro Display&quot;,&quot;SF Pro Text&quot;,Helvetica,sans-serif;text-anchor:middle;" transform="matrix(1 0 0 1 1449.84 322)">Regular</text>
  <text style="stroke:none;fill:black;font-family:-apple-system,&quot;SF Pro Display&quot;,&quot;SF Pro Text&quot;,Helvetica,sans-serif;text-anchor:middle;" transform="matrix(1 0 0 1 1746.56 322)">Medium</text>
  <text style="stroke:none;fill:black;font-family:-apple-system,&quot;SF Pro Display&quot;,&quot;SF Pro Text&quot;,Helvetica,sans-serif;text-anchor:middle;" transform="matrix(1 0 0 1 2043.27 322)">Semibold</text>
  <text style="stroke:none;fill:black;font-family:-apple-system,&quot;SF Pro Display&quot;,&quot;SF Pro Text&quot;,Helvetica,sans-serif;text-anchor:middle;" transform="matrix(1 0 0 1 2339.98 322)">Bold</text>
  <text style="stroke:none;fill:black;font-family:-apple-system,&quot;SF Pro Display&quot;,&quot;SF Pro Text&quot;,Helvetica,sans-serif;text-anchor:middle;" transform="matrix(1 0 0 1 2636.69 322)">Heavy</text>
  <text style="stroke:none;fill:black;font-family:-apple-system,&quot;SF Pro Display&quot;,&quot;SF Pro Text&quot;,Helvetica,sans-serif;text-anchor:middle;" transform="matrix(1 0 0 1 2933.4 322)">Black</text>
  <line id="" style="fill:none;stroke:black;opacity:1;stroke-width:0.5;" x1="263" x2="3036" y1="1903" y2="1903"/>
  <g id="" transform="matrix(1 0 0 1 263 1933)">
   <path d="M9.24805 0.830078C13.5547 0.830078 17.1387-2.74414 17.1387-7.05078C17.1387-11.3574 13.5449-14.9316 9.23828-14.9316C4.94141-14.9316 1.36719-11.3574 1.36719-7.05078C1.36719-2.74414 4.95117 0.830078 9.24805 0.830078ZM9.24805-0.654297C5.70312-0.654297 2.87109-3.49609 2.87109-7.05078C2.87109-10.6055 5.69336-13.4473 9.23828-13.4473C12.793-13.4473 15.6348-10.6055 15.6445-7.05078C15.6543-3.49609 12.8027-0.654297 9.24805-0.654297ZM9.22852-3.62305C9.69727-3.62305 9.9707-3.93555 9.9707-4.45312L9.9707-6.31836L12.002-6.31836C12.5-6.31836 12.832-6.57227 12.832-7.04102C12.832-7.51953 12.5195-7.7832 12.002-7.7832L9.9707-7.7832L9.9707-9.81445C9.9707-10.332 9.69727-10.6543 9.22852-10.6543C8.75977-10.6543 8.50586-10.3125 8.50586-9.81445L8.50586-7.7832L6.49414-7.7832C5.97656-7.7832 5.64453-7.51953 5.64453-7.04102C5.64453-6.57227 5.99609-6.31836 6.49414-6.31836L8.50586-6.31836L8.50586-4.45312C8.50586-3.95508 8.75977-3.62305 9.22852-3.62305Z"/>
  </g>
  <g id="" transform="matrix(1 0 0 1 281.506 1933)">
   <path d="M11.709 2.91016C17.1582 2.91016 21.6699-1.61133 21.6699-7.05078C21.6699-12.5 17.1484-17.0117 11.6992-17.0117C6.25977-17.0117 1.74805-12.5 1.74805-7.05078C1.74805-1.61133 6.26953 2.91016 11.709 2.91016ZM11.709 1.25C7.09961 1.25 3.41797-2.44141 3.41797-7.05078C3.41797-11.6602 7.08984-15.3516 11.6992-15.3516C16.3086-15.3516 20-11.6602 20.0098-7.05078C20.0195-2.44141 16.3184 1.25 11.709 1.25ZM11.6797-2.66602C12.207-2.66602 12.5098-3.01758 12.5098-3.59375L12.5098-6.23047L15.3223-6.23047C15.8691-6.23047 16.25-6.51367 16.25-7.03125C16.25-7.55859 15.8887-7.86133 15.3223-7.86133L12.5098-7.86133L12.5098-10.6836C12.5098-11.25 12.207-11.6113 11.6797-11.6113C11.1621-11.6113 10.8789-11.2305 10.8789-10.6836L10.8789-7.86133L8.07617-7.86133C7.50977-7.86133 7.13867-7.55859 7.13867-7.03125C7.13867-6.51367 7.5293-6.23047 8.07617-6.23047L10.8789-6.23047L10.8789-3.59375C10.8789-3.03711 11.1621-2.66602 11.6797-2.66602Z"/>
  </g>
  <g id="" transform="matrix(1 0 0 1 304.924 1933)">
   <path d="M14.9707 5.66406C21.9336 5.66406 27.6953-0.0976562 27.6953-7.05078C27.6953-14.0137 21.9238-19.7754 14.9609-19.7754C8.00781-19.7754 2.25586-14.0137 2.25586-7.05078C2.25586-0.0976562 8.01758 5.66406 14.9707 5.66406ZM14.9707 3.84766C8.93555 3.84766 4.08203-1.01562 4.08203-7.05078C4.08203-13.0957 8.92578-17.9492 14.9609-17.9492C21.0059-17.9492 25.8594-13.0957 25.8691-7.05078C25.8789-1.01562 21.0156 3.84766 14.9707 3.84766ZM14.9414-1.38672C15.5176-1.38672 15.8594-1.77734 15.8594-2.38281L15.8594-6.13281L19.7754-6.13281C20.3711-6.13281 20.7812-6.46484 20.7812-7.02148C20.7812-7.59766 20.3906-7.93945 19.7754-7.93945L15.8594-7.93945L15.8594-11.8652C15.8594-12.4805 15.5176-12.8711 14.9414-12.8711C14.375-12.8711 14.0527-12.4609 14.0527-11.8652L14.0527-7.93945L10.1465-7.93945C9.53125-7.93945 9.13086-7.59766 9.13086-7.02148C9.13086-6.46484 9.55078-6.13281 10.1465-6.13281L14.0527-6.13281L14.0527-2.38281C14.0527-1.79688 14.375-1.38672 14.9414-1.38672Z"/>
  </g>
  <text style="stroke:none;fill:black;font-family:-apple-system,&quot;SF Pro Display&quot;,&quot;SF Pro Text&quot;,Helvetica,sans-serif;font-weight:bold;" transform="matrix(1 0 0 1 263 1953)">Design Variations</text>
  <text style="stroke:none;fill:black;font-family:-apple-system,&quot;SF Pro Display&quot;,&quot;SF Pro Text&quot;,Helvetica,sans-serif;" transform="matrix(1 0 0 1 263 1971)">Symbols are supported in up to nine weights and three scales.</text>
  <text style="stroke:none;fill:black;font-family:-apple-system,&quot;SF Pro Display&quot;,&quot;SF Pro Text&quot;,Helvetica,sans-serif;" transform="matrix(1 0 0 1 263 1989)">For optimal layout with text and other symbols, vertically align</text>
  <text style="stroke:none;fill:black;font-family:-apple-system,&quot;SF Pro Display&quot;,&quot;SF Pro Text&quot;,Helvetica,sans-serif;" transform="matrix(1 0 0 1 263 2007)">symbols with the adjacent text.</text>
  <line id="" style="fill:none;stroke:#00AEEF;stroke-width:0.5;opacity:1.0;" x1="776" x2="776" y1="1919" y2="1933"/>
  <g id="" transform="matrix(1 0 0 1 776 1933)">
   <path d="M3.31055 0.126953C3.82812 0.126953 4.08203-0.0683594 4.26758-0.605469L5.52734-4.0625L11.2891-4.0625L12.5488-0.605469C12.7344-0.0683594 12.9883 0.126953 13.4961 0.126953C14.0137 0.126953 14.3457-0.185547 14.3457-0.673828C14.3457-0.839844 14.3164-0.986328 14.2383-1.20117L9.6582-13.3887C9.43359-13.9941 9.0332-14.2871 8.4082-14.2871C7.80273-14.2871 7.39258-13.9941 7.17773-13.3984L2.59766-1.19141C2.51953-0.976562 2.49023-0.830078 2.49023-0.664062C2.49023-0.175781 2.80273 0.126953 3.31055 0.126953ZM6.00586-5.53711L8.37891-12.1094L8.42773-12.1094L10.8008-5.53711Z"/>
  </g>
  <line id="" style="fill:none;stroke:#00AEEF;stroke-width:0.5;opacity:1.0;" x1="792.836" x2="792.836" y1="1919" y2="1933"/>
  <text style="stroke:none;fill:black;font-family:-apple-system,&quot;SF Pro Display&quot;,&quot;SF Pro Text&quot;,Helvetica,sans-serif;font-weight:bold;" transform="matrix(1 0 0 1 776 1953)">Margins</text>
  <text style="stroke:none;fill:black;font-family:-apple-system,&quot;SF Pro Display&quot;,&quot;SF Pro Text&quot;,Helvetica,sans-serif;" transform="matrix(1 0 0 1 776 1971)">Leading and trailing margins on the left and right side of each symbol</text>
  <text style="stroke:none;fill:black;font-family:-apple-system,&quot;SF Pro Display&quot;,&quot;SF Pro Text&quot;,Helvetica,sans-serif;" transform="matrix(1 0 0 1 776 1989)">can be adjusted by modifying the x-location of the margin guidelines.</text>
  <text style="stroke:none;fill:black;font-family:-apple-system,&quot;SF Pro Display&quot;,&quot;SF Pro Text&quot;,Helvetica,sans-serif;" transform="matrix(1 0 0 1 776 2007)">Modifications are automatically applied proportionally to all</text>
  <text style="stroke:none;fill:black;font-family:-apple-system,&quot;SF Pro Display&quot;,&quot;SF Pro Text&quot;,Helvetica,sans-serif;" transform="matrix(1 0 0 1 776 2025)">scales and weights.</text>
  <g id="" transform="matrix(1 0 0 1 1289 1933)">
   <path d="M2.8418 1.86523L4.54102 3.57422C5.40039 4.44336 6.38672 4.38477 7.31445 3.35938L17.4902-7.85156C17.7539-7.76367 18.0273-7.7832 18.3398-7.8418L19.4043-8.03711L20.0684-7.36328L20.0293-6.80664C19.9902-6.30859 20.1172-5.92773 20.6055-5.44922L21.3672-4.70703C21.8457-4.22852 22.4609-4.19922 22.9297-4.66797L25.8398-7.58789C26.3086-8.05664 26.2891-8.65234 25.8105-9.13086L25.0391-9.89258C24.5605-10.3711 24.1895-10.5273 23.7109-10.4883L23.1348-10.4395L22.4902-11.0742L22.7344-12.1973C22.8613-12.7637 22.7051-13.2031 22.1191-13.7891L19.9219-15.9766C16.582-19.2969 12.1484-19.2188 9.25781-16.3281C8.83789-15.918 8.80859-15.3418 9.04297-14.9512C9.27734-14.5898 9.73633-14.3555 10.3809-14.5215C11.8457-14.8633 13.3691-14.9219 14.7949-13.9844L14.209-12.5293C14.0137-12.0508 13.9844-11.6504 14.1113-11.2891L3.04688-0.898438C2.06055 0.0195312 1.98242 0.996094 2.8418 1.86523ZM10.752-15.957C13.1836-17.7344 16.4746-17.4316 18.7012-15.2051L21.1328-12.793C21.3672-12.5586 21.4062-12.373 21.3379-12.0312L21.0156-10.5469L22.5195-9.0625L23.5059-9.12109C23.7598-9.13086 23.8379-9.11133 24.0332-8.91602L24.6094-8.33984L22.168-5.89844L21.5918-6.47461C21.3965-6.66992 21.3672-6.74805 21.377-7.01172L21.4453-7.98828L19.9512-9.47266L18.4277-9.21875C18.1055-9.15039 17.959-9.17969 17.7148-9.41406L15.7129-11.416C15.459-11.6504 15.4297-11.8164 15.5859-12.1875L16.4648-14.2773C14.9023-15.7324 12.8711-16.3574 10.8398-15.7617C10.6836-15.7227 10.625-15.8496 10.752-15.957ZM5.27344 2.30469L4.10156 1.14258C3.63281 0.683594 3.74023 0.341797 4.14062-0.0195312L14.9512-10.1953L16.416-8.71094L6.42578 2.27539C6.07422 2.67578 5.74219 2.77344 5.27344 2.30469Z"/>
  </g>
  <text style="stroke:none;fill:black;font-family:-apple-system,&quot;SF Pro Display&quot;,&quot;SF Pro Text&quot;,Helvetica,sans-serif;font-weight:bold;" transform="matrix(1 0 0 1 1289 1953)">Exporting</text>
  <text style="stroke:none;fill:black;font-family:-apple-system,&quot;SF Pro Display&quot;,&quot;SF Pro Text&quot;,Helvetica,sans-serif;" transform="matrix(1 0 0 1 1289 1971)">Symbols should be outlined when exporting to ensure the</text>
  <text style="stroke:none;fill:black;font-family:-apple-system,&quot;SF Pro Display&quot;,&quot;SF Pro Text&quot;,Helvetica,sans-serif;" transform="matrix(1 0 0 1 1289 1989)">design is preserved when submitting to Xcode.</text>
  <text id="template-version" style="stroke:none;fill:black;font-family:-apple-system,&quot;SF Pro Display&quot;,&quot;SF Pro Text&quot;,Helvetica,sans-serif;text-anchor:end;" transform="matrix(1 0 0 1 3036 1933)">Template v.2.0</text>
  <text style="stroke:none;fill:black;font-family:-apple-system,&quot;SF Pro Display&quot;,&quot;SF Pro Text&quot;,Helvetica,sans-serif;text-anchor:end;" transform="matrix(1 0 0 1 3036 1951)">Requires Xcode 12 or greater</text>
  <text style="stroke:none;fill:black;font-family:-apple-system,&quot;SF Pro Display&quot;,&quot;SF Pro Text&quot;,Helvetica,sans-serif;text-anchor:end;" transform="matrix(1 0 0 1 3036 1969)">Generated from arrowtriangle.down.fill</text>
  <text style="stroke:none;fill:black;font-family:-apple-system,&quot;SF Pro Display&quot;,&quot;SF Pro Text&quot;,Helvetica,sans-serif;text-anchor:end;" transform="matrix(1 0 0 1 3036 1987)">Typeset at 100 points</text>
  <text style="stroke:none;fill:black;font-family:-apple-system,&quot;SF Pro Display&quot;,&quot;SF Pro Text&quot;,Helvetica,sans-serif;" transform="matrix(1 0 0 1 263 726)">Small</text>
  <text style="stroke:none;fill:black;font-family:-apple-system,&quot;SF Pro Display&quot;,&quot;SF Pro Text&quot;,Helvetica,sans-serif;" transform="matrix(1 0 0 1 263 1156)">Medium</text>
  <text style="stroke:none;fill:black;font-family:-apple-system,&quot;SF Pro Display&quot;,&quot;SF Pro Text&quot;,Helvetica,sans-serif;" transform="matrix(1 0 0 1 263 1586)">Large</text>
 </g>
 <g id="Guides">
  <g id="H-reference" style="fill:#27AAE1;stroke:none;" transform="matrix(1 0 0 1 339 696)">
   <path d="M0.976562 0L3.66211 0L12.9883-24.4629L45.752-24.4629L55.127 0L57.7637 0L30.6152-70.459L28.125-70.459ZM29.3457-67.1387L29.4434-67.1387L44.873-26.709L13.8672-26.709Z"/>
  </g>
  <line id="Baseline-S" style="fill:none;stroke:#27AAE1;opacity:1;stroke-width:0.5;" x1="263" x2="3036" y1="696" y2="696"/>
  <line id="Capline-S" style="fill:none;stroke:#27AAE1;opacity:1;stroke-width:0.5;" x1="263" x2="3036" y1="625.541" y2="625.541"/>
  <g id="H-reference" style="fill:#27AAE1;stroke:none;" transform="matrix(1 0 0 1 339 1126)">
   <path d="M0.976562 0L3.66211 0L12.9883-24.4629L45.752-24.4629L55.127 0L57.7637 0L30.6152-70.459L28.125-70.459ZM29.3457-67.1387L29.4434-67.1387L44.873-26.709L13.8672-26.709Z"/>
  </g>
  <line id="Baseline-M" style="fill:none;stroke:#27AAE1;opacity:1;stroke-width:0.5;" x1="263" x2="3036" y1="1126" y2="1126"/>
  <line id="Capline-M" style="fill:none;stroke:#27AAE1;opacity:1;stroke-width:0.5;" x1="263" x2="3036" y1="1055.54" y2="1055.54"/>
  <g id="H-reference" style="fill:#27AAE1;stroke:none;" transform="matrix(1 0 0 1 339 1556)">
   <path d="M0.976562 0L3.66211 0L12.9883-24.4629L45.752-24.4629L55.127 0L57.7637 0L30.6152-70.459L28.125-70.459ZM29.3457-67.1387L29.4434-67.1387L44.873-26.709L13.8672-26.709Z"/>
  </g>
  <line id="Baseline-L" style="fill:none;stroke:#27AAE1;opacity:1;stroke-width:0.5;" x1="263" x2="3036" y1="1556" y2="1556"/>
  <line id="Capline-L" style="fill:none;stroke:#27AAE1;opacity:1;stroke-width:0.5;" x1="263" x2="3036" y1="1485.54" y2="1485.54"/>
  <line id="left-margin" style="fill:none;stroke:#00AEEF;stroke-width:0.5;opacity:1.0;" x1="1401.04" x2="1401.04" y1="1030.79" y2="1150.12"/>
  <line id="right-margin" style="fill:none;stroke:#00AEEF;stroke-width:0.5;opacity:1.0;" x1="1498.65" x2="1498.65" y1="1030.79" y2="1150.12"/>
 </g>
 <g id="Symbols">
  <g id="Black-L" transform="matrix(1 0 0 1 2868.8 1556)">
   <path d="M116.309-76.1719C116.309-82.666 111.279-88.4766 102.734-88.4766L26.4648-88.4766C17.9199-88.4766 12.8906-82.7148 12.8906-76.1719C12.8906-72.998 14.1113-70.2637 16.1133-66.1133L51.4648 7.95898C54.5898 14.4531 58.9355 17.9199 64.5996 17.9199C70.2637 17.9199 74.6094 14.4531 77.6855 7.95898L113.086-66.1133C115.088-70.2637 116.309-72.998 116.309-76.1719Z"/>
  </g>
  <g id="Heavy-L" transform="matrix(1 0 0 1 2572.53 1556)">
   <path d="M115.43-76.9531C115.43-82.959 110.84-87.9883 103.125-87.9883L25.1953-87.9883C17.4805-87.9883 12.8906-82.959 12.8906-77.002C12.8906-74.0234 14.0625-71.5332 15.8691-67.7734L52.3438 8.39844C55.2734 14.502 59.082 17.4805 64.1602 17.4805C69.2383 17.4805 73.0469 14.502 75.9766 8.39844L112.5-67.7734C114.258-71.4844 115.43-74.0234 115.43-76.9531Z"/>
  </g>
  <g id="Bold-L" transform="matrix(1 0 0 1 2276.31 1556)">
   <path d="M114.453-77.8809C114.453-83.252 110.352-87.4512 103.564-87.4512L23.7793-87.4512C16.9922-87.4512 12.8906-83.252 12.8906-77.9297C12.8906-75.1953 14.0137-72.9004 15.5762-69.6289L53.3203 8.88672C56.0547 14.502 59.3262 16.9922 63.6719 16.9922C68.0664 16.9922 71.2891 14.502 74.0234 8.88672L111.768-69.6289C113.379-72.9004 114.453-75.1465 114.453-77.8809Z"/>
  </g>
  <g id="Semibold-L" transform="matrix(1 0 0 1 1979.94 1556)">
   <path d="M113.77-78.5156C113.77-83.4473 110.01-87.0605 103.906-87.0605L22.8027-87.1094C16.6504-87.1094 12.8906-83.4961 12.8906-78.5156C12.8906-75.9766 13.9648-73.877 15.3809-70.8984L54.0039 9.17969C56.5918 14.502 59.4727 16.6504 63.3301 16.6504C67.2363 16.6504 70.1172 14.502 72.6562 9.17969L111.279-70.8984C112.744-73.8281 113.77-75.9277 113.77-78.5156Z"/>
  </g>
  <g id="Medium-L" transform="matrix(1 0 0 1 1683.47 1556)">
   <path d="M113.281-78.9551C113.281-83.5938 109.766-86.7676 104.15-86.7676L22.0215-86.8164C16.4062-86.8164 12.8906-83.6426 12.8906-79.0039C12.8906-76.5625 13.916-74.6094 15.2344-71.8262L54.541 9.47266C56.9824 14.502 59.5703 16.4062 63.0859 16.4062C66.6016 16.4062 69.1895 14.502 71.6309 9.47266L110.938-71.8262C112.256-74.5605 113.281-76.5137 113.281-78.9551Z"/>
  </g>
  <g id="Regular-L" transform="matrix(1 0 0 1 1387.1 1556)">
   <path d="M112.598-79.5898C112.598-83.7891 109.424-86.4258 104.443-86.4258L21.0938-86.4746C16.0645-86.4746 12.8906-83.8379 12.8906-79.6387C12.8906-77.3438 13.8672-75.5859 15.0879-73.0957L55.1758 9.76562C57.5195 14.502 59.7168 16.0645 62.7441 16.0645C65.8203 16.0645 68.0176 14.502 70.3125 9.76562L110.449-73.0957C111.621-75.5371 112.598-77.2949 112.598-79.5898Z"/>
  </g>
  <g id="Light-L" transform="matrix(1 0 0 1 1090.71 1556)">
   <path d="M111.963-80.3711C111.963-83.9844 109.277-86.2793 104.932-86.2793L19.9219-86.2793C15.5762-86.2793 12.8906-84.0332 12.8906-80.4199C12.8906-78.5156 13.6719-77.0996 14.7461-74.9023L56.0059 10.6445C57.8613 14.4531 59.7656 15.918 62.4023 15.918C65.0879 15.918 66.9922 14.4531 68.8477 10.6445L110.107-74.9023C111.182-77.0508 111.963-78.4668 111.963-80.3711Z"/>
  </g>
  <g id="Thin-L" transform="matrix(1 0 0 1 794.435 1556)">
   <path d="M111.084-81.4453C111.084-84.2773 109.033-86.084 105.615-86.084L18.3594-86.084C14.8926-86.084 12.8906-84.2773 12.8906-81.4941C12.8906-80.0781 13.4277-79.0527 14.3066-77.2461L57.0801 11.8164C58.3496 14.3555 59.8145 15.6738 61.9629 15.6738C64.1113 15.6738 65.625 14.3555 66.8945 11.8164L109.668-77.2461C110.547-79.0527 111.084-80.0293 111.084-81.4453Z"/>
  </g>
  <g id="Ultralight-L" transform="matrix(1 0 0 1 497.944 1556)">
   <path d="M110.645-82.0312C110.645-84.375 108.936-85.9863 105.957-85.9863L17.5781-85.9375C14.5996-85.9375 12.8906-84.375 12.8906-82.0312C12.8906-80.8594 13.3301-80.0781 14.0625-78.4668L57.6172 12.4023C58.5938 14.3555 59.8633 15.5762 61.7676 15.5762C63.623 15.5762 64.8926 14.3555 65.8691 12.4023L109.424-78.4668C110.205-80.0781 110.645-80.8594 110.645-82.0312Z"/>
  </g>
  <g id="Black-M" transform="matrix(1 0 0 1 2882.96 1126)">
   <path d="M90.918-66.3086C90.918-71.7773 86.7188-77.0508 79.2969-77.0508L21.582-77.0508C14.1602-77.0508 9.96094-71.7773 9.96094-66.3086C9.96094-63.7207 10.8887-61.4746 12.5977-57.9102L39.1113-1.85547C41.5527 3.27148 45.4102 6.49414 50.4395 6.49414C55.4688 6.49414 59.3262 3.27148 61.7676-1.85547L88.2812-57.9102C89.9902-61.4746 90.918-63.7207 90.918-66.3086Z"/>
  </g>
  <g id="Heavy-M" transform="matrix(1 0 0 1 2586.64 1126)">
   <path d="M90.1367-66.9922C90.1367-71.9727 86.2793-76.5625 79.6387-76.5625L20.5078-76.5625C13.8184-76.5625 9.96094-72.0215 9.96094-66.9922C9.96094-64.5508 10.8887-62.4512 12.4023-59.2285L39.8926-1.61133C42.2363 3.27148 45.6055 6.05469 50.0488 6.05469C54.4922 6.05469 57.9102 3.27148 60.2539-1.61133L87.6953-59.2285C89.209-62.4512 90.1367-64.5508 90.1367-66.9922Z"/>
  </g>
  <g id="Bold-M" transform="matrix(1 0 0 1 2290.37 1126)">
   <path d="M89.2578-67.7246C89.2578-72.2656 85.791-76.0254 79.9805-76.0254L19.2871-76.0254C13.4277-76.0254 9.96094-72.2656 9.96094-67.7246C9.96094-65.4785 10.8398-63.5742 12.207-60.7422L40.7227-1.36719C42.9199 3.32031 45.8008 5.56641 49.6094 5.56641C53.418 5.56641 56.2988 3.32031 58.5449-1.36719L87.0117-60.7422C88.3789-63.5254 89.2578-65.4297 89.2578-67.7246Z"/>
  </g>
  <g id="Semibold-M" transform="matrix(1 0 0 1 1993.95 1126)">
   <path d="M88.6719-68.2129C88.6719-72.4121 85.4492-75.6348 80.2246-75.6348L18.4082-75.6836C13.1836-75.6836 9.96094-72.4609 9.96094-68.2617C9.96094-66.1133 10.8398-64.3066 12.0605-61.7676L41.2598-1.17188C43.457 3.32031 45.9473 5.22461 49.3164 5.22461C52.6855 5.22461 55.1758 3.32031 57.373-1.17188L86.5723-61.7676C87.793-64.3066 88.6719-66.0645 88.6719-68.2129Z"/>
  </g>
  <g id="Medium-M" transform="matrix(1 0 0 1 1697.46 1126)">
   <path d="M88.2324-68.6035C88.2324-72.5586 85.2051-75.3418 80.3711-75.3418L17.7734-75.3906C12.9883-75.3906 9.96094-72.6074 9.96094-68.6523C9.96094-66.6016 10.8398-64.8926 11.9629-62.5488L41.6992-1.02539C43.8477 3.32031 46.0449 4.98047 49.0723 4.98047C52.0996 4.98047 54.3457 3.32031 56.4941-1.02539L86.2305-62.5488C87.3535-64.8438 88.2324-66.5527 88.2324-68.6035Z"/>
  </g>
  <g id="Regular-M" transform="matrix(1 0 0 1 1401.04 1126)">
   <path d="M87.6465-69.1406C87.6465-72.7539 84.8633-75 80.6152-75L16.9434-75.0488C12.6953-75.0488 9.96094-72.8027 9.96094-69.1895C9.96094-67.2363 10.8398-65.625 11.8164-63.5742L42.2852-0.830078C44.3359 3.32031 46.1914 4.63867 48.7793 4.63867C51.3672 4.63867 53.2715 3.32031 55.3223-0.830078L85.7422-63.5742C86.7676-65.5762 87.6465-67.1875 87.6465-69.1406Z"/>
  </g>
  <g id="Light-M" transform="matrix(1 0 0 1 1104.65 1126)">
   <path d="M87.0117-69.873C87.0117-72.9004 84.7168-74.8535 81.0547-74.8535L15.918-74.8535C12.2559-74.8535 9.96094-72.9492 9.96094-69.9219C9.96094-68.2617 10.6445-66.9922 11.5234-65.1855L43.0176-0.0488281C44.6777 3.27148 46.2402 4.49219 48.4863 4.49219C50.7324 4.49219 52.3438 3.27148 54.0039-0.0488281L85.4492-65.1855C86.3281-66.9434 87.0117-68.2129 87.0117-69.873Z"/>
  </g>
  <g id="Thin-M" transform="matrix(1 0 0 1 808.327 1126)">
   <path d="M86.2305-70.8496C86.2305-73.1445 84.5215-74.6582 81.6895-74.6582L14.5508-74.6582C11.6699-74.6582 9.96094-73.1934 9.96094-70.8496C9.96094-69.6289 10.4492-68.75 11.1328-67.2852L43.9941 0.976562C45.0684 3.22266 46.3379 4.29688 48.0957 4.29688C49.8535 4.29688 51.123 3.22266 52.2461 0.976562L85.0586-67.2852C85.7422-68.75 86.2305-69.6289 86.2305-70.8496Z"/>
  </g>
  <g id="Ultralight-M" transform="matrix(1 0 0 1 511.811 1126)">
   <path d="M85.8398-71.3379C85.8398-73.291 84.4238-74.5605 81.9824-74.5605L13.8184-74.5605C11.377-74.5605 9.96094-73.291 9.96094-71.3379C9.96094-70.3613 10.3027-69.6777 10.9375-68.3594L44.4824 1.51367C45.3125 3.17383 46.3379 4.19922 47.9004 4.19922C49.4629 4.19922 50.4883 3.17383 51.3184 1.51367L84.8633-68.3594C85.498-69.6777 85.8398-70.3613 85.8398-71.3379Z"/>
  </g>
  <g id="Black-S" transform="matrix(1 0 0 1 2893.9 696)">
   <path d="M71.1914-59.6191C71.1914-63.8672 67.9199-67.9688 62.1582-67.9688L16.8457-67.9688C11.084-67.9688 7.8125-63.8672 7.8125-59.6191C7.8125-57.6172 8.54492-55.8594 9.86328-53.0762L30.7129-9.08203C32.6172-5.07812 35.5957-2.58789 39.502-2.58789C43.4082-2.58789 46.3867-5.07812 48.291-9.08203L69.1406-53.0762C70.459-55.8594 71.1914-57.6172 71.1914-59.6191Z"/>
  </g>
  <g id="Heavy-S" transform="matrix(1 0 0 1 2597.46 696)">
   <path d="M70.6543-60.0586C70.6543-64.0137 67.627-67.627 62.3535-67.627L16.1133-67.627C10.8887-67.627 7.8125-64.0137 7.8125-60.0586C7.8125-58.1055 8.54492-56.4453 9.76562-53.9062L31.2012-8.98438C33.0566-5.07812 35.7422-2.88086 39.2578-2.88086C42.7246-2.88086 45.4102-5.07812 47.2656-8.98438L68.7012-53.9062C69.9219-56.4453 70.6543-58.1055 70.6543-60.0586Z"/>
  </g>
  <g id="Bold-S" transform="matrix(1 0 0 1 2301.04 696)">
   <path d="M70.0684-60.5469C70.0684-64.209 67.2363-67.1875 62.5488-67.1875L15.332-67.2363C10.6445-67.2363 7.8125-64.209 7.8125-60.5469C7.8125-58.6914 8.54492-57.1289 9.66797-54.8828L31.7383-8.88672C33.5938-5.0293 35.8887-3.27148 38.9648-3.27148C41.9922-3.27148 44.2871-5.0293 46.1426-8.88672L68.2617-54.8828C69.3359-57.1289 70.0684-58.6914 70.0684-60.5469Z"/>
  </g>
  <g id="Semibold-S" transform="matrix(1 0 0 1 2004.52 696)">
   <path d="M69.6777-60.8398C69.6777-64.3066 66.9922-66.9434 62.6953-66.9434L14.7949-66.9434C10.4492-66.9434 7.8125-64.3555 7.8125-60.8887C7.8125-59.082 8.54492-57.6172 9.57031-55.5176L32.1289-8.78906C33.9355-5.0293 35.9863-3.51562 38.7207-3.51562C41.4551-3.51562 43.5059-5.0293 45.3613-8.78906L67.9199-55.5176C68.8965-57.5684 69.6777-59.082 69.6777-60.8398Z"/>
  </g>
  <g id="Medium-S" transform="matrix(1 0 0 1 1707.98 696)">
   <path d="M69.3359-61.1328C69.3359-64.4043 66.7969-66.6992 62.793-66.6992L14.3555-66.748C10.3516-66.748 7.8125-64.4531 7.8125-61.1328C7.8125-59.375 8.54492-57.959 9.52148-56.0059L32.4219-8.74023C34.2285-4.98047 36.084-3.71094 38.5742-3.71094C41.0645-3.71094 42.9688-4.98047 44.7754-8.74023L67.6758-56.0059C68.6035-57.9102 69.3359-59.375 69.3359-61.1328Z"/>
  </g>
  <g id="Regular-S" transform="matrix(1 0 0 1 1411.47 696)">
   <path d="M68.9453-61.4258C68.9453-64.5508 66.6016-66.4551 62.9395-66.4551L13.8184-66.5039C10.2051-66.5039 7.8125-64.5996 7.8125-61.4746C7.8125-59.7656 8.54492-58.3984 9.42383-56.6406L32.7637-8.69141C34.5703-4.98047 36.1816-3.90625 38.3789-3.90625C40.5762-3.90625 42.1875-4.98047 43.9941-8.69141L67.334-56.6406C68.2129-58.3496 68.9453-59.7168 68.9453-61.4258Z"/>
  </g>
  <g id="Light-S" transform="matrix(1 0 0 1 1115.02 696)">
   <path d="M68.4082-62.1094C68.4082-64.6973 66.4551-66.3086 63.3789-66.3086L12.8906-66.3574C9.76562-66.3574 7.8125-64.7461 7.8125-62.1094C7.8125-60.6934 8.39844-59.6191 9.17969-58.0566L33.4473-7.95898C34.8633-5.0293 36.2305-4.05273 38.1348-4.05273C39.9902-4.05273 41.3574-5.0293 42.8223-7.95898L67.0898-58.0566C67.8223-59.5703 68.4082-60.6934 68.4082-62.1094Z"/>
  </g>
  <g id="Thin-S" transform="matrix(1 0 0 1 818.654 696)">
   <path d="M67.7246-62.9395C67.7246-64.8926 66.2598-66.1621 63.8672-66.1621L11.6699-66.1621C9.27734-66.1621 7.8125-64.8926 7.8125-62.9395C7.8125-61.9141 8.25195-61.1816 8.83789-59.9609L34.2773-7.08008C35.2539-5.07812 36.2793-4.24805 37.793-4.24805C39.2578-4.24805 40.2832-5.07812 41.2598-7.08008L66.748-59.9609C67.334-61.1328 67.7246-61.9141 67.7246-62.9395Z"/>
  </g>
  <g id="Ultralight-S" transform="matrix(1 0 0 1 522.113 696)">
   <path d="M67.3828-63.3789C67.3828-64.9902 66.1621-66.0645 64.1602-66.0645L11.0352-66.0645C8.98438-66.0645 7.8125-65.0391 7.8125-63.3789C7.8125-62.5488 8.10547-61.9629 8.64258-60.8887L34.7168-6.5918C35.4492-5.12695 36.3281-4.3457 37.5977-4.3457C38.8672-4.3457 39.7461-5.12695 40.4785-6.5918L66.5527-60.8887C67.041-61.9629 67.3828-62.5488 67.3828-63.3789Z"/>
  </g>
 </g>
</svg>
