<?xml version="1.0" encoding="UTF-8"?>
<!--Generator: Apple Native CoreSVG 149-->
<!DOCTYPE svg
PUBLIC "-//W3C//DTD SVG 1.1//EN"
       "http://www.w3.org/Graphics/SVG/1.1/DTD/svg11.dtd">
<svg version="1.1" xmlns="http://www.w3.org/2000/svg" xmlns:xlink="http://www.w3.org/1999/xlink" width="3300" height="2200">
 <!--glyph: "uni100127.medium", point size: 100.000000, font version: "Version 16.0d12e3", template writer version: "8"-->
 <g id="Notes">
  <rect height="2200" id="artboard" style="fill:white;opacity:1" width="3300" x="0" y="0"/>
  <line id="" style="fill:none;stroke:black;opacity:1;stroke-width:0.5;" x1="263" x2="3036" y1="292" y2="292"/>
  <text style="stroke:none;fill:black;font-family:-apple-system,&quot;SF Pro Display&quot;,&quot;SF Pro Text&quot;,Helvetica,sans-serif;font-weight:bold;" transform="matrix(1 0 0 1 263 322)">Weight/Scale Variations</text>
  <text style="stroke:none;fill:black;font-family:-apple-system,&quot;SF Pro Display&quot;,&quot;SF Pro Text&quot;,Helvetica,sans-serif;text-anchor:middle;" transform="matrix(1 0 0 1 559.711 322)">Ultralight</text>
  <text style="stroke:none;fill:black;font-family:-apple-system,&quot;SF Pro Display&quot;,&quot;SF Pro Text&quot;,Helvetica,sans-serif;text-anchor:middle;" transform="matrix(1 0 0 1 856.422 322)">Thin</text>
  <text style="stroke:none;fill:black;font-family:-apple-system,&quot;SF Pro Display&quot;,&quot;SF Pro Text&quot;,Helvetica,sans-serif;text-anchor:middle;" transform="matrix(1 0 0 1 1153.13 322)">Light</text>
  <text style="stroke:none;fill:black;font-family:-apple-system,&quot;SF Pro Display&quot;,&quot;SF Pro Text&quot;,Helvetica,sans-serif;text-anchor:middle;" transform="matrix(1 0 0 1 1449.84 322)">Regular</text>
  <text style="stroke:none;fill:black;font-family:-apple-system,&quot;SF Pro Display&quot;,&quot;SF Pro Text&quot;,Helvetica,sans-serif;text-anchor:middle;" transform="matrix(1 0 0 1 1746.56 322)">Medium</text>
  <text style="stroke:none;fill:black;font-family:-apple-system,&quot;SF Pro Display&quot;,&quot;SF Pro Text&quot;,Helvetica,sans-serif;text-anchor:middle;" transform="matrix(1 0 0 1 2043.27 322)">Semibold</text>
  <text style="stroke:none;fill:black;font-family:-apple-system,&quot;SF Pro Display&quot;,&quot;SF Pro Text&quot;,Helvetica,sans-serif;text-anchor:middle;" transform="matrix(1 0 0 1 2339.98 322)">Bold</text>
  <text style="stroke:none;fill:black;font-family:-apple-system,&quot;SF Pro Display&quot;,&quot;SF Pro Text&quot;,Helvetica,sans-serif;text-anchor:middle;" transform="matrix(1 0 0 1 2636.69 322)">Heavy</text>
  <text style="stroke:none;fill:black;font-family:-apple-system,&quot;SF Pro Display&quot;,&quot;SF Pro Text&quot;,Helvetica,sans-serif;text-anchor:middle;" transform="matrix(1 0 0 1 2933.4 322)">Black</text>
  <line id="" style="fill:none;stroke:black;opacity:1;stroke-width:0.5;" x1="263" x2="3036" y1="1903" y2="1903"/>
  <g id="" transform="matrix(1 0 0 1 263 1933)">
   <path d="M9.24805 0.830078C13.5547 0.830078 17.1387-2.74414 17.1387-7.05078C17.1387-11.3574 13.5449-14.9316 9.23828-14.9316C4.94141-14.9316 1.36719-11.3574 1.36719-7.05078C1.36719-2.74414 4.95117 0.830078 9.24805 0.830078ZM9.24805-0.654297C5.70312-0.654297 2.87109-3.49609 2.87109-7.05078C2.87109-10.6055 5.69336-13.4473 9.23828-13.4473C12.793-13.4473 15.6348-10.6055 15.6445-7.05078C15.6543-3.49609 12.8027-0.654297 9.24805-0.654297ZM9.22852-3.62305C9.69727-3.62305 9.9707-3.93555 9.9707-4.45312L9.9707-6.31836L12.002-6.31836C12.5-6.31836 12.832-6.57227 12.832-7.04102C12.832-7.51953 12.5195-7.7832 12.002-7.7832L9.9707-7.7832L9.9707-9.81445C9.9707-10.332 9.69727-10.6543 9.22852-10.6543C8.75977-10.6543 8.50586-10.3125 8.50586-9.81445L8.50586-7.7832L6.49414-7.7832C5.97656-7.7832 5.64453-7.51953 5.64453-7.04102C5.64453-6.57227 5.99609-6.31836 6.49414-6.31836L8.50586-6.31836L8.50586-4.45312C8.50586-3.95508 8.75977-3.62305 9.22852-3.62305Z"/>
  </g>
  <g id="" transform="matrix(1 0 0 1 281.506 1933)">
   <path d="M11.709 2.91016C17.1582 2.91016 21.6699-1.61133 21.6699-7.05078C21.6699-12.5 17.1484-17.0117 11.6992-17.0117C6.25977-17.0117 1.74805-12.5 1.74805-7.05078C1.74805-1.61133 6.26953 2.91016 11.709 2.91016ZM11.709 1.25C7.09961 1.25 3.41797-2.44141 3.41797-7.05078C3.41797-11.6602 7.08984-15.3516 11.6992-15.3516C16.3086-15.3516 20-11.6602 20.0098-7.05078C20.0195-2.44141 16.3184 1.25 11.709 1.25ZM11.6797-2.66602C12.207-2.66602 12.5098-3.01758 12.5098-3.59375L12.5098-6.23047L15.3223-6.23047C15.8691-6.23047 16.25-6.51367 16.25-7.03125C16.25-7.55859 15.8887-7.86133 15.3223-7.86133L12.5098-7.86133L12.5098-10.6836C12.5098-11.25 12.207-11.6113 11.6797-11.6113C11.1621-11.6113 10.8789-11.2305 10.8789-10.6836L10.8789-7.86133L8.07617-7.86133C7.50977-7.86133 7.13867-7.55859 7.13867-7.03125C7.13867-6.51367 7.5293-6.23047 8.07617-6.23047L10.8789-6.23047L10.8789-3.59375C10.8789-3.03711 11.1621-2.66602 11.6797-2.66602Z"/>
  </g>
  <g id="" transform="matrix(1 0 0 1 304.924 1933)">
   <path d="M14.9707 5.66406C21.9336 5.66406 27.6953-0.0976562 27.6953-7.05078C27.6953-14.0137 21.9238-19.7754 14.9609-19.7754C8.00781-19.7754 2.25586-14.0137 2.25586-7.05078C2.25586-0.0976562 8.01758 5.66406 14.9707 5.66406ZM14.9707 3.84766C8.93555 3.84766 4.08203-1.01562 4.08203-7.05078C4.08203-13.0957 8.92578-17.9492 14.9609-17.9492C21.0059-17.9492 25.8594-13.0957 25.8691-7.05078C25.8789-1.01562 21.0156 3.84766 14.9707 3.84766ZM14.9414-1.38672C15.5176-1.38672 15.8594-1.77734 15.8594-2.38281L15.8594-6.13281L19.7754-6.13281C20.3711-6.13281 20.7812-6.46484 20.7812-7.02148C20.7812-7.59766 20.3906-7.93945 19.7754-7.93945L15.8594-7.93945L15.8594-11.8652C15.8594-12.4805 15.5176-12.8711 14.9414-12.8711C14.375-12.8711 14.0527-12.4609 14.0527-11.8652L14.0527-7.93945L10.1465-7.93945C9.53125-7.93945 9.13086-7.59766 9.13086-7.02148C9.13086-6.46484 9.55078-6.13281 10.1465-6.13281L14.0527-6.13281L14.0527-2.38281C14.0527-1.79688 14.375-1.38672 14.9414-1.38672Z"/>
  </g>
  <text style="stroke:none;fill:black;font-family:-apple-system,&quot;SF Pro Display&quot;,&quot;SF Pro Text&quot;,Helvetica,sans-serif;font-weight:bold;" transform="matrix(1 0 0 1 263 1953)">Design Variations</text>
  <text style="stroke:none;fill:black;font-family:-apple-system,&quot;SF Pro Display&quot;,&quot;SF Pro Text&quot;,Helvetica,sans-serif;" transform="matrix(1 0 0 1 263 1971)">Symbols are supported in up to nine weights and three scales.</text>
  <text style="stroke:none;fill:black;font-family:-apple-system,&quot;SF Pro Display&quot;,&quot;SF Pro Text&quot;,Helvetica,sans-serif;" transform="matrix(1 0 0 1 263 1989)">For optimal layout with text and other symbols, vertically align</text>
  <text style="stroke:none;fill:black;font-family:-apple-system,&quot;SF Pro Display&quot;,&quot;SF Pro Text&quot;,Helvetica,sans-serif;" transform="matrix(1 0 0 1 263 2007)">symbols with the adjacent text.</text>
  <line id="" style="fill:none;stroke:#00AEEF;stroke-width:0.5;opacity:1.0;" x1="776" x2="776" y1="1919" y2="1933"/>
  <g id="" transform="matrix(1 0 0 1 776 1933)">
   <path d="M3.31055 0.126953C3.82812 0.126953 4.08203-0.0683594 4.26758-0.605469L5.52734-4.0625L11.2891-4.0625L12.5488-0.605469C12.7344-0.0683594 12.9883 0.126953 13.4961 0.126953C14.0137 0.126953 14.3457-0.185547 14.3457-0.673828C14.3457-0.839844 14.3164-0.986328 14.2383-1.20117L9.6582-13.3887C9.43359-13.9941 9.0332-14.2871 8.4082-14.2871C7.80273-14.2871 7.39258-13.9941 7.17773-13.3984L2.59766-1.19141C2.51953-0.976562 2.49023-0.830078 2.49023-0.664062C2.49023-0.175781 2.80273 0.126953 3.31055 0.126953ZM6.00586-5.53711L8.37891-12.1094L8.42773-12.1094L10.8008-5.53711Z"/>
  </g>
  <line id="" style="fill:none;stroke:#00AEEF;stroke-width:0.5;opacity:1.0;" x1="792.836" x2="792.836" y1="1919" y2="1933"/>
  <text style="stroke:none;fill:black;font-family:-apple-system,&quot;SF Pro Display&quot;,&quot;SF Pro Text&quot;,Helvetica,sans-serif;font-weight:bold;" transform="matrix(1 0 0 1 776 1953)">Margins</text>
  <text style="stroke:none;fill:black;font-family:-apple-system,&quot;SF Pro Display&quot;,&quot;SF Pro Text&quot;,Helvetica,sans-serif;" transform="matrix(1 0 0 1 776 1971)">Leading and trailing margins on the left and right side of each symbol</text>
  <text style="stroke:none;fill:black;font-family:-apple-system,&quot;SF Pro Display&quot;,&quot;SF Pro Text&quot;,Helvetica,sans-serif;" transform="matrix(1 0 0 1 776 1989)">can be adjusted by modifying the x-location of the margin guidelines.</text>
  <text style="stroke:none;fill:black;font-family:-apple-system,&quot;SF Pro Display&quot;,&quot;SF Pro Text&quot;,Helvetica,sans-serif;" transform="matrix(1 0 0 1 776 2007)">Modifications are automatically applied proportionally to all</text>
  <text style="stroke:none;fill:black;font-family:-apple-system,&quot;SF Pro Display&quot;,&quot;SF Pro Text&quot;,Helvetica,sans-serif;" transform="matrix(1 0 0 1 776 2025)">scales and weights.</text>
  <g id="" transform="matrix(1 0 0 1 1289 1933)">
   <path d="M2.8418 1.86523L4.54102 3.57422C5.40039 4.44336 6.38672 4.38477 7.31445 3.35938L17.4902-7.85156C17.7539-7.76367 18.0273-7.7832 18.3398-7.8418L19.4043-8.03711L20.0684-7.36328L20.0293-6.80664C19.9902-6.30859 20.1172-5.92773 20.6055-5.44922L21.3672-4.70703C21.8457-4.22852 22.4609-4.19922 22.9297-4.66797L25.8398-7.58789C26.3086-8.05664 26.2891-8.65234 25.8105-9.13086L25.0391-9.89258C24.5605-10.3711 24.1895-10.5273 23.7109-10.4883L23.1348-10.4395L22.4902-11.0742L22.7344-12.1973C22.8613-12.7637 22.7051-13.2031 22.1191-13.7891L19.9219-15.9766C16.582-19.2969 12.1484-19.2188 9.25781-16.3281C8.83789-15.918 8.80859-15.3418 9.04297-14.9512C9.27734-14.5898 9.73633-14.3555 10.3809-14.5215C11.8457-14.8633 13.3691-14.9219 14.7949-13.9844L14.209-12.5293C14.0137-12.0508 13.9844-11.6504 14.1113-11.2891L3.04688-0.898438C2.06055 0.0195312 1.98242 0.996094 2.8418 1.86523ZM10.752-15.957C13.1836-17.7344 16.4746-17.4316 18.7012-15.2051L21.1328-12.793C21.3672-12.5586 21.4062-12.373 21.3379-12.0312L21.0156-10.5469L22.5195-9.0625L23.5059-9.12109C23.7598-9.13086 23.8379-9.11133 24.0332-8.91602L24.6094-8.33984L22.168-5.89844L21.5918-6.47461C21.3965-6.66992 21.3672-6.74805 21.377-7.01172L21.4453-7.98828L19.9512-9.47266L18.4277-9.21875C18.1055-9.15039 17.959-9.17969 17.7148-9.41406L15.7129-11.416C15.459-11.6504 15.4297-11.8164 15.5859-12.1875L16.4648-14.2773C14.9023-15.7324 12.8711-16.3574 10.8398-15.7617C10.6836-15.7227 10.625-15.8496 10.752-15.957ZM5.27344 2.30469L4.10156 1.14258C3.63281 0.683594 3.74023 0.341797 4.14062-0.0195312L14.9512-10.1953L16.416-8.71094L6.42578 2.27539C6.07422 2.67578 5.74219 2.77344 5.27344 2.30469Z"/>
  </g>
  <text style="stroke:none;fill:black;font-family:-apple-system,&quot;SF Pro Display&quot;,&quot;SF Pro Text&quot;,Helvetica,sans-serif;font-weight:bold;" transform="matrix(1 0 0 1 1289 1953)">Exporting</text>
  <text style="stroke:none;fill:black;font-family:-apple-system,&quot;SF Pro Display&quot;,&quot;SF Pro Text&quot;,Helvetica,sans-serif;" transform="matrix(1 0 0 1 1289 1971)">Symbols should be outlined when exporting to ensure the</text>
  <text style="stroke:none;fill:black;font-family:-apple-system,&quot;SF Pro Display&quot;,&quot;SF Pro Text&quot;,Helvetica,sans-serif;" transform="matrix(1 0 0 1 1289 1989)">design is preserved when submitting to Xcode.</text>
  <text id="template-version" style="stroke:none;fill:black;font-family:-apple-system,&quot;SF Pro Display&quot;,&quot;SF Pro Text&quot;,Helvetica,sans-serif;text-anchor:end;" transform="matrix(1 0 0 1 3036 1933)">Template v.2.0</text>
  <text style="stroke:none;fill:black;font-family:-apple-system,&quot;SF Pro Display&quot;,&quot;SF Pro Text&quot;,Helvetica,sans-serif;text-anchor:end;" transform="matrix(1 0 0 1 3036 1951)">Requires Xcode 12 or greater</text>
  <text style="stroke:none;fill:black;font-family:-apple-system,&quot;SF Pro Display&quot;,&quot;SF Pro Text&quot;,Helvetica,sans-serif;text-anchor:end;" transform="matrix(1 0 0 1 3036 1969)">Generated from arrowtriangle.right.fill</text>
  <text style="stroke:none;fill:black;font-family:-apple-system,&quot;SF Pro Display&quot;,&quot;SF Pro Text&quot;,Helvetica,sans-serif;text-anchor:end;" transform="matrix(1 0 0 1 3036 1987)">Typeset at 100 points</text>
  <text style="stroke:none;fill:black;font-family:-apple-system,&quot;SF Pro Display&quot;,&quot;SF Pro Text&quot;,Helvetica,sans-serif;" transform="matrix(1 0 0 1 263 726)">Small</text>
  <text style="stroke:none;fill:black;font-family:-apple-system,&quot;SF Pro Display&quot;,&quot;SF Pro Text&quot;,Helvetica,sans-serif;" transform="matrix(1 0 0 1 263 1156)">Medium</text>
  <text style="stroke:none;fill:black;font-family:-apple-system,&quot;SF Pro Display&quot;,&quot;SF Pro Text&quot;,Helvetica,sans-serif;" transform="matrix(1 0 0 1 263 1586)">Large</text>
 </g>
 <g id="Guides">
  <g id="H-reference" style="fill:#27AAE1;stroke:none;" transform="matrix(1 0 0 1 339 696)">
   <path d="M0.976562 0L3.66211 0L12.9883-24.4629L45.752-24.4629L55.127 0L57.7637 0L30.6152-70.459L28.125-70.459ZM29.3457-67.1387L29.4434-67.1387L44.873-26.709L13.8672-26.709Z"/>
  </g>
  <line id="Baseline-S" style="fill:none;stroke:#27AAE1;opacity:1;stroke-width:0.5;" x1="263" x2="3036" y1="696" y2="696"/>
  <line id="Capline-S" style="fill:none;stroke:#27AAE1;opacity:1;stroke-width:0.5;" x1="263" x2="3036" y1="625.541" y2="625.541"/>
  <g id="H-reference" style="fill:#27AAE1;stroke:none;" transform="matrix(1 0 0 1 339 1126)">
   <path d="M0.976562 0L3.66211 0L12.9883-24.4629L45.752-24.4629L55.127 0L57.7637 0L30.6152-70.459L28.125-70.459ZM29.3457-67.1387L29.4434-67.1387L44.873-26.709L13.8672-26.709Z"/>
  </g>
  <line id="Baseline-M" style="fill:none;stroke:#27AAE1;opacity:1;stroke-width:0.5;" x1="263" x2="3036" y1="1126" y2="1126"/>
  <line id="Capline-M" style="fill:none;stroke:#27AAE1;opacity:1;stroke-width:0.5;" x1="263" x2="3036" y1="1055.54" y2="1055.54"/>
  <g id="H-reference" style="fill:#27AAE1;stroke:none;" transform="matrix(1 0 0 1 339 1556)">
   <path d="M0.976562 0L3.66211 0L12.9883-24.4629L45.752-24.4629L55.127 0L57.7637 0L30.6152-70.459L28.125-70.459ZM29.3457-67.1387L29.4434-67.1387L44.873-26.709L13.8672-26.709Z"/>
  </g>
  <line id="Baseline-L" style="fill:none;stroke:#27AAE1;opacity:1;stroke-width:0.5;" x1="263" x2="3036" y1="1556" y2="1556"/>
  <line id="Capline-L" style="fill:none;stroke:#27AAE1;opacity:1;stroke-width:0.5;" x1="263" x2="3036" y1="1485.54" y2="1485.54"/>
  <line id="left-margin" style="fill:none;stroke:#00AEEF;stroke-width:0.5;opacity:1.0;" x1="1398.79" x2="1398.79" y1="1030.79" y2="1150.12"/>
  <line id="right-margin" style="fill:none;stroke:#00AEEF;stroke-width:0.5;opacity:1.0;" x1="1500.89" x2="1500.89" y1="1030.79" y2="1150.12"/>
 </g>
 <g id="Symbols">
  <g id="Black-L" transform="matrix(1 0 0 1 2865.7 1556)">
   <path d="M28.418 16.5039C31.5918 16.5039 34.3262 15.2832 38.4766 13.3301L112.549-22.0703C119.043-25.1953 122.51-29.4922 122.51-35.2051C122.51-40.8691 119.043-45.166 112.549-48.291L38.4766-83.6914C34.3262-85.6934 31.5918-86.9141 28.3691-86.9141C21.875-86.9141 16.0645-81.8848 16.0645-73.3398L16.1133 2.92969C16.1133 11.5234 21.875 16.5039 28.418 16.5039Z"/>
  </g>
  <g id="Heavy-L" transform="matrix(1 0 0 1 2569.45 1556)">
   <path d="M27.0996 16.0645C30.0781 16.0645 32.6172 14.8926 36.3281 13.1348L112.5-23.3887C118.555-26.3184 121.582-30.127 121.582-35.2051C121.582-40.2344 118.555-44.043 112.5-46.9727L36.3281-83.4961C32.5684-85.3027 30.0781-86.4746 27.0996-86.4746C21.1426-86.4746 16.0645-81.8848 16.0645-74.1699L16.1133 3.75977C16.1133 11.5234 21.1426 16.0645 27.0996 16.0645Z"/>
  </g>
  <g id="Bold-L" transform="matrix(1 0 0 1 2273.25 1556)">
   <path d="M25.6836 15.5762C28.418 15.5762 30.6641 14.502 33.9355 12.8906L112.451-24.8535C118.066-27.5879 120.557-30.8105 120.557-35.2051C120.557-39.5508 118.066-42.8223 112.451-45.5078L33.9355-83.3008C30.6152-84.8633 28.3691-85.9863 25.6348-85.9863C20.3125-85.9863 16.0645-81.8848 16.0645-75.0977L16.1133 4.73633C16.1133 11.4746 20.3125 15.5762 25.6836 15.5762Z"/>
  </g>
  <g id="Semibold-L" transform="matrix(1 0 0 1 1976.91 1556)">
   <path d="M24.707 15.2832C27.2461 15.2832 29.3457 14.209 32.3242 12.7441L112.402-25.8789C117.676-28.418 119.873-31.2988 119.873-35.2051C119.873-39.0625 117.676-41.9434 112.402-44.5312L32.3242-83.1543C29.2969-84.5703 27.1973-85.6445 24.6582-85.6445C19.7266-85.6445 16.0645-81.8848 16.0645-75.7324L16.1133 5.37109C16.1133 11.4746 19.7754 15.2832 24.707 15.2832Z"/>
  </g>
  <g id="Medium-L" transform="matrix(1 0 0 1 1680.47 1556)">
   <path d="M23.9258 14.9902C26.3672 14.9902 28.3203 13.9648 31.0547 12.6465L112.354-26.6113C117.383-29.1016 119.336-31.6895 119.336-35.2051C119.336-38.7207 117.383-41.3086 112.354-43.75L31.0547-83.0078C28.2715-84.375 26.3184-85.4004 23.877-85.4004C19.2871-85.4004 16.0645-81.8848 16.0645-76.2207L16.1133 5.85938C16.1133 11.4746 19.3359 14.9902 23.9258 14.9902Z"/>
  </g>
  <g id="Regular-L" transform="matrix(1 0 0 1 1384.1 1556)">
   <path d="M22.9492 14.6973C25.2441 14.6973 27.002 13.7207 29.4434 12.5L112.305-27.6367C117.041-29.9316 118.604-32.1289 118.604-35.2051C118.604-38.2324 117.041-40.4297 112.305-42.7734L29.4434-82.8613C26.9531-84.082 25.1953-85.0586 22.9004-85.0586C18.7012-85.0586 16.0645-81.8848 16.0645-76.8555L16.1133 6.49414C16.1133 11.4746 18.75 14.6973 22.9492 14.6973Z"/>
  </g>
  <g id="Light-L" transform="matrix(1 0 0 1 1087.56 1556)">
   <path d="M21.9727 14.3555C23.877 14.3555 25.3418 13.5742 27.4902 12.5L113.037-28.7598C116.797-30.6152 118.311-32.5195 118.311-35.2051C118.311-37.8418 116.797-39.7461 113.037-41.6016L27.4902-82.8613C25.293-83.9355 23.877-84.7168 21.9727-84.7168C18.3594-84.7168 16.0645-82.0312 16.0645-77.6855L16.1133 7.32422C16.1133 11.6699 18.4082 14.3555 21.9727 14.3555Z"/>
  </g>
  <g id="Thin-L" transform="matrix(1 0 0 1 791.066 1556)">
   <path d="M20.7031 13.916C22.1191 13.916 23.0957 13.3789 24.9023 12.5L113.965-30.2734C116.504-31.543 117.871-33.0566 117.871-35.2051C117.871-37.3535 116.504-38.8184 113.965-40.0879L24.9023-82.8613C23.0957-83.7402 22.1191-84.2773 20.7031-84.2773C17.9199-84.2773 16.0645-82.2754 16.0645-78.8086L16.1133 8.44727C16.1133 11.8652 17.9199 13.916 20.7031 13.916Z"/>
  </g>
  <g id="Ultralight-L" transform="matrix(1 0 0 1 494.477 1556)">
   <path d="M20.0195 13.6719C21.1914 13.6719 21.9727 13.2324 23.584 12.5L114.404-31.0547C116.357-32.0312 117.627-33.3008 117.627-35.2051C117.627-37.0605 116.357-38.3301 114.404-39.3066L23.584-82.8613C21.9727-83.6426 21.1914-84.0332 20.0195-84.0332C17.6758-84.0332 16.0645-82.373 16.0645-79.3945L16.0645 8.98438C16.0645 12.0117 17.6758 13.6719 20.0195 13.6719Z"/>
  </g>
  <g id="Black-M" transform="matrix(1 0 0 1 2880.42 1126)">
   <path d="M23.2422 5.27344C25.7812 5.27344 28.0273 4.3457 31.6406 2.63672L87.6465-23.877C92.7734-26.3184 95.9961-30.1758 95.9961-35.2051C95.9961-40.2344 92.7734-44.0918 87.6465-46.5332L31.6406-73.0469C28.0273-74.7559 25.7812-75.6836 23.2422-75.6836C17.7734-75.6836 12.4512-71.4844 12.4512-64.0625L12.4512-6.34766C12.4512 1.07422 17.7734 5.27344 23.2422 5.27344Z"/>
  </g>
  <g id="Heavy-M" transform="matrix(1 0 0 1 2584.15 1126)">
   <path d="M22.0703 4.88281C24.5117 4.88281 26.6113 3.95508 29.7852 2.44141L87.4023-25C92.334-27.3438 95.0684-30.7617 95.0684-35.2051C95.0684-39.6484 92.334-43.0176 87.4023-45.3613L29.7852-72.8516C26.5625-74.3652 24.4629-75.293 22.0703-75.293C17.041-75.293 12.4512-71.4355 12.4512-64.7461L12.4512-5.61523C12.4512 1.02539 17.041 4.88281 22.0703 4.88281Z"/>
  </g>
  <g id="Bold-M" transform="matrix(1 0 0 1 2287.95 1126)">
   <path d="M20.8008 4.44336C23.0469 4.44336 24.9512 3.56445 27.7832 2.19727L87.1582-26.2695C91.7969-28.5156 94.043-31.3965 94.043-35.2051C94.043-39.0137 91.7969-41.8945 87.1582-44.0918L27.7832-72.6074C24.9512-73.9746 23.0469-74.8535 20.752-74.8535C16.2109-74.8535 12.4512-71.3867 12.4512-65.5273L12.5-4.83398C12.5 0.976562 16.2598 4.44336 20.8008 4.44336Z"/>
  </g>
  <g id="Semibold-M" transform="matrix(1 0 0 1 1991.61 1126)">
   <path d="M19.9219 4.15039C22.0703 4.15039 23.8281 3.27148 26.3672 2.05078L86.9629-27.1484C91.4551-29.3457 93.3594-31.8359 93.3594-35.2051C93.3594-38.5742 91.4551-41.0645 86.9629-43.2617L26.3672-72.4609C23.8281-73.6816 22.0215-74.5605 19.873-74.5605C15.6738-74.5605 12.4512-71.3379 12.4512-66.0645L12.5-4.29688C12.5 0.927734 15.7227 4.15039 19.9219 4.15039Z"/>
  </g>
  <g id="Medium-M" transform="matrix(1 0 0 1 1695.16 1126)">
   <path d="M19.2383 3.95508C21.2891 3.95508 22.998 3.07617 25.293 1.9043L86.8164-27.832C91.1621-29.9316 92.8223-32.1777 92.8223-35.2051C92.8223-38.2324 91.1621-40.4785 86.8164-42.5781L25.293-72.3145C22.9492-73.4375 21.2891-74.3164 19.1895-74.3164C15.2344-74.3164 12.4512-71.3379 12.4512-66.5039L12.5-3.90625C12.5 0.927734 15.2832 3.95508 19.2383 3.95508Z"/>
  </g>
  <g id="Regular-M" transform="matrix(1 0 0 1 1398.79 1126)">
   <path d="M18.3594 3.61328C20.3125 3.61328 21.875 2.7832 23.9258 1.75781L86.6699-28.6621C90.8203-30.7129 92.1387-32.6172 92.1387-35.2051C92.1387-37.793 90.8203-39.6484 86.6699-41.6992L23.9258-72.168C21.8262-73.1934 20.2637-74.0234 18.3105-74.0234C14.6973-74.0234 12.4512-71.2891 12.4512-67.041L12.5-3.36914C12.5 0.878906 14.7461 3.61328 18.3594 3.61328Z"/>
  </g>
  <g id="Light-M" transform="matrix(1 0 0 1 1102.23 1126)">
   <path d="M17.4805 3.32031C19.1406 3.32031 20.3613 2.63672 22.168 1.75781L87.2559-29.6875C90.625-31.3477 91.8457-32.959 91.8457-35.2051C91.8457-37.4512 90.625-39.0625 87.2559-40.6738L22.168-72.168C20.3613-73.0469 19.0918-73.7305 17.4316-73.7305C14.4043-73.7305 12.4512-71.4355 12.4512-67.7734L12.5-2.63672C12.5 1.02539 14.4043 3.32031 17.4805 3.32031Z"/>
  </g>
  <g id="Thin-M" transform="matrix(1 0 0 1 805.714 1126)">
   <path d="M16.3086 2.92969C17.5293 2.92969 18.4082 2.44141 19.873 1.75781L88.0859-31.0547C90.3809-32.1777 91.4062-33.4473 91.4062-35.2051C91.4062-36.9629 90.3809-38.1836 88.0859-39.3066L19.873-72.168C18.3594-72.8516 17.5293-73.3398 16.3086-73.3398C13.9648-73.3398 12.4512-71.6309 12.4512-68.75L12.4512-1.61133C12.4512 1.2207 13.9648 2.92969 16.3086 2.92969Z"/>
  </g>
  <g id="Ultralight-M" transform="matrix(1 0 0 1 509.101 1126)">
   <path d="M15.7227 2.73438C16.6992 2.73438 17.3828 2.39258 18.6523 1.75781L88.5254-31.7871C90.2344-32.6172 91.2109-33.6426 91.2109-35.2051C91.2109-36.7188 90.2344-37.793 88.5254-38.623L18.6523-72.168C17.3828-72.7539 16.6992-73.1445 15.7227-73.1445C13.7695-73.1445 12.4512-71.7285 12.4512-69.2871L12.4512-1.12305C12.4512 1.31836 13.7695 2.73438 15.7227 2.73438Z"/>
  </g>
  <g id="Black-S" transform="matrix(1 0 0 1 2891.92 696)">
   <path d="M18.1152-3.51562C20.1172-3.51562 21.875-4.24805 24.6582-5.56641L68.6523-26.416C72.6562-28.3203 75.1465-31.2988 75.1465-35.2051C75.1465-39.1113 72.6562-42.0898 68.6523-43.9941L24.6582-64.8438C21.875-66.1621 20.1172-66.8945 18.1152-66.8945C13.8672-66.8945 9.76562-63.623 9.76562-57.8613L9.76562-12.5488C9.76562-6.78711 13.8672-3.51562 18.1152-3.51562Z"/>
  </g>
  <g id="Heavy-S" transform="matrix(1 0 0 1 2595.55 696)">
   <path d="M17.334-3.75977C19.2871-3.75977 20.9473-4.54102 23.4863-5.71289L68.4082-27.1484C72.3145-29.0527 74.4629-31.6895 74.4629-35.2051C74.4629-38.7207 72.3145-41.3574 68.4082-43.2617L23.4863-64.6973C20.8984-65.8691 19.2383-66.6504 17.334-66.6504C13.3301-66.6504 9.76562-63.5742 9.76562-58.3008L9.76562-12.1094C9.76562-6.83594 13.3789-3.75977 17.334-3.75977Z"/>
  </g>
  <g id="Bold-S" transform="matrix(1 0 0 1 2299.21 696)">
   <path d="M16.4551-4.05273C18.3105-4.05273 19.873-4.83398 22.1191-5.9082L68.1152-28.0273C71.9727-29.8828 73.7305-32.1777 73.7305-35.2051C73.7305-38.2324 71.9727-40.5762 68.1152-42.3828L22.1191-64.502C19.873-65.5762 18.3105-66.3574 16.4551-66.3574C12.793-66.3574 9.76562-63.5254 9.76562-58.8379L9.76562-11.5723C9.76562-6.88477 12.793-4.05273 16.4551-4.05273Z"/>
  </g>
  <g id="Semibold-S" transform="matrix(1 0 0 1 2002.76 696)">
   <path d="M15.8691-4.29688C17.6758-4.29688 19.1406-5.0293 21.1914-6.05469L67.9199-28.6133C71.6797-30.4199 73.1934-32.4707 73.1934-35.2051C73.1934-37.9395 71.6797-39.9902 67.9199-41.7969L21.1914-64.3555C19.1406-65.3809 17.627-66.1133 15.8203-66.1133C12.3535-66.1133 9.76562-63.4766 9.76562-59.1797L9.81445-11.2305C9.81445-6.93359 12.4023-4.29688 15.8691-4.29688Z"/>
  </g>
  <g id="Medium-S" transform="matrix(1 0 0 1 1706.25 696)">
   <path d="M15.3809-4.44336C17.1387-4.44336 18.6035-5.17578 20.5078-6.10352L67.7734-29.0527C71.5332-30.8594 72.8027-32.7148 72.8027-35.2051C72.8027-37.6953 71.5332-39.5508 67.7734-41.3574L20.5078-64.3066C18.5547-65.2344 17.1387-65.9668 15.3809-65.9668C12.0605-65.9668 9.76562-63.4277 9.76562-59.4238L9.81445-10.9863C9.81445-6.98242 12.1094-4.44336 15.3809-4.44336Z"/>
  </g>
  <g id="Regular-S" transform="matrix(1 0 0 1 1409.78 696)">
   <path d="M14.7949-4.63867C16.5039-4.63867 17.8711-5.37109 19.5801-6.25L67.5781-29.5898C71.2402-31.3965 72.3145-33.0078 72.3145-35.2051C72.3145-37.4023 71.2402-39.0137 67.5781-40.8203L19.5801-64.1602C17.8223-65.0391 16.4551-65.7715 14.7461-65.7715C11.6699-65.7715 9.76562-63.3789 9.76562-59.7656L9.81445-10.6445C9.81445-7.03125 11.7188-4.63867 14.7949-4.63867Z"/>
  </g>
  <g id="Light-S" transform="matrix(1 0 0 1 1113.19 696)">
   <path d="M14.0137-4.88281C15.4297-4.88281 16.5527-5.51758 18.0664-6.25L68.1152-30.5176C71.0938-31.9336 72.0703-33.3008 72.0703-35.2051C72.0703-37.1094 71.0938-38.4766 68.1152-39.8926L18.0664-64.1602C16.5039-64.8926 15.4297-65.5273 14.0137-65.5273C11.377-65.5273 9.76562-63.5254 9.76562-60.4492L9.81445-9.96094C9.81445-6.88477 11.4258-4.88281 14.0137-4.88281Z"/>
  </g>
  <g id="Thin-S" transform="matrix(1 0 0 1 816.652 696)">
   <path d="M12.9883-5.22461C14.0137-5.22461 14.7949-5.66406 16.0156-6.25L68.8477-31.6895C70.8496-32.666 71.7285-33.7402 71.7285-35.2051C71.7285-36.6699 70.8496-37.7441 68.8477-38.7207L16.0156-64.1602C14.7949-64.7461 14.0137-65.1855 12.9883-65.1855C11.0352-65.1855 9.76562-63.7207 9.76562-61.3281L9.76562-9.08203C9.76562-6.68945 11.0352-5.22461 12.9883-5.22461Z"/>
  </g>
  <g id="Ultralight-S" transform="matrix(1 0 0 1 520.038 696)">
   <path d="M12.4512-5.41992C13.2812-5.41992 13.8672-5.76172 14.9414-6.25L69.2383-32.3242C70.752-33.0566 71.5332-33.9355 71.5332-35.2051C71.5332-36.4746 70.752-37.3535 69.2383-38.0859L14.9414-64.1602C13.8672-64.6484 13.2812-64.9902 12.4512-64.9902C10.8398-64.9902 9.76562-63.8184 9.76562-61.7676L9.76562-8.64258C9.76562-6.5918 10.8398-5.41992 12.4512-5.41992Z"/>
  </g>
 </g>
</svg>
