<?xml version="1.0" encoding="UTF-8"?>
<!--Generator: Apple Native CoreSVG 149-->
<!DOCTYPE svg
PUBLIC "-//W3C//DTD SVG 1.1//EN"
       "http://www.w3.org/Graphics/SVG/1.1/DTD/svg11.dtd">
<svg version="1.1" xmlns="http://www.w3.org/2000/svg" xmlns:xlink="http://www.w3.org/1999/xlink" width="3300" height="2200">
 <!--glyph: "uni10017C.medium", point size: 100.000000, font version: "Version 16.0d12e3", template writer version: "8"-->
 <g id="Notes">
  <rect height="2200" id="artboard" style="fill:white;opacity:1" width="3300" x="0" y="0"/>
  <line id="" style="fill:none;stroke:black;opacity:1;stroke-width:0.5;" x1="263" x2="3036" y1="292" y2="292"/>
  <text style="stroke:none;fill:black;font-family:-apple-system,&quot;SF Pro Display&quot;,&quot;SF Pro Text&quot;,Helvetica,sans-serif;font-weight:bold;" transform="matrix(1 0 0 1 263 322)">Weight/Scale Variations</text>
  <text style="stroke:none;fill:black;font-family:-apple-system,&quot;SF Pro Display&quot;,&quot;SF Pro Text&quot;,Helvetica,sans-serif;text-anchor:middle;" transform="matrix(1 0 0 1 559.711 322)">Ultralight</text>
  <text style="stroke:none;fill:black;font-family:-apple-system,&quot;SF Pro Display&quot;,&quot;SF Pro Text&quot;,Helvetica,sans-serif;text-anchor:middle;" transform="matrix(1 0 0 1 856.422 322)">Thin</text>
  <text style="stroke:none;fill:black;font-family:-apple-system,&quot;SF Pro Display&quot;,&quot;SF Pro Text&quot;,Helvetica,sans-serif;text-anchor:middle;" transform="matrix(1 0 0 1 1153.13 322)">Light</text>
  <text style="stroke:none;fill:black;font-family:-apple-system,&quot;SF Pro Display&quot;,&quot;SF Pro Text&quot;,Helvetica,sans-serif;text-anchor:middle;" transform="matrix(1 0 0 1 1449.84 322)">Regular</text>
  <text style="stroke:none;fill:black;font-family:-apple-system,&quot;SF Pro Display&quot;,&quot;SF Pro Text&quot;,Helvetica,sans-serif;text-anchor:middle;" transform="matrix(1 0 0 1 1746.56 322)">Medium</text>
  <text style="stroke:none;fill:black;font-family:-apple-system,&quot;SF Pro Display&quot;,&quot;SF Pro Text&quot;,Helvetica,sans-serif;text-anchor:middle;" transform="matrix(1 0 0 1 2043.27 322)">Semibold</text>
  <text style="stroke:none;fill:black;font-family:-apple-system,&quot;SF Pro Display&quot;,&quot;SF Pro Text&quot;,Helvetica,sans-serif;text-anchor:middle;" transform="matrix(1 0 0 1 2339.98 322)">Bold</text>
  <text style="stroke:none;fill:black;font-family:-apple-system,&quot;SF Pro Display&quot;,&quot;SF Pro Text&quot;,Helvetica,sans-serif;text-anchor:middle;" transform="matrix(1 0 0 1 2636.69 322)">Heavy</text>
  <text style="stroke:none;fill:black;font-family:-apple-system,&quot;SF Pro Display&quot;,&quot;SF Pro Text&quot;,Helvetica,sans-serif;text-anchor:middle;" transform="matrix(1 0 0 1 2933.4 322)">Black</text>
  <line id="" style="fill:none;stroke:black;opacity:1;stroke-width:0.5;" x1="263" x2="3036" y1="1903" y2="1903"/>
  <g id="" transform="matrix(1 0 0 1 263 1933)">
   <path d="M9.24805 0.830078C13.5547 0.830078 17.1387-2.74414 17.1387-7.05078C17.1387-11.3574 13.5449-14.9316 9.23828-14.9316C4.94141-14.9316 1.36719-11.3574 1.36719-7.05078C1.36719-2.74414 4.95117 0.830078 9.24805 0.830078ZM9.24805-0.654297C5.70312-0.654297 2.87109-3.49609 2.87109-7.05078C2.87109-10.6055 5.69336-13.4473 9.23828-13.4473C12.793-13.4473 15.6348-10.6055 15.6445-7.05078C15.6543-3.49609 12.8027-0.654297 9.24805-0.654297ZM9.22852-3.62305C9.69727-3.62305 9.9707-3.93555 9.9707-4.45312L9.9707-6.31836L12.002-6.31836C12.5-6.31836 12.832-6.57227 12.832-7.04102C12.832-7.51953 12.5195-7.7832 12.002-7.7832L9.9707-7.7832L9.9707-9.81445C9.9707-10.332 9.69727-10.6543 9.22852-10.6543C8.75977-10.6543 8.50586-10.3125 8.50586-9.81445L8.50586-7.7832L6.49414-7.7832C5.97656-7.7832 5.64453-7.51953 5.64453-7.04102C5.64453-6.57227 5.99609-6.31836 6.49414-6.31836L8.50586-6.31836L8.50586-4.45312C8.50586-3.95508 8.75977-3.62305 9.22852-3.62305Z"/>
  </g>
  <g id="" transform="matrix(1 0 0 1 281.506 1933)">
   <path d="M11.709 2.91016C17.1582 2.91016 21.6699-1.61133 21.6699-7.05078C21.6699-12.5 17.1484-17.0117 11.6992-17.0117C6.25977-17.0117 1.74805-12.5 1.74805-7.05078C1.74805-1.61133 6.26953 2.91016 11.709 2.91016ZM11.709 1.25C7.09961 1.25 3.41797-2.44141 3.41797-7.05078C3.41797-11.6602 7.08984-15.3516 11.6992-15.3516C16.3086-15.3516 20-11.6602 20.0098-7.05078C20.0195-2.44141 16.3184 1.25 11.709 1.25ZM11.6797-2.66602C12.207-2.66602 12.5098-3.01758 12.5098-3.59375L12.5098-6.23047L15.3223-6.23047C15.8691-6.23047 16.25-6.51367 16.25-7.03125C16.25-7.55859 15.8887-7.86133 15.3223-7.86133L12.5098-7.86133L12.5098-10.6836C12.5098-11.25 12.207-11.6113 11.6797-11.6113C11.1621-11.6113 10.8789-11.2305 10.8789-10.6836L10.8789-7.86133L8.07617-7.86133C7.50977-7.86133 7.13867-7.55859 7.13867-7.03125C7.13867-6.51367 7.5293-6.23047 8.07617-6.23047L10.8789-6.23047L10.8789-3.59375C10.8789-3.03711 11.1621-2.66602 11.6797-2.66602Z"/>
  </g>
  <g id="" transform="matrix(1 0 0 1 304.924 1933)">
   <path d="M14.9707 5.66406C21.9336 5.66406 27.6953-0.0976562 27.6953-7.05078C27.6953-14.0137 21.9238-19.7754 14.9609-19.7754C8.00781-19.7754 2.25586-14.0137 2.25586-7.05078C2.25586-0.0976562 8.01758 5.66406 14.9707 5.66406ZM14.9707 3.84766C8.93555 3.84766 4.08203-1.01562 4.08203-7.05078C4.08203-13.0957 8.92578-17.9492 14.9609-17.9492C21.0059-17.9492 25.8594-13.0957 25.8691-7.05078C25.8789-1.01562 21.0156 3.84766 14.9707 3.84766ZM14.9414-1.38672C15.5176-1.38672 15.8594-1.77734 15.8594-2.38281L15.8594-6.13281L19.7754-6.13281C20.3711-6.13281 20.7812-6.46484 20.7812-7.02148C20.7812-7.59766 20.3906-7.93945 19.7754-7.93945L15.8594-7.93945L15.8594-11.8652C15.8594-12.4805 15.5176-12.8711 14.9414-12.8711C14.375-12.8711 14.0527-12.4609 14.0527-11.8652L14.0527-7.93945L10.1465-7.93945C9.53125-7.93945 9.13086-7.59766 9.13086-7.02148C9.13086-6.46484 9.55078-6.13281 10.1465-6.13281L14.0527-6.13281L14.0527-2.38281C14.0527-1.79688 14.375-1.38672 14.9414-1.38672Z"/>
  </g>
  <text style="stroke:none;fill:black;font-family:-apple-system,&quot;SF Pro Display&quot;,&quot;SF Pro Text&quot;,Helvetica,sans-serif;font-weight:bold;" transform="matrix(1 0 0 1 263 1953)">Design Variations</text>
  <text style="stroke:none;fill:black;font-family:-apple-system,&quot;SF Pro Display&quot;,&quot;SF Pro Text&quot;,Helvetica,sans-serif;" transform="matrix(1 0 0 1 263 1971)">Symbols are supported in up to nine weights and three scales.</text>
  <text style="stroke:none;fill:black;font-family:-apple-system,&quot;SF Pro Display&quot;,&quot;SF Pro Text&quot;,Helvetica,sans-serif;" transform="matrix(1 0 0 1 263 1989)">For optimal layout with text and other symbols, vertically align</text>
  <text style="stroke:none;fill:black;font-family:-apple-system,&quot;SF Pro Display&quot;,&quot;SF Pro Text&quot;,Helvetica,sans-serif;" transform="matrix(1 0 0 1 263 2007)">symbols with the adjacent text.</text>
  <line id="" style="fill:none;stroke:#00AEEF;stroke-width:0.5;opacity:1.0;" x1="776" x2="776" y1="1919" y2="1933"/>
  <g id="" transform="matrix(1 0 0 1 776 1933)">
   <path d="M3.31055 0.126953C3.82812 0.126953 4.08203-0.0683594 4.26758-0.605469L5.52734-4.0625L11.2891-4.0625L12.5488-0.605469C12.7344-0.0683594 12.9883 0.126953 13.4961 0.126953C14.0137 0.126953 14.3457-0.185547 14.3457-0.673828C14.3457-0.839844 14.3164-0.986328 14.2383-1.20117L9.6582-13.3887C9.43359-13.9941 9.0332-14.2871 8.4082-14.2871C7.80273-14.2871 7.39258-13.9941 7.17773-13.3984L2.59766-1.19141C2.51953-0.976562 2.49023-0.830078 2.49023-0.664062C2.49023-0.175781 2.80273 0.126953 3.31055 0.126953ZM6.00586-5.53711L8.37891-12.1094L8.42773-12.1094L10.8008-5.53711Z"/>
  </g>
  <line id="" style="fill:none;stroke:#00AEEF;stroke-width:0.5;opacity:1.0;" x1="792.836" x2="792.836" y1="1919" y2="1933"/>
  <text style="stroke:none;fill:black;font-family:-apple-system,&quot;SF Pro Display&quot;,&quot;SF Pro Text&quot;,Helvetica,sans-serif;font-weight:bold;" transform="matrix(1 0 0 1 776 1953)">Margins</text>
  <text style="stroke:none;fill:black;font-family:-apple-system,&quot;SF Pro Display&quot;,&quot;SF Pro Text&quot;,Helvetica,sans-serif;" transform="matrix(1 0 0 1 776 1971)">Leading and trailing margins on the left and right side of each symbol</text>
  <text style="stroke:none;fill:black;font-family:-apple-system,&quot;SF Pro Display&quot;,&quot;SF Pro Text&quot;,Helvetica,sans-serif;" transform="matrix(1 0 0 1 776 1989)">can be adjusted by modifying the x-location of the margin guidelines.</text>
  <text style="stroke:none;fill:black;font-family:-apple-system,&quot;SF Pro Display&quot;,&quot;SF Pro Text&quot;,Helvetica,sans-serif;" transform="matrix(1 0 0 1 776 2007)">Modifications are automatically applied proportionally to all</text>
  <text style="stroke:none;fill:black;font-family:-apple-system,&quot;SF Pro Display&quot;,&quot;SF Pro Text&quot;,Helvetica,sans-serif;" transform="matrix(1 0 0 1 776 2025)">scales and weights.</text>
  <g id="" transform="matrix(1 0 0 1 1289 1933)">
   <path d="M2.8418 1.86523L4.54102 3.57422C5.40039 4.44336 6.38672 4.38477 7.31445 3.35938L17.4902-7.85156C17.7539-7.76367 18.0273-7.7832 18.3398-7.8418L19.4043-8.03711L20.0684-7.36328L20.0293-6.80664C19.9902-6.30859 20.1172-5.92773 20.6055-5.44922L21.3672-4.70703C21.8457-4.22852 22.4609-4.19922 22.9297-4.66797L25.8398-7.58789C26.3086-8.05664 26.2891-8.65234 25.8105-9.13086L25.0391-9.89258C24.5605-10.3711 24.1895-10.5273 23.7109-10.4883L23.1348-10.4395L22.4902-11.0742L22.7344-12.1973C22.8613-12.7637 22.7051-13.2031 22.1191-13.7891L19.9219-15.9766C16.582-19.2969 12.1484-19.2188 9.25781-16.3281C8.83789-15.918 8.80859-15.3418 9.04297-14.9512C9.27734-14.5898 9.73633-14.3555 10.3809-14.5215C11.8457-14.8633 13.3691-14.9219 14.7949-13.9844L14.209-12.5293C14.0137-12.0508 13.9844-11.6504 14.1113-11.2891L3.04688-0.898438C2.06055 0.0195312 1.98242 0.996094 2.8418 1.86523ZM10.752-15.957C13.1836-17.7344 16.4746-17.4316 18.7012-15.2051L21.1328-12.793C21.3672-12.5586 21.4062-12.373 21.3379-12.0312L21.0156-10.5469L22.5195-9.0625L23.5059-9.12109C23.7598-9.13086 23.8379-9.11133 24.0332-8.91602L24.6094-8.33984L22.168-5.89844L21.5918-6.47461C21.3965-6.66992 21.3672-6.74805 21.377-7.01172L21.4453-7.98828L19.9512-9.47266L18.4277-9.21875C18.1055-9.15039 17.959-9.17969 17.7148-9.41406L15.7129-11.416C15.459-11.6504 15.4297-11.8164 15.5859-12.1875L16.4648-14.2773C14.9023-15.7324 12.8711-16.3574 10.8398-15.7617C10.6836-15.7227 10.625-15.8496 10.752-15.957ZM5.27344 2.30469L4.10156 1.14258C3.63281 0.683594 3.74023 0.341797 4.14062-0.0195312L14.9512-10.1953L16.416-8.71094L6.42578 2.27539C6.07422 2.67578 5.74219 2.77344 5.27344 2.30469Z"/>
  </g>
  <text style="stroke:none;fill:black;font-family:-apple-system,&quot;SF Pro Display&quot;,&quot;SF Pro Text&quot;,Helvetica,sans-serif;font-weight:bold;" transform="matrix(1 0 0 1 1289 1953)">Exporting</text>
  <text style="stroke:none;fill:black;font-family:-apple-system,&quot;SF Pro Display&quot;,&quot;SF Pro Text&quot;,Helvetica,sans-serif;" transform="matrix(1 0 0 1 1289 1971)">Symbols should be outlined when exporting to ensure the</text>
  <text style="stroke:none;fill:black;font-family:-apple-system,&quot;SF Pro Display&quot;,&quot;SF Pro Text&quot;,Helvetica,sans-serif;" transform="matrix(1 0 0 1 1289 1989)">design is preserved when submitting to Xcode.</text>
  <text id="template-version" style="stroke:none;fill:black;font-family:-apple-system,&quot;SF Pro Display&quot;,&quot;SF Pro Text&quot;,Helvetica,sans-serif;text-anchor:end;" transform="matrix(1 0 0 1 3036 1933)">Template v.2.0</text>
  <text style="stroke:none;fill:black;font-family:-apple-system,&quot;SF Pro Display&quot;,&quot;SF Pro Text&quot;,Helvetica,sans-serif;text-anchor:end;" transform="matrix(1 0 0 1 3036 1951)">Requires Xcode 12 or greater</text>
  <text style="stroke:none;fill:black;font-family:-apple-system,&quot;SF Pro Display&quot;,&quot;SF Pro Text&quot;,Helvetica,sans-serif;text-anchor:end;" transform="matrix(1 0 0 1 3036 1969)">Generated from plus</text>
  <text style="stroke:none;fill:black;font-family:-apple-system,&quot;SF Pro Display&quot;,&quot;SF Pro Text&quot;,Helvetica,sans-serif;text-anchor:end;" transform="matrix(1 0 0 1 3036 1987)">Typeset at 100 points</text>
  <text style="stroke:none;fill:black;font-family:-apple-system,&quot;SF Pro Display&quot;,&quot;SF Pro Text&quot;,Helvetica,sans-serif;" transform="matrix(1 0 0 1 263 726)">Small</text>
  <text style="stroke:none;fill:black;font-family:-apple-system,&quot;SF Pro Display&quot;,&quot;SF Pro Text&quot;,Helvetica,sans-serif;" transform="matrix(1 0 0 1 263 1156)">Medium</text>
  <text style="stroke:none;fill:black;font-family:-apple-system,&quot;SF Pro Display&quot;,&quot;SF Pro Text&quot;,Helvetica,sans-serif;" transform="matrix(1 0 0 1 263 1586)">Large</text>
 </g>
 <g id="Guides">
  <g id="H-reference" style="fill:#27AAE1;stroke:none;" transform="matrix(1 0 0 1 339 696)">
   <path d="M0.976562 0L3.66211 0L12.9883-24.4629L45.752-24.4629L55.127 0L57.7637 0L30.6152-70.459L28.125-70.459ZM29.3457-67.1387L29.4434-67.1387L44.873-26.709L13.8672-26.709Z"/>
  </g>
  <line id="Baseline-S" style="fill:none;stroke:#27AAE1;opacity:1;stroke-width:0.5;" x1="263" x2="3036" y1="696" y2="696"/>
  <line id="Capline-S" style="fill:none;stroke:#27AAE1;opacity:1;stroke-width:0.5;" x1="263" x2="3036" y1="625.541" y2="625.541"/>
  <g id="H-reference" style="fill:#27AAE1;stroke:none;" transform="matrix(1 0 0 1 339 1126)">
   <path d="M0.976562 0L3.66211 0L12.9883-24.4629L45.752-24.4629L55.127 0L57.7637 0L30.6152-70.459L28.125-70.459ZM29.3457-67.1387L29.4434-67.1387L44.873-26.709L13.8672-26.709Z"/>
  </g>
  <line id="Baseline-M" style="fill:none;stroke:#27AAE1;opacity:1;stroke-width:0.5;" x1="263" x2="3036" y1="1126" y2="1126"/>
  <line id="Capline-M" style="fill:none;stroke:#27AAE1;opacity:1;stroke-width:0.5;" x1="263" x2="3036" y1="1055.54" y2="1055.54"/>
  <g id="H-reference" style="fill:#27AAE1;stroke:none;" transform="matrix(1 0 0 1 339 1556)">
   <path d="M0.976562 0L3.66211 0L12.9883-24.4629L45.752-24.4629L55.127 0L57.7637 0L30.6152-70.459L28.125-70.459ZM29.3457-67.1387L29.4434-67.1387L44.873-26.709L13.8672-26.709Z"/>
  </g>
  <line id="Baseline-L" style="fill:none;stroke:#27AAE1;opacity:1;stroke-width:0.5;" x1="263" x2="3036" y1="1556" y2="1556"/>
  <line id="Capline-L" style="fill:none;stroke:#27AAE1;opacity:1;stroke-width:0.5;" x1="263" x2="3036" y1="1485.54" y2="1485.54"/>
  <line id="left-margin" style="fill:none;stroke:#00AEEF;stroke-width:0.5;opacity:1.0;" x1="1397.11" x2="1397.11" y1="1030.79" y2="1150.12"/>
  <line id="right-margin" style="fill:none;stroke:#00AEEF;stroke-width:0.5;opacity:1.0;" x1="1502.58" x2="1502.58" y1="1030.79" y2="1150.12"/>
 </g>
 <g id="Symbols">
  <g id="Black-L" transform="matrix(1 0 0 1 2862.14 1556)">
   <path d="M71.2891 20.3125C77.832 20.3125 83.3496 14.5508 83.3496 8.54492L83.3496-23.0957L114.648-23.0957C120.947-23.0957 126.465-28.6133 126.465-35.2051C126.465-41.748 120.947-47.2656 114.648-47.2656L83.3496-47.2656L83.3496-78.8574C83.3496-85.1562 77.832-90.6738 71.2891-90.6738C64.6973-90.6738 59.1797-85.1562 59.1797-78.8574L59.1797-47.2656L27.8809-47.2656C21.875-47.2656 16.0645-41.748 16.0645-35.2051C16.0645-28.6133 21.875-23.0957 27.8809-23.0957L59.1797-23.0957L59.1797 8.54492C59.1797 14.5508 64.6973 20.3125 71.2891 20.3125Z"/>
  </g>
  <g id="Heavy-L" transform="matrix(1 0 0 1 2566.33 1556)">
   <path d="M70.3613 19.6289C76.0254 19.6289 80.7129 14.6973 80.7129 9.52148L80.7129-24.8535L114.502-24.8535C119.922-24.8535 124.658-29.541 124.658-35.2051C124.658-40.8203 119.922-45.5078 114.502-45.5078L80.7129-45.5078L80.7129-79.8828C80.7129-85.3027 76.0254-89.9902 70.3613-89.9902C64.7461-89.9902 60.0098-85.3027 60.0098-79.8828L60.0098-45.5078L26.2207-45.5078C21.0449-45.5078 16.0645-40.8203 16.0645-35.2051C16.0645-29.541 21.0449-24.8535 26.2207-24.8535L60.0098-24.8535L60.0098 9.52148C60.0098 14.6973 64.7461 19.6289 70.3613 19.6289Z"/>
  </g>
  <g id="Bold-L" transform="matrix(1 0 0 1 2270.62 1556)">
   <path d="M69.3848 18.8477C73.9746 18.8477 77.7832 14.8926 77.7832 10.6445L77.7832-26.7578L114.355-26.7578C118.799-26.7578 122.656-30.5664 122.656-35.1562C122.656-39.7461 118.799-43.6035 114.355-43.6035L77.7832-43.6035L77.7832-80.957C77.7832-85.4004 73.9746-89.209 69.3848-89.209C64.7949-89.209 60.9375-85.4004 60.9375-80.957L60.9375-43.6035L24.3652-43.6035C20.0684-43.6035 16.0645-39.7461 16.0645-35.1562C16.0645-30.5664 20.0684-26.7578 24.3652-26.7578L60.9375-26.7578L60.9375 10.6445C60.9375 14.8926 64.7949 18.8477 69.3848 18.8477Z"/>
  </g>
  <g id="Semibold-L" transform="matrix(1 0 0 1 1974.59 1556)">
   <path d="M68.6523 18.3105C72.5586 18.3105 75.7812 15.0391 75.7812 11.377L75.7812-28.0762L114.258-28.0762C118.018-28.0762 121.289-31.2988 121.289-35.1562C121.289-39.0137 118.018-42.2363 114.258-42.2363L75.7812-42.2363L75.7812-81.7383C75.7812-85.498 72.5586-88.6719 68.6523-88.6719C64.7949-88.6719 61.5723-85.498 61.5723-81.7383L61.5723-42.2363L23.0957-42.2363C19.4336-42.2363 16.0645-39.0137 16.0645-35.1562C16.0645-31.2988 19.4336-28.0762 23.0957-28.0762L61.5723-28.0762L61.5723 11.377C61.5723 15.0391 64.7949 18.3105 68.6523 18.3105Z"/>
  </g>
  <g id="Medium-L" transform="matrix(1 0 0 1 1678.42 1556)">
   <path d="M68.1641 17.9199C71.4844 17.9199 74.2188 15.1367 74.2188 11.9629L74.2188-29.1016L114.16-29.1016C117.432-29.1016 120.215-31.8359 120.215-35.1562C120.215-38.4766 117.432-41.2598 114.16-41.2598L74.2188-41.2598L74.2188-82.3242C74.2188-85.5469 71.4844-88.2812 68.1641-88.2812C64.7949-88.2812 62.0605-85.5469 62.0605-82.3242L62.0605-41.2598L22.1191-41.2598C18.9453-41.2598 16.0645-38.4766 16.0645-35.1562C16.0645-31.8359 18.9453-29.1016 22.1191-29.1016L62.0605-29.1016L62.0605 11.9629C62.0605 15.1367 64.7949 17.9199 68.1641 17.9199Z"/>
  </g>
  <g id="Regular-L" transform="matrix(1 0 0 1 1382.39 1556)">
   <path d="M67.4316 17.3828C70.0684 17.3828 72.2168 15.2832 72.2168 12.7441L72.2168-30.3711L114.062-30.3711C116.65-30.3711 118.848-32.5684 118.848-35.1562C118.848-37.793 116.65-39.9414 114.062-39.9414L72.2168-39.9414L72.2168-83.1055C72.2168-85.6445 70.0684-87.7441 67.4316-87.7441C64.8438-87.7441 62.6953-85.6445 62.6953-83.1055L62.6953-39.9414L20.8496-39.9414C18.2617-39.9414 16.0645-37.793 16.0645-35.1562C16.0645-32.5684 18.2617-30.3711 20.8496-30.3711L62.6953-30.3711L62.6953 12.7441C62.6953 15.2832 64.8438 17.3828 67.4316 17.3828Z"/>
  </g>
  <g id="Light-L" transform="matrix(1 0 0 1 1086.48 1556)">
   <path d="M66.6504 16.748C68.6035 16.748 70.2148 15.1855 70.2148 13.2324L70.2148-31.543L113.623-31.543C115.576-31.543 117.236-33.1543 117.236-35.1562C117.236-37.1094 115.576-38.7207 113.623-38.7207L70.2148-38.7207L70.2148-83.5449C70.2148-85.498 68.6035-87.0605 66.6504-87.0605C64.6973-87.0605 63.0371-85.498 63.0371-83.5449L63.0371-38.7207L19.6289-38.7207C17.7246-38.7207 16.0645-37.1094 16.0645-35.1562C16.0645-33.1543 17.7246-31.543 19.6289-31.543L63.0371-31.543L63.0371 13.2324C63.0371 15.1855 64.6973 16.748 66.6504 16.748Z"/>
  </g>
  <g id="Thin-L" transform="matrix(1 0 0 1 790.846 1556)">
   <path d="M65.5762 15.918C66.6992 15.918 67.5781 15.0391 67.5781 13.916L67.5781-33.1055L113.037-33.1055C114.16-33.1055 115.088-33.9844 115.088-35.1074C115.088-36.2305 114.16-37.1582 113.037-37.1582L67.5781-37.1582L67.5781-84.1797C67.5781-85.2539 66.6992-86.1816 65.5762-86.1816C64.4531-86.1816 63.5254-85.2539 63.5254-84.1797L63.5254-37.1582L18.0664-37.1582C16.9922-37.1582 16.0645-36.2305 16.0645-35.1074C16.0645-33.9844 16.9922-33.1055 18.0664-33.1055L63.5254-33.1055L63.5254 13.916C63.5254 15.0391 64.4531 15.918 65.5762 15.918Z"/>
  </g>
  <g id="Ultralight-L" transform="matrix(1 0 0 1 494.696 1556)">
   <path d="M65.0391 15.5273C65.6738 15.5273 66.2598 14.9414 66.2598 14.2578L66.2598-33.8867L112.744-33.8867C113.428-33.8867 113.965-34.4238 113.965-35.1074C113.965-35.791 113.428-36.3281 112.744-36.3281L66.2598-36.3281L66.2598-84.4727C66.2598-85.1562 65.6738-85.6934 65.0391-85.6934C64.3555-85.6934 63.7695-85.1562 63.7695-84.4727L63.7695-36.3281L17.2852-36.3281C16.6016-36.3281 16.0645-35.791 16.0645-35.1074C16.0645-34.4238 16.6016-33.8867 17.2852-33.8867L63.7695-33.8867L63.7695 14.2578C63.7695 14.9414 64.3555 15.5273 65.0391 15.5273Z"/>
  </g>
  <g id="Black-M" transform="matrix(1 0 0 1 2877.39 1126)">
   <path d="M56.0059 8.39844C62.0117 8.39844 67.041 3.02734 67.041-2.39258L67.041-24.1699L88.7695-24.1699C94.5312-24.1699 99.5605-29.1992 99.5605-35.2051C99.5605-41.2109 94.5312-46.2402 88.7695-46.2402L67.041-46.2402L67.041-67.9688C67.041-73.6816 62.0117-78.7598 56.0059-78.7598C50-78.7598 44.9707-73.6816 44.9707-67.9688L44.9707-46.2402L23.2422-46.2402C17.8223-46.2402 12.4512-41.2109 12.4512-35.2051C12.4512-29.1992 17.8223-24.1699 23.2422-24.1699L44.9707-24.1699L44.9707-2.39258C44.9707 3.02734 50 8.39844 56.0059 8.39844Z"/>
  </g>
  <g id="Heavy-M" transform="matrix(1 0 0 1 2581.44 1126)">
   <path d="M55.2246 7.8125C60.4004 7.8125 64.6973 3.27148 64.6973-1.41602L64.6973-25.7324L88.7695-25.7324C93.7012-25.7324 98.0469-30.0293 98.0469-35.2051C98.0469-40.332 93.7012-44.6777 88.7695-44.6777L64.6973-44.6777L64.6973-68.9453C64.6973-73.877 60.4004-78.1738 55.2246-78.1738C50.0977-78.1738 45.752-73.877 45.752-68.9453L45.752-44.6777L21.7285-44.6777C17.041-44.6777 12.4512-40.332 12.4512-35.2051C12.4512-30.0293 17.041-25.7324 21.7285-25.7324L45.752-25.7324L45.752-1.41602C45.752 3.27148 50.0977 7.8125 55.2246 7.8125Z"/>
  </g>
  <g id="Bold-M" transform="matrix(1 0 0 1 2285.61 1126)">
   <path d="M54.3945 7.17773C58.5938 7.17773 62.1094 3.51562 62.1094-0.390625L62.1094-27.4902L88.7207-27.4902C92.7734-27.4902 96.2891-31.0059 96.2891-35.2051C96.2891-39.4043 92.7734-42.9199 88.7207-42.9199L62.1094-42.9199L62.1094-70.0195C62.1094-74.0723 58.5938-77.5391 54.3945-77.5391C50.1953-77.5391 46.6797-74.0723 46.6797-70.0195L46.6797-42.9199L20.0195-42.9199C16.1621-42.9199 12.4512-39.4043 12.4512-35.2051C12.4512-31.0059 16.1621-27.4902 20.0195-27.4902L46.6797-27.4902L46.6797-0.390625C46.6797 3.51562 50.1953 7.17773 54.3945 7.17773Z"/>
  </g>
  <g id="Semibold-M" transform="matrix(1 0 0 1 1989.48 1126)">
   <path d="M53.7598 6.68945C57.3242 6.68945 60.2539 3.66211 60.2539 0.341797L60.2539-28.7109L88.7207-28.7109C92.1387-28.7109 95.1172-31.6406 95.1172-35.2051C95.1172-38.7207 92.1387-41.6992 88.7207-41.6992L60.2539-41.6992L60.2539-70.752C60.2539-74.1699 57.3242-77.0996 53.7598-77.0996C50.2441-77.0996 47.3145-74.1699 47.3145-70.752L47.3145-41.6992L18.8477-41.6992C15.5273-41.6992 12.4512-38.7207 12.4512-35.2051C12.4512-31.6406 15.5273-28.7109 18.8477-28.7109L47.3145-28.7109L47.3145 0.341797C47.3145 3.66211 50.2441 6.68945 53.7598 6.68945Z"/>
  </g>
  <g id="Medium-M" transform="matrix(1 0 0 1 1693.24 1126)">
   <path d="M53.3203 6.34766C56.3965 6.34766 58.8867 3.80859 58.8867 0.927734L58.8867-29.6387L88.6719-29.6387C91.6504-29.6387 94.1895-32.1289 94.1895-35.2051C94.1895-38.2324 91.6504-40.7715 88.6719-40.7715L58.8867-40.7715L58.8867-71.3379C58.8867-74.2676 56.3965-76.7578 53.3203-76.7578C50.293-76.7578 47.7539-74.2676 47.7539-71.3379L47.7539-40.7715L17.9688-40.7715C15.0879-40.7715 12.4512-38.2324 12.4512-35.2051C12.4512-32.1289 15.0879-29.6387 17.9688-29.6387L47.7539-29.6387L47.7539 0.927734C47.7539 3.80859 50.293 6.34766 53.3203 6.34766Z"/>
  </g>
  <g id="Regular-M" transform="matrix(1 0 0 1 1397.11 1126)">
   <path d="M52.7344 5.9082C55.127 5.9082 57.1289 4.00391 57.1289 1.66016L57.1289-30.8105L88.6719-30.8105C91.0156-30.8105 93.0176-32.8125 93.0176-35.2051C93.0176-37.5977 91.0156-39.5508 88.6719-39.5508L57.1289-39.5508L57.1289-72.0703C57.1289-74.4141 55.127-76.3184 52.7344-76.3184C50.3418-76.3184 48.3887-74.4141 48.3887-72.0703L48.3887-39.5508L16.7969-39.5508C14.4531-39.5508 12.4512-37.5977 12.4512-35.2051C12.4512-32.8125 14.4531-30.8105 16.7969-30.8105L48.3887-30.8105L48.3887 1.66016C48.3887 4.00391 50.3418 5.9082 52.7344 5.9082Z"/>
  </g>
  <g id="Light-M" transform="matrix(1 0 0 1 1101.13 1126)">
   <path d="M52.002 5.37109C53.8086 5.37109 55.3223 3.90625 55.3223 2.09961L55.3223-31.8359L88.2812-31.8359C90.0391-31.8359 91.5527-33.3496 91.5527-35.1562C91.5527-36.9629 90.0391-38.4766 88.2812-38.4766L55.3223-38.4766L55.3223-72.4609C55.3223-74.2676 53.8086-75.7324 52.002-75.7324C50.1953-75.7324 48.6816-74.2676 48.6816-72.4609L48.6816-38.4766L15.7715-38.4766C13.9648-38.4766 12.4512-36.9629 12.4512-35.1562C12.4512-33.3496 13.9648-31.8359 15.7715-31.8359L48.6816-31.8359L48.6816 2.09961C48.6816 3.90625 50.1953 5.37109 52.002 5.37109Z"/>
  </g>
  <g id="Thin-M" transform="matrix(1 0 0 1 805.372 1126)">
   <path d="M51.0254 4.58984C52.0996 4.58984 52.9297 3.75977 52.9297 2.73438L52.9297-33.252L87.7441-33.252C88.7695-33.252 89.6484-34.082 89.6484-35.1562C89.6484-36.1816 88.7695-37.0605 87.7441-37.0605L52.9297-37.0605L52.9297-72.998C52.9297-74.0723 52.0996-74.9023 51.0254-74.9023C50-74.9023 49.1211-74.0723 49.1211-72.998L49.1211-37.0605L14.3555-37.0605C13.3301-37.0605 12.4512-36.1816 12.4512-35.1562C12.4512-34.082 13.3301-33.252 14.3555-33.252L49.1211-33.252L49.1211 2.73438C49.1211 3.75977 50 4.58984 51.0254 4.58984Z"/>
  </g>
  <g id="Ultralight-M" transform="matrix(1 0 0 1 509.15 1126)">
   <path d="M50.5371 4.19922C51.2207 4.19922 51.7578 3.66211 51.7578 3.02734L51.7578-33.9355L87.4512-33.9355C88.1348-33.9355 88.6719-34.4727 88.6719-35.1562C88.6719-35.791 88.1348-36.3281 87.4512-36.3281L51.7578-36.3281L51.7578-73.291C51.7578-73.9746 51.2207-74.5117 50.5371-74.5117C49.9023-74.5117 49.3652-73.9746 49.3652-73.291L49.3652-36.3281L13.623-36.3281C12.9883-36.3281 12.4512-35.791 12.4512-35.1562C12.4512-34.4727 12.9883-33.9355 13.623-33.9355L49.3652-33.9355L49.3652 3.02734C49.3652 3.66211 49.9023 4.19922 50.5371 4.19922Z"/>
  </g>
  <g id="Black-S" transform="matrix(1 0 0 1 2889.55 696)">
   <path d="M43.8477-1.07422C48.4863-1.07422 52.3926-5.22461 52.3926-9.42383L52.3926-26.6602L69.5801-26.6602C74.0234-26.6602 77.9297-30.5664 77.9297-35.2051C77.9297-39.8438 74.0234-43.75 69.5801-43.75L52.3926-43.75L52.3926-60.9375C52.3926-65.3809 48.4863-69.2871 43.8477-69.2871C39.209-69.2871 35.3027-65.3809 35.3027-60.9375L35.3027-43.75L18.1152-43.75C13.916-43.75 9.76562-39.8438 9.76562-35.2051C9.76562-30.5664 13.916-26.6602 18.1152-26.6602L35.3027-26.6602L35.3027-9.42383C35.3027-5.22461 39.209-1.07422 43.8477-1.07422Z"/>
  </g>
  <g id="Heavy-S" transform="matrix(1 0 0 1 2593.35 696)">
   <path d="M43.3594-1.46484C47.4121-1.46484 50.7812-5.0293 50.7812-8.74023L50.7812-27.7344L69.5801-27.7344C73.4863-27.7344 76.9043-31.1523 76.9043-35.2051C76.9043-39.2578 73.4863-42.6758 69.5801-42.6758L50.7812-42.6758L50.7812-61.6211C50.7812-65.5273 47.4121-68.8965 43.3594-68.8965C39.3066-68.8965 35.8887-65.5273 35.8887-61.6211L35.8887-42.6758L17.0898-42.6758C13.3789-42.6758 9.76562-39.2578 9.76562-35.2051C9.76562-31.1523 13.3789-27.7344 17.0898-27.7344L35.8887-27.7344L35.8887-8.74023C35.8887-5.0293 39.3066-1.46484 43.3594-1.46484Z"/>
  </g>
  <g id="Bold-S" transform="matrix(1 0 0 1 2297.2 696)">
   <path d="M42.7734-1.9043C46.1426-1.9043 49.0234-4.83398 49.0234-8.00781L49.0234-28.9551L69.6289-28.9551C72.9004-28.9551 75.7812-31.7871 75.7812-35.2051C75.7812-38.623 72.9004-41.4551 69.6289-41.4551L49.0234-41.4551L49.0234-62.4023C49.0234-65.6738 46.1426-68.5059 42.7734-68.5059C39.3555-68.5059 36.5234-65.6738 36.5234-62.4023L36.5234-41.4551L15.918-41.4551C12.7441-41.4551 9.76562-38.623 9.76562-35.2051C9.76562-31.7871 12.7441-28.9551 15.918-28.9551L36.5234-28.9551L36.5234-8.00781C36.5234-4.83398 39.3555-1.9043 42.7734-1.9043Z"/>
  </g>
  <g id="Semibold-S" transform="matrix(1 0 0 1 2000.88 696)">
   <path d="M42.3828-2.19727C45.3125-2.19727 47.7539-4.6875 47.7539-7.4707L47.7539-29.7852L69.6289-29.7852C72.5098-29.7852 75-32.2754 75-35.2051C75-38.1348 72.5098-40.625 69.6289-40.625L47.7539-40.625L47.7539-62.9395C47.7539-65.8203 45.3125-68.2129 42.3828-68.2129C39.4043-68.2129 36.9629-65.8203 36.9629-62.9395L36.9629-40.625L15.0879-40.625C12.3535-40.625 9.76562-38.1348 9.76562-35.2051C9.76562-32.2754 12.3535-29.7852 15.0879-29.7852L36.9629-29.7852L36.9629-7.4707C36.9629-4.6875 39.4043-2.19727 42.3828-2.19727Z"/>
  </g>
  <g id="Medium-S" transform="matrix(1 0 0 1 1704.49 696)">
   <path d="M42.0898-2.44141C44.6777-2.44141 46.8262-4.58984 46.8262-7.08008L46.8262-30.4199L69.6289-30.4199C72.168-30.4199 74.3652-32.6172 74.3652-35.2051C74.3652-37.793 72.168-39.9902 69.6289-39.9902L46.8262-39.9902L46.8262-63.3301C46.8262-65.8691 44.6777-68.0176 42.0898-68.0176C39.4531-68.0176 37.3047-65.8691 37.3047-63.3301L37.3047-39.9902L14.502-39.9902C12.0117-39.9902 9.76562-37.793 9.76562-35.2051C9.76562-32.6172 12.0117-30.4199 14.502-30.4199L37.3047-30.4199L37.3047-7.08008C37.3047-4.58984 39.4531-2.44141 42.0898-2.44141Z"/>
  </g>
  <g id="Regular-S" transform="matrix(1 0 0 1 1408.17 696)">
   <path d="M41.6992-2.73438C43.8477-2.73438 45.6055-4.44336 45.6055-6.5918L45.6055-31.25L69.6777-31.25C71.7773-31.25 73.584-33.0566 73.584-35.2051C73.584-37.3535 71.7773-39.1602 69.6777-39.1602L45.6055-39.1602L45.6055-63.8672C45.6055-66.0156 43.8477-67.7246 41.6992-67.7246C39.5508-67.7246 37.7441-66.0156 37.7441-63.8672L37.7441-39.1602L13.7207-39.1602C11.5723-39.1602 9.76562-37.3535 9.76562-35.2051C9.76562-33.0566 11.5723-31.25 13.7207-31.25L37.7441-31.25L37.7441-6.5918C37.7441-4.44336 39.5508-2.73438 41.6992-2.73438Z"/>
  </g>
  <g id="Light-S" transform="matrix(1 0 0 1 1112.09 696)">
   <path d="M41.0156-3.22266C42.6758-3.22266 44.043-4.54102 44.043-6.15234L44.043-32.1777L69.3359-32.1777C70.9473-32.1777 72.3145-33.5449 72.3145-35.2051C72.3145-36.8164 70.9473-38.1836 69.3359-38.1836L44.043-38.1836L44.043-64.2578C44.043-65.8691 42.6758-67.1875 41.0156-67.1875C39.4043-67.1875 38.0371-65.8691 38.0371-64.2578L38.0371-38.1836L12.7441-38.1836C11.1328-38.1836 9.76562-36.8164 9.76562-35.2051C9.76562-33.5449 11.1328-32.1777 12.7441-32.1777L38.0371-32.1777L38.0371-6.15234C38.0371-4.54102 39.4043-3.22266 41.0156-3.22266Z"/>
  </g>
  <g id="Thin-S" transform="matrix(1 0 0 1 816.237 696)">
   <path d="M40.1855-3.85742C41.1621-3.85742 41.9434-4.63867 41.9434-5.61523L41.9434-33.3984L68.8477-33.3984C69.8242-33.3984 70.6055-34.1797 70.6055-35.1562C70.6055-36.1328 69.8242-36.9141 68.8477-36.9141L41.9434-36.9141L41.9434-64.7461C41.9434-65.6738 41.1621-66.4551 40.1855-66.4551C39.209-66.4551 38.4277-65.6738 38.4277-64.7461L38.4277-36.9141L11.5234-36.9141C10.5957-36.9141 9.76562-36.1328 9.76562-35.1562C9.76562-34.1797 10.5957-33.3984 11.5234-33.3984L38.4277-33.3984L38.4277-5.61523C38.4277-4.63867 39.209-3.85742 40.1855-3.85742Z"/>
  </g>
  <g id="Ultralight-S" transform="matrix(1 0 0 1 519.965 696)">
   <path d="M39.7461-4.19922C40.3809-4.19922 40.8691-4.73633 40.8691-5.32227L40.8691-34.0332L68.6035-34.0332C69.2383-34.0332 69.7266-34.5215 69.7266-35.1562C69.7266-35.791 69.2383-36.2793 68.6035-36.2793L40.8691-36.2793L40.8691-64.9902C40.8691-65.5762 40.3809-66.1133 39.7461-66.1133C39.1113-66.1133 38.623-65.5762 38.623-64.9902L38.623-36.2793L10.8887-36.2793C10.2539-36.2793 9.76562-35.791 9.76562-35.1562C9.76562-34.5215 10.2539-34.0332 10.8887-34.0332L38.623-34.0332L38.623-5.32227C38.623-4.73633 39.1113-4.19922 39.7461-4.19922Z"/>
  </g>
 </g>
</svg>
