<svg width="16" height="8" viewBox="0 0 16 8" fill="none" xmlns="http://www.w3.org/2000/svg">
<path d="M0.44782 7.5H4.96842V6.45082H1.69942V4.56499H4.70865V3.5158H1.69942V1.64009H4.94143V0.590909H0.44782V7.5ZM10.2599 3.68786C10.0912 2.81072 9.38949 2.25071 8.175 2.25071C6.92678 2.25071 6.07664 2.8647 6.08001 3.8228C6.07664 4.57848 6.54219 5.07777 7.5374 5.28356L8.42128 5.4691C8.89695 5.57369 9.11961 5.76598 9.11961 6.05948C9.11961 6.41371 8.73502 6.68022 8.15476 6.68022C7.59475 6.68022 7.2304 6.43732 7.12582 5.97177L5.93495 6.08647C6.08676 7.03782 6.8863 7.60121 8.15814 7.60121C9.45359 7.60121 10.3678 6.92987 10.3712 5.94815C10.3678 5.20934 9.89216 4.75728 8.91382 4.54474L8.02994 4.35582C7.50366 4.23775 7.2945 4.05558 7.29787 3.75533C7.2945 3.40447 7.68246 3.16158 8.19187 3.16158C8.75526 3.16158 9.05214 3.46857 9.1466 3.8093L10.2599 3.68786ZM13.6385 7.60121C14.9407 7.60121 15.7706 6.82866 15.8583 5.72887H14.6911C14.5865 6.28551 14.185 6.606 13.6486 6.606C12.8862 6.606 12.3937 5.96839 12.3937 4.90909C12.3937 3.86328 12.8963 3.2358 13.6486 3.2358C14.2356 3.2358 14.5966 3.61364 14.6911 4.11293H15.8583C15.774 2.98952 14.8969 2.25071 13.6318 2.25071C12.1137 2.25071 11.1556 3.34712 11.1556 4.92933C11.1556 6.49805 12.09 7.60121 13.6385 7.60121Z" fill="#797B80"/>
</svg>
